SplineFontDB: 3.0
FontName: AlegreyaSC-Black
FullName: Alegreya SC Black
FamilyName: Alegreya SC
Weight: Black
Copyright: Copyright (c) 2011, Juan Pablo del Peral (juan@huertatipografica.com.ar), with Reserved Font Names "Alegreya" "Alegreya SC"
Version: 1.002
ItalicAngle: 0
UnderlinePosition: -59
UnderlineWidth: 56
Ascent: 800
Descent: 200
sfntRevision: 0x00010083
LayerCount: 2
Layer: 0 1 "Back"  1
Layer: 1 1 "Fore"  0
XUID: [1021 803 624330594 2079202]
FSType: 0
OS2Version: 2
OS2_WeightWidthSlopeOnly: 0
OS2_UseTypoMetrics: 1
CreationTime: 1324154496
ModificationTime: 1324183920
PfmFamily: 17
TTFWeight: 900
TTFWidth: 5
LineGap: 0
VLineGap: 0
Panose: 2 0 5 3 5 0 0 2 0 4
OS2TypoAscent: 216
OS2TypoAOffset: 1
OS2TypoDescent: -145
OS2TypoDOffset: 1
OS2TypoLinegap: 0
OS2WinAscent: 0
OS2WinAOffset: 1
OS2WinDescent: 0
OS2WinDOffset: 1
HheadAscent: 0
HheadAOffset: 1
HheadDescent: 0
HheadDOffset: 1
OS2SubXSize: 650
OS2SubYSize: 600
OS2SubXOff: 0
OS2SubYOff: 75
OS2SupXSize: 650
OS2SupYSize: 600
OS2SupXOff: 0
OS2SupYOff: 350
OS2StrikeYSize: 50
OS2StrikeYPos: 250
OS2Vendor: 'pyrs'
OS2CodePages: 20000093.00000000
OS2UnicodeRanges: 00000007.00000001.00000000.00000000
Lookup: 258 0 0 "'kern' Horizontal Kerning lookup 0"  {"'kern' Horizontal Kerning lookup 0 subtable"  } ['kern' ('DFLT' <'dflt' > ) ]
DEI: 91125
TtTable: prep
PUSHW_1
 511
SCANCTRL
PUSHB_1
 4
SCANTYPE
EndTTInstrs
ShortTable: maxp 16
  1
  0
  497
  86
  7
  0
  0
  2
  0
  1
  1
  0
  64
  0
  0
  0
EndShort
LangName: 1033 "" "" "" "JuanPablodelPeral: Alegreya SC Black: 2010" "" "Version 1.002" "" "Alegreya is a trademark of Juan Pablo del Peral" "Juan Pablo del Peral" "Juan Pablo del Peral" "" "www.huertatipografica.com.ar" "www.huertatipografica.com.ar" "This Font Software is licensed under the SIL Open Font License, Version 1.1. This license is available with a FAQ at: http://scripts.sil.org/OFL" "http://scripts.sil.org/OFL" 
GaspTable: 1 65535 15 1
Encoding: UnicodeBmp
UnicodeInterp: none

StartChar: exclam
Encoding: 33 33 4
Width: 284
GlyphClass: 2
Flags: W
LayerCount: 2
Fore
SplineSet
206 19 m 128,-1,1
 179 -9 179 -9 132.5 -9 c 128,-1,2
 86 -9 86 -9 62 15.5 c 128,-1,3
 38 40 38 40 38 87 c 128,-1,4
 38 134 38 134 65.5 162 c 128,-1,5
 93 190 93 190 138.5 190 c 128,-1,6
 184 190 184 190 208.5 165 c 128,-1,7
 233 140 233 140 233 93.5 c 128,-1,0
 233 47 233 47 206 19 c 128,-1,1
78 265 m 1,8,-1
 44 667 l 1,9,-1
 62 691 l 1,10,-1
 250 717 l 1,11,-1
 275 691 l 1,12,-1
 202 261 l 1,13,-1
 99 245 l 1,14,-1
 78 265 l 1,8,-1
EndSplineSet
EndChar

StartChar: quotedbl
Encoding: 34 34 5
Width: 346
GlyphClass: 2
Flags: W
LayerCount: 2
Fore
SplineSet
34 407 m 1,0,1
 34 422 34 422 34 450 c 0,2,3
 34 522 34 522 25 645 c 1,4,-1
 159 659 l 1,5,-1
 168 647 l 1,6,7
 152 538 152 538 126 426 c 1,8,-1
 53 401 l 1,9,-1
 34 407 l 1,0,1
204 407 m 1,10,11
 204 422 204 422 204 450 c 0,12,13
 204 522 204 522 195 645 c 1,14,-1
 329 659 l 1,15,-1
 338 647 l 1,16,17
 322 538 322 538 296 426 c 1,18,-1
 223 401 l 1,19,-1
 204 407 l 1,10,11
EndSplineSet
EndChar

StartChar: numbersign
Encoding: 35 35 6
Width: 557
GlyphClass: 2
Flags: W
LayerCount: 2
Fore
SplineSet
47 339 m 1,0,-1
 38 352 l 1,1,-1
 52 457 l 1,2,-1
 143 456 l 1,3,-1
 160 573 l 1,4,-1
 268 582 l 1,5,-1
 282 575 l 1,6,-1
 260 456 l 1,7,-1
 340 456 l 1,8,-1
 357 573 l 1,9,-1
 465 582 l 1,10,-1
 479 575 l 1,11,-1
 457 459 l 1,12,-1
 542 462 l 1,13,-1
 549 447 l 1,14,-1
 540 341 l 1,15,-1
 437 340 l 1,16,-1
 425 264 l 1,17,-1
 511 267 l 1,18,-1
 518 252 l 1,19,-1
 509 146 l 1,20,-1
 408 145 l 1,21,-1
 393 45 l 1,22,-1
 287 31 l 1,23,-1
 274 40 l 1,24,-1
 292 145 l 1,25,-1
 210 145 l 1,26,-1
 196 45 l 1,27,-1
 90 31 l 1,28,-1
 77 40 l 1,29,-1
 95 144 l 1,30,-1
 16 144 l 1,31,-1
 7 157 l 1,32,-1
 21 262 l 1,33,-1
 114 261 l 1,34,-1
 126 339 l 1,35,-1
 47 339 l 1,0,-1
240 340 m 1,36,-1
 228 261 l 1,37,-1
 311 261 l 1,38,-1
 323 340 l 1,39,-1
 240 340 l 1,36,-1
EndSplineSet
EndChar

StartChar: dollar
Encoding: 36 36 7
Width: 474
GlyphClass: 2
Flags: W
LayerCount: 2
Fore
SplineSet
213 106 m 0,0,1
 260 106 260 106 260 128 c 0,2,3
 260 145 260 145 235 158.5 c 128,-1,4
 210 172 210 172 174 185 c 128,-1,5
 138 198 138 198 102 215 c 128,-1,6
 66 232 66 232 41 265 c 128,-1,7
 16 298 16 298 16 343 c 0,8,9
 16 405 16 405 64 448 c 128,-1,10
 112 491 112 491 196 506 c 1,11,-1
 213 644 l 1,12,-1
 340 658 l 1,13,-1
 346 649 l 1,14,-1
 328 511 l 1,15,16
 390 505 390 505 443 491 c 1,17,-1
 454 472 l 1,18,19
 438 403 438 403 431 333 c 1,20,-1
 327 327 l 1,21,-1
 316 333 l 1,22,-1
 316 341 l 2,23,24
 316 366 316 366 301 380 c 128,-1,25
 286 394 286 394 260 394 c 0,26,27
 215 394 215 394 215 367 c 0,28,29
 215 339 215 339 301 310 c 0,30,31
 337 298 337 298 373 281 c 128,-1,32
 409 264 409 264 434 232 c 128,-1,33
 459 200 459 200 459 155 c 0,34,35
 459 90 459 90 407 48 c 128,-1,36
 355 6 355 6 261 -5 c 1,37,-1
 242 -151 l 1,38,-1
 117 -164 l 1,39,-1
 109 -158 l 1,40,-1
 130 -4 l 1,41,42
 69 4 69 4 24 25 c 1,43,-1
 13 40 l 1,44,45
 29 130 29 130 31 177 c 1,46,-1
 145 184 l 1,47,48
 145 149 145 149 163.5 127.5 c 128,-1,49
 182 106 182 106 213 106 c 0,0,1
EndSplineSet
EndChar

StartChar: percent
Encoding: 37 37 8
Width: 758
GlyphClass: 2
Flags: W
LayerCount: 2
Fore
SplineSet
80 475 m 0,0,1
 80 428 80 428 156.5 428 c 128,-1,2
 233 428 233 428 233 470 c 0,3,4
 233 517 233 517 152 517 c 0,5,6
 114 517 114 517 97 507 c 128,-1,7
 80 497 80 497 80 475 c 0,0,1
270.5 341 m 128,-1,9
 227 290 227 290 152 290 c 128,-1,10
 77 290 77 290 38.5 335.5 c 128,-1,11
 0 381 0 381 0 469 c 128,-1,12
 0 557 0 557 44 608 c 128,-1,13
 88 659 88 659 163 659 c 128,-1,14
 238 659 238 659 276 614 c 128,-1,15
 314 569 314 569 314 480.5 c 128,-1,8
 314 392 314 392 270.5 341 c 128,-1,9
524 173 m 0,16,17
 524 126 524 126 600.5 126 c 128,-1,18
 677 126 677 126 677 168 c 0,19,20
 677 215 677 215 596 215 c 0,21,22
 558 215 558 215 541 205 c 128,-1,23
 524 195 524 195 524 173 c 0,16,17
714.5 39 m 128,-1,25
 671 -12 671 -12 596 -12 c 128,-1,26
 521 -12 521 -12 482.5 33.5 c 128,-1,27
 444 79 444 79 444 167 c 128,-1,28
 444 255 444 255 488 306 c 128,-1,29
 532 357 532 357 607 357 c 128,-1,30
 682 357 682 357 720 312 c 128,-1,31
 758 267 758 267 758 178.5 c 128,-1,24
 758 90 758 90 714.5 39 c 128,-1,25
628 647 m 1,32,-1
 638 623 l 1,33,34
 459 346 459 346 368 207 c 1,35,-1
 179 -91 l 1,36,-1
 86 -56 l 1,37,-1
 80 -39 l 1,38,39
 191 121 191 121 274 253 c 2,40,-1
 541 679 l 1,41,-1
 628 647 l 1,32,-1
EndSplineSet
EndChar

StartChar: ampersand
Encoding: 38 38 9
Width: 680
GlyphClass: 2
Flags: W
LayerCount: 2
Fore
SplineSet
452 324 m 1,0,-1
 628 312 l 1,1,2
 655 312 655 312 693 333 c 1,3,-1
 700 333 l 1,4,-1
 738 275 l 1,5,-1
 739 270 l 1,6,-1
 671 204 l 1,7,-1
 652 198 l 1,8,-1
 592 201 l 1,9,10
 560 109 560 109 477.5 48.5 c 128,-1,11
 395 -12 395 -12 300 -12 c 0,12,13
 176 -12 176 -12 100 60 c 128,-1,14
 24 132 24 132 24 248 c 0,15,16
 24 343 24 343 86.5 413 c 128,-1,17
 149 483 149 483 233 483 c 0,18,19
 270 483 270 483 297.5 463 c 128,-1,20
 325 443 325 443 325 418 c 2,21,-1
 325 410 l 1,22,-1
 331 406 l 1,23,24
 370 464 370 464 388.5 511.5 c 128,-1,25
 407 559 407 559 415 628 c 1,26,-1
 429 644 l 1,27,-1
 481 644 l 1,28,29
 545 552 545 552 545 526 c 0,30,31
 545 510 545 510 530 491 c 1,32,33
 395 268 395 268 193 159 c 1,34,35
 243 112 243 112 327 112 c 0,36,37
 450 112 450 112 471 208 c 1,38,-1
 457 209 l 1,39,40
 437 209 437 209 412 190 c 1,41,-1
 406 190 l 1,42,-1
 365 249 l 1,43,-1
 365 253 l 1,44,-1
 435 319 l 1,45,-1
 452 324 l 1,0,-1
157.5 327 m 128,-1,47
 143 310 143 310 143 282 c 128,-1,48
 143 254 143 254 151 225 c 1,49,50
 199 254 199 254 214.5 270.5 c 128,-1,51
 230 287 230 287 230 310 c 0,52,53
 230 344 230 344 198 344 c 0,54,46
 172 344 172 344 157.5 327 c 128,-1,47
EndSplineSet
EndChar

StartChar: quotesingle
Encoding: 39 39 10
Width: 176
GlyphClass: 2
Flags: W
LayerCount: 2
Fore
SplineSet
34 407 m 1,0,1
 34 422 34 422 34 450 c 0,2,3
 34 522 34 522 25 645 c 1,4,-1
 159 659 l 1,5,-1
 168 647 l 1,6,7
 152 538 152 538 126 426 c 1,8,-1
 53 401 l 1,9,-1
 34 407 l 1,0,1
EndSplineSet
EndChar

StartChar: parenleft
Encoding: 40 40 11
Width: 309
GlyphClass: 2
Flags: W
LayerCount: 2
Fore
SplineSet
54 163 m 2,0,-1
 54 336 l 2,1,2
 54 405 54 405 71.5 462.5 c 128,-1,3
 89 520 89 520 114 553 c 0,4,5
 166 621 166 621 206 640 c 1,6,-1
 223 649 l 1,7,-1
 240 649 l 1,8,-1
 292 585 l 1,9,-1
 291 576 l 1,10,11
 280 568 280 568 264.5 548.5 c 128,-1,12
 249 529 249 529 238 506 c 0,13,14
 211 446 211 446 211 351 c 2,15,-1
 211 178 l 2,16,17
 211 40 211 40 264 -41 c 0,18,19
 277 -60 277 -60 294 -75 c 1,20,-1
 294 -86 l 1,21,-1
 232 -146 l 1,22,-1
 220 -146 l 1,23,24
 197 -136 197 -136 165.5 -109 c 128,-1,25
 134 -82 134 -82 112 -50.5 c 128,-1,26
 90 -19 90 -19 72 38 c 128,-1,27
 54 95 54 95 54 163 c 2,0,-1
EndSplineSet
EndChar

StartChar: parenright
Encoding: 41 41 12
Width: 309
GlyphClass: 2
Flags: W
LayerCount: 2
Fore
SplineSet
255 340 m 2,0,-1
 255 167 l 2,1,2
 255 98 255 98 237.5 40.5 c 128,-1,3
 220 -17 220 -17 195 -50 c 0,4,5
 143 -118 143 -118 104 -138 c 1,6,-1
 86 -146 l 1,7,-1
 69 -146 l 1,8,-1
 17 -82 l 1,9,-1
 18 -73 l 1,10,11
 29 -65 29 -65 44.5 -45.5 c 128,-1,12
 60 -26 60 -26 70 -3 c 0,13,14
 98 57 98 57 98 152 c 2,15,-1
 98 325 l 2,16,17
 98 434 98 434 68 498 c 0,18,19
 43 553 43 553 24 570 c 2,20,-1
 15 578 l 1,21,-1
 15 589 l 1,22,-1
 77 649 l 1,23,-1
 89 649 l 1,24,25
 112 639 112 639 143.5 612 c 128,-1,26
 175 585 175 585 197 553.5 c 128,-1,27
 219 522 219 522 237 465 c 128,-1,28
 255 408 255 408 255 340 c 2,0,-1
EndSplineSet
EndChar

StartChar: asterisk
Encoding: 42 42 13
Width: 364
GlyphClass: 2
Flags: W
LayerCount: 2
Fore
SplineSet
37 681 m 1,0,1
 81 657 81 657 142 611 c 1,2,-1
 133 562 l 1,3,-1
 124 555 l 1,4,-1
 12 585 l 1,5,6
 12 639 12 639 26 678 c 1,7,-1
 37 681 l 1,0,1
31 465 m 1,8,9
 67 499 67 499 129 543 c 1,10,-1
 174 519 l 1,11,-1
 177 510 l 1,12,-1
 115 412 l 1,13,14
 63 428 63 428 30 453 c 1,15,-1
 31 465 l 1,8,9
234 393 m 1,16,17
 213 437 213 437 190 511 c 1,18,-1
 227 546 l 1,19,-1
 238 546 l 1,20,-1
 311 456 l 1,21,22
 280 411 280 411 245 388 c 1,23,-1
 234 393 l 1,16,17
366 564 m 1,24,25
 330 558 330 558 240 558 c 1,26,-1
 218 604 l 1,27,-1
 222 615 l 1,28,-1
 330 656 l 1,29,30
 363 612 363 612 374 572 c 1,31,-1
 366 564 l 1,24,25
245 742 m 1,32,33
 234 693 234 693 210 620 c 1,34,-1
 160 615 l 1,35,-1
 152 620 l 1,36,-1
 144 736 l 1,37,38
 196 752 196 752 238 752 c 1,39,-1
 245 742 l 1,32,33
EndSplineSet
EndChar

StartChar: plus
Encoding: 43 43 14
Width: 506
GlyphClass: 2
Flags: W
LayerCount: 2
Fore
SplineSet
312 493 m 1,0,-1
 327 486 l 1,1,2
 323 398 323 398 321 323 c 1,3,-1
 483 329 l 1,4,-1
 490 314 l 1,5,-1
 477 178 l 1,6,-1
 321 177 l 1,7,-1
 322 36 l 1,8,-1
 192 18 l 1,9,-1
 179 27 l 1,10,11
 179 101 179 101 180 177 c 1,12,-1
 24 176 l 1,13,-1
 15 189 l 1,14,-1
 33 324 l 1,15,16
 106 323 106 323 180 323 c 1,17,-1
 181 480 l 1,18,-1
 312 493 l 1,0,-1
EndSplineSet
EndChar

StartChar: comma
Encoding: 44 44 15
Width: 238
GlyphClass: 2
Flags: W
LayerCount: 2
Fore
SplineSet
30 145 m 1,0,1
 87 189 87 189 128.5 189 c 128,-1,2
 170 189 170 189 193.5 161.5 c 128,-1,3
 217 134 217 134 217 84.5 c 128,-1,4
 217 35 217 35 172 -21.5 c 128,-1,5
 127 -78 127 -78 50 -122 c 1,6,-1
 -8 -76 l 1,7,-1
 -8 -51 l 1,8,9
 21 -30 21 -30 38.5 -1 c 128,-1,10
 56 28 56 28 56 63.5 c 128,-1,11
 56 99 56 99 27 131 c 1,12,-1
 30 145 l 1,0,1
EndSplineSet
EndChar

StartChar: hyphen
Encoding: 45 45 16
Width: 324
GlyphClass: 2
Flags: W
LayerCount: 2
Fore
SplineSet
279 328 m 1,0,-1
 291 310 l 1,1,-1
 278 202 l 1,2,-1
 46 176 l 1,3,-1
 33 194 l 1,4,-1
 43 300 l 1,5,-1
 196 317 l 1,6,-1
 279 328 l 1,0,-1
EndSplineSet
EndChar

StartChar: period
Encoding: 46 46 17
Width: 238
GlyphClass: 2
Flags: W
LayerCount: 2
Fore
SplineSet
189 19 m 128,-1,1
 162 -9 162 -9 115.5 -9 c 128,-1,2
 69 -9 69 -9 45 15.5 c 128,-1,3
 21 40 21 40 21 87 c 128,-1,4
 21 134 21 134 48.5 162 c 128,-1,5
 76 190 76 190 121.5 190 c 128,-1,6
 167 190 167 190 191.5 165 c 128,-1,7
 216 140 216 140 216 93.5 c 128,-1,0
 216 47 216 47 189 19 c 128,-1,1
EndSplineSet
EndChar

StartChar: slash
Encoding: 47 47 18
Width: 329
GlyphClass: 2
Flags: W
LayerCount: 2
Fore
SplineSet
327 675 m 1,0,-1
 344 655 l 1,1,2
 267 377 267 377 224 215 c 1,3,-1
 141 -110 l 1,4,-1
 15 -110 l 1,5,-1
 4 -95 l 1,6,7
 54 74 54 74 93 226 c 2,8,-1
 208 675 l 1,9,-1
 327 675 l 1,0,-1
EndSplineSet
EndChar

StartChar: zero
Encoding: 48 48 19
Width: 467
GlyphClass: 2
Flags: W
LayerCount: 2
Fore
SplineSet
393 61 m 128,-1,1
 332 -12 332 -12 227 -12 c 128,-1,2
 122 -12 122 -12 67.5 53 c 128,-1,3
 13 118 13 118 13 243 c 128,-1,4
 13 368 13 368 75 441.5 c 128,-1,5
 137 515 137 515 242 515 c 128,-1,6
 347 515 347 515 400.5 450 c 128,-1,7
 454 385 454 385 454 259.5 c 128,-1,0
 454 134 454 134 393 61 c 128,-1,1
121 252 m 0,8,9
 121 179 121 179 233 179 c 128,-1,10
 345 179 345 179 345 246 c 0,11,12
 345 320 345 320 233 320 c 128,-1,13
 121 320 121 320 121 252 c 0,8,9
EndSplineSet
EndChar

StartChar: one
Encoding: 49 49 20
Width: 377
GlyphClass: 2
Flags: W
LayerCount: 2
Fore
SplineSet
281 153 m 0,0,1
 281 88 281 88 320 88 c 1,2,-1
 364 90 l 1,3,-1
 368 84 l 1,4,-1
 354 -6 l 1,5,6
 252 0 252 0 210 0 c 0,7,8
 162 0 162 0 12 -10 c 1,9,-1
 21 71 l 1,10,11
 68 76 68 76 88.5 92 c 128,-1,12
 109 108 109 108 109 139 c 2,13,-1
 109 340 l 2,14,15
 109 375 109 375 99.5 386 c 128,-1,16
 90 397 90 397 62 397 c 1,17,-1
 15 394 l 1,18,-1
 6 404 l 1,19,-1
 14 479 l 1,20,21
 132 489 132 489 320 515 c 1,22,-1
 336 472 l 1,23,24
 307 450 307 450 294 391.5 c 128,-1,25
 281 333 281 333 281 153 c 0,0,1
EndSplineSet
EndChar

StartChar: two
Encoding: 50 50 21
Width: 493
GlyphClass: 2
Flags: W
LayerCount: 2
Fore
SplineSet
204 322 m 1,0,1
 204 367 204 367 154.5 367 c 128,-1,2
 105 367 105 367 56 304 c 1,3,-1
 38 304 l 1,4,-1
 13 408 l 1,5,6
 118 515 118 515 236 515 c 0,7,8
 315 515 315 515 364 476.5 c 128,-1,9
 413 438 413 438 413 382.5 c 128,-1,10
 413 327 413 327 382 280.5 c 128,-1,11
 351 234 351 234 254 137 c 1,12,-1
 259 128 l 1,13,-1
 293 128 l 2,14,15
 331 128 331 128 348.5 148.5 c 128,-1,16
 366 169 366 169 371 219 c 1,17,-1
 487 228 l 1,18,19
 465 95 465 95 460 6 c 1,20,-1
 443 -12 l 1,21,22
 185 0 185 0 82 0 c 1,23,-1
 7 -6 l 1,24,-1
 2 44 l 1,25,-1
 72 121 l 1,26,27
 151 213 151 213 178 253.5 c 128,-1,28
 205 294 205 294 204 322 c 1,0,1
EndSplineSet
EndChar

StartChar: three
Encoding: 51 51 22
Width: 448
GlyphClass: 2
Flags: W
LayerCount: 2
Fore
SplineSet
66 336 m 1,0,-1
 51 335 l 1,1,-1
 19 438 l 1,2,3
 62 471 62 471 121.5 493 c 128,-1,4
 181 515 181 515 227 515 c 0,5,6
 303 515 303 515 349 482 c 128,-1,7
 395 449 395 449 395 399.5 c 128,-1,8
 395 350 395 350 365 314.5 c 128,-1,9
 335 279 335 279 284 263 c 1,10,-1
 284 252 l 1,11,12
 353 232 353 232 390 195.5 c 128,-1,13
 427 159 427 159 427 112 c 0,14,15
 427 34 427 34 325.5 -30.5 c 128,-1,16
 224 -95 224 -95 101 -95 c 0,17,18
 50 -95 50 -95 29 -65.5 c 128,-1,19
 8 -36 8 -36 2 39 c 1,20,-1
 24 62 l 1,21,22
 60 44 60 44 113 44 c 128,-1,23
 166 44 166 44 197 59 c 128,-1,24
 228 74 228 74 228 102 c 0,25,26
 228 156 228 156 114 156 c 1,27,-1
 101 171 l 1,28,-1
 91 261 l 1,29,-1
 156 274 l 1,30,31
 214 298 214 298 214 346 c 0,32,33
 214 363 214 363 202 373.5 c 128,-1,34
 190 384 190 384 170 384 c 0,35,36
 126 384 126 384 66 336 c 1,0,-1
EndSplineSet
EndChar

StartChar: four
Encoding: 52 52 23
Width: 490
GlyphClass: 2
Flags: W
LayerCount: 2
Fore
SplineSet
255 513 m 1,0,-1
 264 515 l 1,1,-1
 404 503 l 1,2,-1
 404 173 l 1,3,-1
 473 173 l 1,4,-1
 484 158 l 1,5,-1
 473 45 l 1,6,7
 446 46 446 46 405 47 c 1,8,-1
 411 -72 l 1,9,-1
 400 -83 l 1,10,-1
 236 -95 l 1,11,-1
 226 -83 l 1,12,13
 230 -14 230 -14 232 52 c 1,14,15
 112 55 112 55 0 55 c 1,16,-1
 1 155 l 1,17,-1
 255 513 l 1,0,-1
233 173 m 1,18,-1
 233 300 l 1,19,-1
 222 300 l 1,20,-1
 136 173 l 1,21,-1
 233 173 l 1,18,-1
EndSplineSet
EndChar

StartChar: five
Encoding: 53 53 24
Width: 423
GlyphClass: 2
Flags: W
LayerCount: 2
Fore
SplineSet
404 133 m 0,0,1
 404 45 404 45 305.5 -25 c 128,-1,2
 207 -95 207 -95 83 -95 c 0,3,4
 33 -95 33 -95 11 -65.5 c 128,-1,5
 -11 -36 -11 -36 -16 39 c 1,6,-1
 6 62 l 1,7,8
 43 44 43 44 95 44 c 128,-1,9
 147 44 147 44 178.5 59.5 c 128,-1,10
 210 75 210 75 210 102 c 128,-1,11
 210 129 210 129 172.5 144.5 c 128,-1,12
 135 160 135 160 43 169 c 1,13,-1
 34 180 l 1,14,15
 50 323 50 323 57 479 c 1,16,-1
 65 487 l 1,17,-1
 263 493 l 2,18,19
 292 494 292 494 305.5 502.5 c 128,-1,20
 319 511 319 511 326 533 c 1,21,-1
 405 538 l 1,22,-1
 376 359 l 1,23,-1
 357 340 l 1,24,25
 278 348 278 348 178 348 c 1,26,-1
 170 298 l 1,27,28
 297 276 297 276 350.5 238.5 c 128,-1,29
 404 201 404 201 404 133 c 0,0,1
EndSplineSet
EndChar

StartChar: six
Encoding: 54 54 25
Width: 473
GlyphClass: 2
Flags: W
LayerCount: 2
Fore
SplineSet
461 203 m 0,0,1
 461 103 461 103 397.5 45.5 c 128,-1,2
 334 -12 334 -12 231.5 -12 c 128,-1,3
 129 -12 129 -12 72 48.5 c 128,-1,4
 15 109 15 109 15 211 c 0,5,6
 15 273 15 273 35 328 c 128,-1,7
 55 383 55 383 87 421 c 128,-1,8
 119 459 119 459 157.5 491 c 128,-1,9
 196 523 196 523 235 542 c 0,10,11
 311 581 311 581 378 599 c 1,12,-1
 391 592 l 1,13,-1
 421 511 l 1,14,15
 416 509 416 509 408 506 c 128,-1,16
 400 503 400 503 376 490.5 c 128,-1,17
 352 478 352 478 330 463 c 0,18,19
 273 426 273 426 233 369 c 1,20,-1
 239 358 l 1,21,-1
 297 379 l 1,22,23
 372 379 372 379 416.5 331.5 c 128,-1,24
 461 284 461 284 461 203 c 0,0,1
241 259 m 0,25,26
 210 259 210 259 184 242 c 1,27,28
 182 216 182 216 182 202 c 0,29,30
 182 105 182 105 239 105 c 0,31,32
 268 105 268 105 280.5 122 c 128,-1,33
 293 139 293 139 293 177 c 0,34,35
 293 259 293 259 241 259 c 0,25,26
EndSplineSet
EndChar

StartChar: seven
Encoding: 55 55 26
Width: 435
GlyphClass: 2
Flags: W
LayerCount: 2
Fore
SplineSet
158 503 m 2,0,-1
 381 503 l 1,1,-1
 438 433 l 1,2,3
 345 230 345 230 273 48 c 1,4,-1
 235 -95 l 1,5,-1
 208 -95 l 1,6,-1
 84 -57 l 1,7,-1
 72 -29 l 1,8,-1
 267 360 l 1,9,-1
 175 351 l 2,10,11
 131 346 131 346 116 331.5 c 128,-1,12
 101 317 101 317 93 269 c 1,13,-1
 10 263 l 1,14,15
 25 396 25 396 30 502 c 1,16,-1
 36 507 l 1,17,18
 96 503 96 503 158 503 c 2,0,-1
EndSplineSet
EndChar

StartChar: eight
Encoding: 56 56 27
Width: 473
GlyphClass: 2
Flags: W
LayerCount: 2
Fore
SplineSet
19 137 m 0,0,1
 19 226 19 226 112 266 c 1,2,3
 27 329 27 329 27 422 c 0,4,5
 27 497 27 497 91.5 548 c 128,-1,6
 156 599 156 599 243 599 c 128,-1,7
 330 599 330 599 385.5 556 c 128,-1,8
 441 513 441 513 441 452 c 0,9,10
 441 370 441 370 361 327 c 1,11,12
 448 273 448 273 448 186 c 128,-1,13
 448 99 448 99 383.5 43.5 c 128,-1,14
 319 -12 319 -12 226 -12 c 128,-1,15
 133 -12 133 -12 76 30 c 128,-1,16
 19 72 19 72 19 137 c 0,0,1
230 96 m 0,17,18
 283 96 283 96 283 143 c 0,19,20
 283 168 283 168 242 192 c 0,21,22
 202 216 202 216 186 222 c 1,23,24
 167 196 167 196 167 165 c 128,-1,25
 167 134 167 134 184.5 115 c 128,-1,26
 202 96 202 96 230 96 c 0,17,18
205.5 471.5 m 128,-1,28
 193 460 193 460 193 439.5 c 128,-1,29
 193 419 193 419 213 403.5 c 128,-1,30
 233 388 233 388 274 370 c 1,31,32
 292 397 292 397 292 425 c 128,-1,33
 292 453 292 453 278 468 c 128,-1,34
 264 483 264 483 241 483 c 128,-1,27
 218 483 218 483 205.5 471.5 c 128,-1,28
EndSplineSet
EndChar

StartChar: nine
Encoding: 57 57 28
Width: 473
GlyphClass: 2
Flags: W
LayerCount: 2
Fore
SplineSet
12 300 m 0,0,1
 12 400 12 400 75.5 457.5 c 128,-1,2
 139 515 139 515 241.5 515 c 128,-1,3
 344 515 344 515 401 454.5 c 128,-1,4
 458 394 458 394 458 292 c 0,5,6
 458 230 458 230 438 175 c 128,-1,7
 418 120 418 120 386 82 c 128,-1,8
 354 44 354 44 315 12 c 128,-1,9
 276 -20 276 -20 238 -40 c 1,10,11
 163 -77 163 -77 95 -96 c 1,12,-1
 82 -89 l 1,13,-1
 52 -8 l 1,14,15
 57 -6 57 -6 65 -3 c 128,-1,16
 73 0 73 0 97 12.5 c 128,-1,17
 121 25 121 25 143 40 c 0,18,19
 202 80 202 80 239 134 c 1,20,-1
 234 145 l 1,21,-1
 176 124 l 1,22,23
 101 124 101 124 56.5 171.5 c 128,-1,24
 12 219 12 219 12 300 c 0,0,1
232 244 m 0,25,26
 261 244 261 244 288 260 c 1,27,28
 291 280 291 280 291 301 c 0,29,30
 291 398 291 398 234 398 c 0,31,32
 205 398 205 398 192.5 381 c 128,-1,33
 180 364 180 364 180 326 c 0,34,35
 180 244 180 244 232 244 c 0,25,26
EndSplineSet
EndChar

StartChar: colon
Encoding: 58 58 29
Width: 238
GlyphClass: 2
Flags: W
LayerCount: 2
Fore
SplineSet
189 19 m 128,-1,1
 162 -9 162 -9 115.5 -9 c 128,-1,2
 69 -9 69 -9 45 15.5 c 128,-1,3
 21 40 21 40 21 87 c 128,-1,4
 21 134 21 134 48.5 162 c 128,-1,5
 76 190 76 190 121.5 190 c 128,-1,6
 167 190 167 190 191.5 165 c 128,-1,7
 216 140 216 140 216 93.5 c 128,-1,0
 216 47 216 47 189 19 c 128,-1,1
189 284 m 128,-1,9
 162 256 162 256 115.5 256 c 128,-1,10
 69 256 69 256 45 280.5 c 128,-1,11
 21 305 21 305 21 352 c 128,-1,12
 21 399 21 399 48.5 427 c 128,-1,13
 76 455 76 455 121.5 455 c 128,-1,14
 167 455 167 455 191.5 430 c 128,-1,15
 216 405 216 405 216 358.5 c 128,-1,8
 216 312 216 312 189 284 c 128,-1,9
EndSplineSet
EndChar

StartChar: semicolon
Encoding: 59 59 30
Width: 238
GlyphClass: 2
Flags: W
LayerCount: 2
Fore
SplineSet
30 145 m 1,0,1
 87 189 87 189 128.5 189 c 128,-1,2
 170 189 170 189 193.5 161.5 c 128,-1,3
 217 134 217 134 217 84.5 c 128,-1,4
 217 35 217 35 172 -21.5 c 128,-1,5
 127 -78 127 -78 50 -122 c 1,6,-1
 -8 -76 l 1,7,-1
 -8 -51 l 1,8,9
 21 -30 21 -30 38.5 -1 c 128,-1,10
 56 28 56 28 56 63.5 c 128,-1,11
 56 99 56 99 27 131 c 1,12,-1
 30 145 l 1,0,1
189 284 m 128,-1,14
 162 256 162 256 115.5 256 c 128,-1,15
 69 256 69 256 45 280.5 c 128,-1,16
 21 305 21 305 21 352 c 128,-1,17
 21 399 21 399 48.5 427 c 128,-1,18
 76 455 76 455 121.5 455 c 128,-1,19
 167 455 167 455 191.5 430 c 128,-1,20
 216 405 216 405 216 358.5 c 128,-1,13
 216 312 216 312 189 284 c 128,-1,14
EndSplineSet
EndChar

StartChar: less
Encoding: 60 60 31
Width: 431
GlyphClass: 2
Flags: W
LayerCount: 2
Fore
SplineSet
33 184 m 1,0,-1
 25 199 l 1,1,-1
 25 352 l 1,2,-1
 203 429 l 1,3,-1
 354 499 l 1,4,-1
 372 488 l 1,5,-1
 406 383 l 1,6,7
 321 350 321 350 150 276 c 1,8,-1
 150 268 l 1,9,-1
 252 219 l 1,10,-1
 397 155 l 1,11,-1
 406 134 l 1,12,-1
 350 42 l 1,13,14
 284 71 284 71 212 105 c 1,15,-1
 33 184 l 1,0,-1
EndSplineSet
EndChar

StartChar: equal
Encoding: 61 61 32
Width: 506
GlyphClass: 2
Flags: W
LayerCount: 2
Fore
SplineSet
483 229 m 1,0,-1
 490 214 l 1,1,-1
 477 78 l 1,2,-1
 24 76 l 1,3,-1
 15 89 l 1,4,-1
 33 224 l 1,5,6
 173 223 173 223 262 223 c 1,7,-1
 483 229 l 1,0,-1
483 429 m 1,8,-1
 490 414 l 1,9,-1
 477 278 l 1,10,-1
 24 276 l 1,11,-1
 15 289 l 1,12,-1
 33 424 l 1,13,14
 173 423 173 423 262 423 c 1,15,-1
 483 429 l 1,8,-1
EndSplineSet
EndChar

StartChar: greater
Encoding: 62 62 33
Width: 431
GlyphClass: 2
Flags: W
LayerCount: 2
Fore
SplineSet
398 357 m 1,0,-1
 406 342 l 1,1,-1
 406 189 l 1,2,-1
 228 112 l 1,3,-1
 77 42 l 1,4,-1
 59 53 l 1,5,-1
 25 158 l 1,6,7
 110 191 110 191 281 265 c 1,8,-1
 281 273 l 1,9,-1
 179 322 l 1,10,-1
 34 386 l 1,11,-1
 25 407 l 1,12,-1
 81 499 l 1,13,14
 147 470 147 470 219 436 c 1,15,-1
 398 357 l 1,0,-1
EndSplineSet
EndChar

StartChar: question
Encoding: 63 63 34
Width: 381
GlyphClass: 2
Flags: W
LayerCount: 2
Fore
SplineSet
216 492 m 0,0,1
 216 563 216 563 53 571 c 1,2,-1
 39 589 l 1,3,-1
 80 707 l 1,4,-1
 97 716 l 1,5,6
 224 713 224 713 308.5 661 c 128,-1,7
 393 609 393 609 393 534 c 0,8,9
 393 482 393 482 361 444 c 128,-1,10
 329 406 329 406 230 341 c 1,11,-1
 227 335 l 1,12,-1
 235 266 l 1,13,-1
 226 252 l 1,14,-1
 108 232 l 1,15,-1
 93 240 l 1,16,-1
 69 373 l 1,17,-1
 72 388 l 1,18,-1
 169 435 l 1,19,20
 216 461 216 461 216 492 c 0,0,1
235 19 m 128,-1,22
 208 -9 208 -9 161.5 -9 c 128,-1,23
 115 -9 115 -9 91 15.5 c 128,-1,24
 67 40 67 40 67 87 c 128,-1,25
 67 134 67 134 94.5 162 c 128,-1,26
 122 190 122 190 167.5 190 c 128,-1,27
 213 190 213 190 237.5 165 c 128,-1,28
 262 140 262 140 262 93.5 c 128,-1,21
 262 47 262 47 235 19 c 128,-1,22
EndSplineSet
EndChar

StartChar: at
Encoding: 64 64 35
Width: 897
GlyphClass: 2
Flags: W
LayerCount: 2
Fore
SplineSet
531 -149 m 1,0,-1
 530 -176 l 1,1,-1
 493 -240 l 1,2,3
 269 -240 269 -240 141.5 -131 c 128,-1,4
 14 -22 14 -22 14 169 c 0,5,6
 14 267 14 267 54.5 360 c 128,-1,7
 95 453 95 453 161.5 521.5 c 128,-1,8
 228 590 228 590 318 631.5 c 128,-1,9
 408 673 408 673 504 673 c 0,10,11
 680 673 680 673 781.5 586.5 c 128,-1,12
 883 500 883 500 883 342 c 128,-1,13
 883 184 883 184 782.5 86 c 128,-1,14
 682 -12 682 -12 511 -12 c 0,15,16
 487 -12 487 -12 472 3 c 128,-1,17
 457 18 457 18 457 36.5 c 128,-1,18
 457 55 457 55 481 158 c 1,19,-1
 471 158 l 1,20,21
 395 27 395 27 338 -12 c 1,22,23
 267 -12 267 -12 227 29.5 c 128,-1,24
 187 71 187 71 187 145 c 0,25,26
 187 263 187 263 268.5 367.5 c 128,-1,27
 350 472 350 472 441 472 c 1,28,-1
 513 452 l 1,29,-1
 518 472 l 1,30,-1
 537 484 l 1,31,-1
 671 472 l 1,32,-1
 679 449 l 1,33,34
 631 240 631 240 610 112 c 1,35,-1
 617 104 l 1,36,37
 686 104 686 104 731 162.5 c 128,-1,38
 776 221 776 221 776 310 c 0,39,40
 776 430 776 430 695 499 c 128,-1,41
 614 568 614 568 468 567.5 c 128,-1,42
 322 567 322 567 222.5 463 c 128,-1,43
 123 359 123 359 123 195.5 c 128,-1,44
 123 32 123 32 228 -58.5 c 128,-1,45
 333 -149 333 -149 531 -149 c 1,0,-1
384 143 m 0,46,47
 401 143 401 143 433.5 206.5 c 128,-1,48
 466 270 466 270 485 341 c 1,49,50
 447 367 447 367 411 367 c 0,51,52
 397 367 397 367 383.5 315 c 128,-1,53
 370 263 370 263 370 203 c 128,-1,54
 370 143 370 143 384 143 c 0,46,47
EndSplineSet
EndChar

StartChar: A
Encoding: 65 65 36
Width: 676
GlyphClass: 2
Flags: W
LayerCount: 2
Fore
SplineSet
395 178 m 1,0,1
 341 180 341 180 322 180 c 128,-1,2
 303 180 303 180 238 175 c 1,3,4
 225 118 225 118 225 107 c 128,-1,5
 225 96 225 96 230.5 92.5 c 128,-1,6
 236 89 236 89 256 89 c 2,7,-1
 282 89 l 1,8,-1
 290 79 l 1,9,-1
 282 -4 l 1,10,11
 189 -1 189 -1 128 -1 c 2,12,-1
 -5 -2 l 1,13,-1
 2 85 l 1,14,15
 38 94 38 94 53 140 c 2,16,-1
 212 642 l 1,17,-1
 475 658 l 1,18,-1
 490 646 l 1,19,20
 586 261 586 261 615 153 c 0,21,22
 624 119 624 119 637.5 103.5 c 128,-1,23
 651 88 651 88 674 86 c 1,24,-1
 681 76 l 1,25,-1
 673 -3 l 1,26,27
 587 -1 587 -1 532 -1 c 1,28,-1
 341 -6 l 1,29,-1
 333 3 l 1,30,-1
 339 87 l 1,31,32
 385 92 385 92 394 97 c 128,-1,33
 403 102 403 102 403 114 c 128,-1,34
 403 126 403 126 395 178 c 1,0,1
321 301 m 2,35,36
 337 301 337 301 373 303 c 1,37,-1
 339 478 l 1,38,-1
 317 478 l 1,39,-1
 270 301 l 1,40,-1
 321 301 l 2,35,36
EndSplineSet
EndChar

StartChar: B
Encoding: 66 66 37
Width: 663
GlyphClass: 2
Flags: W
LayerCount: 2
Fore
SplineSet
618 496 m 0,0,1
 618 408 618 408 521 343 c 1,2,3
 577 323 577 323 611.5 290.5 c 128,-1,4
 646 258 646 258 646 198 c 0,5,6
 646 -11 646 -11 358 -11 c 1,7,8
 276 0 276 0 194 0 c 1,9,-1
 13 -7 l 1,10,-1
 22 83 l 1,11,12
 61 90 61 90 75 105 c 128,-1,13
 89 120 89 120 89 156 c 2,14,-1
 90 513 l 2,15,16
 90 559 90 559 63 559 c 1,17,-1
 29 557 l 1,18,-1
 17 569 l 1,19,-1
 29 649 l 1,20,21
 166 647 166 647 198 647 c 1,22,-1
 390 654 l 1,23,24
 502 654 502 654 560 613.5 c 128,-1,25
 618 573 618 573 618 496 c 0,0,1
283 160 m 1,26,27
 283 114 283 114 357 114 c 128,-1,28
 431 114 431 114 431 187 c 0,29,30
 431 240 431 240 367 260 c 1,31,-1
 288 260 l 1,32,-1
 283 160 l 1,26,27
412 460 m 0,33,34
 412 528 412 528 315 528 c 0,35,36
 298 528 298 528 297 514 c 2,37,-1
 290 389 l 1,38,39
 347 378 347 378 370 378 c 1,40,41
 386 388 386 388 399 412 c 128,-1,42
 412 436 412 436 412 460 c 0,33,34
EndSplineSet
EndChar

StartChar: C
Encoding: 67 67 38
Width: 603
GlyphClass: 2
Flags: W
LayerCount: 2
Fore
SplineSet
547 27 m 1,0,1
 439 -11 439 -11 305 -11 c 128,-1,2
 171 -11 171 -11 93 74 c 128,-1,3
 15 159 15 159 15 319 c 128,-1,4
 15 479 15 479 106 569 c 128,-1,5
 197 659 197 659 366 659 c 0,6,7
 442 659 442 659 576 633 c 1,8,-1
 584 613 l 1,9,10
 563 521 563 521 556 399 c 1,11,-1
 402 390 l 1,12,13
 404 416 404 416 404 451.5 c 128,-1,14
 404 487 404 487 388.5 504 c 128,-1,15
 373 521 373 521 335 521 c 0,16,17
 283 521 283 521 263 483.5 c 128,-1,18
 243 446 243 446 243 340.5 c 128,-1,19
 243 235 243 235 266.5 182.5 c 128,-1,20
 290 130 290 130 340 130 c 0,21,22
 378 130 378 130 396 156 c 128,-1,23
 414 182 414 182 419 246 c 1,24,-1
 572 256 l 1,25,26
 560 139 560 139 560 43 c 1,27,-1
 547 27 l 1,0,1
EndSplineSet
EndChar

StartChar: D
Encoding: 68 68 39
Width: 682
GlyphClass: 2
Flags: W
LayerCount: 2
Fore
SplineSet
90 168 m 2,0,-1
 90 503 l 2,1,2
 90 534 90 534 84.5 545.5 c 128,-1,3
 79 557 79 557 65 557 c 2,4,-1
 33 555 l 1,5,-1
 23 569 l 1,6,-1
 32 650 l 1,7,8
 143 647 143 647 184 647 c 1,9,-1
 350 653 l 1,10,11
 667 653 667 653 667 352 c 0,12,13
 667 184 667 184 573.5 86 c 128,-1,14
 480 -12 480 -12 319 -12 c 1,15,16
 223 0 223 0 160 0 c 1,17,-1
 17 -8 l 1,18,-1
 25 85 l 1,19,20
 63 91 63 91 76.5 108.5 c 128,-1,21
 90 126 90 126 90 168 c 2,0,-1
314 526 m 0,22,23
 294 526 294 526 293 499 c 0,24,25
 283 356 283 356 283 162 c 0,26,27
 283 133 283 133 290.5 123 c 128,-1,28
 298 113 298 113 319 113 c 0,29,30
 384 113 384 113 411 159 c 128,-1,31
 438 205 438 205 438 320.5 c 128,-1,32
 438 436 438 436 411.5 481 c 128,-1,33
 385 526 385 526 314 526 c 0,22,23
EndSplineSet
EndChar

StartChar: E
Encoding: 69 69 40
Width: 603
GlyphClass: 2
Flags: W
LayerCount: 2
Fore
SplineSet
290 387 m 1,0,-1
 372 386 l 1,1,-1
 482 392 l 1,2,-1
 494 378 l 1,3,-1
 480 263 l 1,4,5
 406 266 406 266 372.5 266 c 128,-1,6
 339 266 339 266 285 260 c 1,7,8
 284 226 284 226 284 181 c 128,-1,9
 284 136 284 136 292.5 125.5 c 128,-1,10
 301 115 301 115 332 115 c 0,11,12
 397 115 397 115 418 134.5 c 128,-1,13
 439 154 439 154 448 221 c 1,14,-1
 576 230 l 1,15,-1
 588 215 l 1,16,17
 570 118 570 118 560 9 c 1,18,-1
 545 -7 l 1,19,20
 379 0 379 0 278 0 c 0,21,22
 133 0 133 0 13 -10 c 1,23,-1
 22 82 l 1,24,25
 60 88 60 88 73.5 106.5 c 128,-1,26
 87 125 87 125 87 170 c 2,27,-1
 88 505 l 2,28,29
 88 537 88 537 82.5 548 c 128,-1,30
 77 559 77 559 61 559 c 1,31,-1
 35 557 l 1,32,-1
 23 571 l 1,33,-1
 32 650 l 1,34,35
 174 647 174 647 326 647 c 128,-1,36
 478 647 478 647 574 659 c 1,37,-1
 587 643 l 1,38,39
 569 538 569 538 564 444 c 1,40,-1
 426 435 l 1,41,42
 428 459 428 459 428 472 c 0,43,44
 428 506 428 506 409.5 516.5 c 128,-1,45
 391 527 391 527 350 527 c 128,-1,46
 309 527 309 527 302.5 522 c 128,-1,47
 296 517 296 517 296 500 c 2,48,-1
 290 387 l 1,0,-1
EndSplineSet
EndChar

StartChar: F
Encoding: 70 70 41
Width: 554
GlyphClass: 2
Flags: W
LayerCount: 2
Fore
SplineSet
292.5 127 m 128,-1,1
 301 115 301 115 326.5 115 c 128,-1,2
 352 115 352 115 384 123 c 1,3,-1
 400 105 l 1,4,-1
 387 -3 l 1,5,6
 271 0 271 0 224 0 c 0,7,8
 133 0 133 0 13 -10 c 1,9,-1
 22 82 l 1,10,11
 60 88 60 88 73.5 106.5 c 128,-1,12
 87 125 87 125 87 170 c 2,13,-1
 88 505 l 2,14,15
 88 537 88 537 82.5 548 c 128,-1,16
 77 559 77 559 61 559 c 1,17,-1
 35 557 l 1,18,-1
 23 571 l 1,19,-1
 32 650 l 1,20,21
 174 647 174 647 316.5 647 c 128,-1,22
 459 647 459 647 546 659 c 1,23,-1
 559 643 l 1,24,25
 545 536 545 536 541 444 c 1,26,-1
 403 436 l 1,27,28
 405 460 405 460 405 472 c 0,29,30
 405 504 405 504 389.5 515.5 c 128,-1,31
 374 527 374 527 341.5 527 c 128,-1,32
 309 527 309 527 302.5 522 c 128,-1,33
 296 517 296 517 296 500 c 2,34,-1
 289 370 l 1,35,-1
 372 369 l 1,36,-1
 477 375 l 1,37,-1
 489 361 l 1,38,-1
 475 246 l 1,39,40
 404 249 404 249 370 249 c 128,-1,41
 336 249 336 249 285 243 c 1,42,-1
 284 175 l 2,43,0
 284 139 284 139 292.5 127 c 128,-1,1
EndSplineSet
EndChar

StartChar: G
Encoding: 71 71 42
Width: 639
GlyphClass: 2
Flags: W
LayerCount: 2
Fore
SplineSet
347 130 m 0,0,1
 379 130 379 130 399 142 c 1,2,-1
 399 205 l 2,3,4
 399 229 399 229 392.5 237.5 c 128,-1,5
 386 246 386 246 367 246 c 2,6,-1
 334 245 l 1,7,-1
 325 259 l 1,8,-1
 337 354 l 1,9,-1
 490 354 l 2,10,11
 609 354 609 354 609 359 c 2,12,-1
 619 301 l 1,13,14
 584 281 584 281 575.5 251.5 c 128,-1,15
 567 222 567 222 567 144.5 c 128,-1,16
 567 67 567 67 574 38 c 1,17,-1
 562 22 l 1,18,19
 482 -11 482 -11 329 -11 c 128,-1,20
 176 -11 176 -11 95.5 74 c 128,-1,21
 15 159 15 159 15 320 c 128,-1,22
 15 481 15 481 107.5 570 c 128,-1,23
 200 659 200 659 376 659 c 0,24,25
 459 659 459 659 579 633 c 1,26,-1
 590 613 l 1,27,28
 568 524 568 524 562 407 c 1,29,-1
 408 398 l 1,30,31
 410 425 410 425 410 459.5 c 128,-1,32
 410 494 410 494 397.5 507.5 c 128,-1,33
 385 521 385 521 351 521 c 0,34,35
 290 521 290 521 266.5 483.5 c 128,-1,36
 243 446 243 446 243 339.5 c 128,-1,37
 243 233 243 233 267.5 181.5 c 128,-1,38
 292 130 292 130 347 130 c 0,0,1
EndSplineSet
EndChar

StartChar: H
Encoding: 72 72 43
Width: 739
GlyphClass: 2
Flags: W
LayerCount: 2
Fore
SplineSet
654 156 m 0,0,1
 654 119 654 119 662.5 104 c 128,-1,2
 671 89 671 89 693 89 c 1,3,-1
 721 92 l 1,4,-1
 729 81 l 1,5,-1
 720 -2 l 1,6,7
 632 0 632 0 549 0 c 2,8,-1
 383 -1 l 1,9,-1
 391 86 l 1,10,11
 427 87 427 87 442 104 c 128,-1,12
 457 121 457 121 457 162 c 2,13,-1
 457 264 l 1,14,15
 423 265 423 265 398 265 c 1,16,-1
 285 256 l 1,17,-1
 285 156 l 2,18,19
 285 114 285 114 291.5 100.5 c 128,-1,20
 298 87 298 87 317 87 c 1,21,-1
 344 90 l 1,22,-1
 352 80 l 1,23,-1
 343 -4 l 1,24,25
 222 0 222 0 181 0 c 1,26,-1
 15 -5 l 1,27,-1
 23 80 l 1,28,29
 63 88 63 88 75.5 104 c 128,-1,30
 88 120 88 120 88 162 c 2,31,-1
 88 508 l 2,32,33
 88 539 88 539 81 549 c 128,-1,34
 74 559 74 559 53 559 c 2,35,-1
 27 558 l 1,36,-1
 18 572 l 1,37,-1
 26 647 l 1,38,-1
 155 647 l 1,39,-1
 354 652 l 1,40,-1
 347 562 l 1,41,42
 315 556 315 556 305.5 546.5 c 128,-1,43
 296 537 296 537 294 510 c 2,44,-1
 288 389 l 1,45,-1
 373 386 l 1,46,47
 428 386 428 386 457 389 c 1,48,-1
 457 508 l 2,49,50
 457 538 457 538 450 548.5 c 128,-1,51
 443 559 443 559 422 559 c 2,52,-1
 395 558 l 1,53,-1
 386 572 l 1,54,-1
 394 647 l 1,55,-1
 555 647 l 1,56,-1
 731 652 l 1,57,-1
 724 564 l 1,58,59
 688 558 688 558 676.5 548 c 128,-1,60
 665 538 665 538 664 510 c 1,61,62
 654 375 654 375 654 156 c 0,0,1
EndSplineSet
EndChar

StartChar: I
Encoding: 73 73 44
Width: 370
GlyphClass: 2
Flags: W
LayerCount: 2
Fore
SplineSet
285 156 m 0,0,1
 285 114 285 114 291.5 100.5 c 128,-1,2
 298 87 298 87 317 87 c 1,3,-1
 349 90 l 1,4,-1
 357 80 l 1,5,-1
 348 -4 l 1,6,7
 223 0 223 0 181 0 c 1,8,-1
 15 -5 l 1,9,-1
 23 80 l 1,10,11
 63 89 63 89 75.5 105 c 128,-1,12
 88 121 88 121 88 162 c 2,13,-1
 88 508 l 2,14,15
 88 539 88 539 81 549 c 128,-1,16
 74 559 74 559 53 559 c 2,17,-1
 27 558 l 1,18,-1
 18 572 l 1,19,-1
 26 647 l 1,20,-1
 187 647 l 1,21,-1
 359 652 l 1,22,-1
 352 562 l 1,23,24
 318 557 318 557 307.5 547.5 c 128,-1,25
 297 538 297 538 295 510 c 0,26,27
 285 353 285 353 285 156 c 0,0,1
EndSplineSet
EndChar

StartChar: J
Encoding: 74 74 45
Width: 339
GlyphClass: 2
Flags: W
LayerCount: 2
Fore
SplineSet
80 132 m 2,0,-1
 80 508 l 2,1,2
 80 539 80 539 73.5 549 c 128,-1,3
 67 559 67 559 48 559 c 1,4,-1
 12 557 l 1,5,-1
 3 571 l 1,6,-1
 11 647 l 1,7,-1
 152 648 l 1,8,-1
 342 655 l 1,9,-1
 334 562 l 1,10,11
 305 555 305 555 297 546.5 c 128,-1,12
 289 538 289 538 287 510 c 0,13,14
 275 326 275 326 275 85 c 0,15,16
 275 -11 275 -11 217.5 -71 c 128,-1,17
 160 -131 160 -131 35 -164 c 1,18,-1
 -5 -116 l 1,19,-1
 -3 -101 l 1,20,21
 48 -54 48 -54 64 -9.5 c 128,-1,22
 80 35 80 35 80 132 c 2,0,-1
EndSplineSet
EndChar

StartChar: K
Encoding: 75 75 46
Width: 693
GlyphClass: 2
Flags: W
LayerCount: 2
Fore
SplineSet
88 162 m 2,0,-1
 88 508 l 2,1,2
 88 539 88 539 81 549 c 128,-1,3
 74 559 74 559 53 559 c 2,4,-1
 27 558 l 1,5,-1
 18 572 l 1,6,-1
 27 648 l 1,7,8
 169 647 169 647 187 647 c 2,9,-1
 359 652 l 1,10,-1
 352 562 l 1,11,12
 315 553 315 553 304 542.5 c 128,-1,13
 293 532 293 532 292 506 c 0,14,15
 285 149 285 149 285 130.5 c 128,-1,16
 285 112 285 112 291 99.5 c 128,-1,17
 297 87 297 87 317 87 c 1,18,-1
 349 90 l 1,19,-1
 357 80 l 1,20,-1
 348 -4 l 1,21,22
 223 0 223 0 181 0 c 1,23,-1
 15 -5 l 1,24,-1
 23 80 l 1,25,26
 63 88 63 88 75.5 104 c 128,-1,27
 88 120 88 120 88 162 c 2,0,-1
411 480 m 1,28,29
 432 501 432 501 432 522 c 128,-1,30
 432 543 432 543 423 550 c 128,-1,31
 414 557 414 557 391 558 c 1,32,-1
 385 568 l 1,33,-1
 394 650 l 1,34,35
 491 647 491 647 537 647 c 1,36,-1
 681 652 l 1,37,-1
 690 637 l 1,38,-1
 681 562 l 1,39,40
 610 522 610 522 534 415 c 2,41,-1
 492 356 l 1,42,-1
 586 174 l 2,43,44
 609 130 609 130 631 109 c 128,-1,45
 653 88 653 88 684 84 c 1,46,-1
 694 69 l 1,47,-1
 683 -5 l 1,48,49
 555 -16 555 -16 523 -16 c 128,-1,50
 491 -16 491 -16 467 1.5 c 128,-1,51
 443 19 443 19 420 65 c 2,52,-1
 294 317 l 1,53,-1
 299 347 l 1,54,-1
 411 480 l 1,28,29
EndSplineSet
EndChar

StartChar: L
Encoding: 76 76 47
Width: 557
GlyphClass: 2
Flags: W
LayerCount: 2
Fore
SplineSet
518 -7 m 1,0,1
 367 0 367 0 272 0 c 0,2,3
 133 0 133 0 13 -10 c 1,4,-1
 22 82 l 1,5,6
 60 88 60 88 73.5 106.5 c 128,-1,7
 87 125 87 125 87 170 c 2,8,-1
 87 508 l 2,9,10
 87 539 87 539 80 549 c 128,-1,11
 73 559 73 559 52 559 c 2,12,-1
 26 558 l 1,13,-1
 17 572 l 1,14,-1
 25 647 l 1,15,-1
 186 647 l 1,16,-1
 393 652 l 1,17,-1
 382 554 l 1,18,19
 330 549 330 549 312.5 538.5 c 128,-1,20
 295 528 295 528 294 502 c 0,21,22
 284 352 284 352 284 158 c 0,23,24
 284 135 284 135 292.5 125 c 128,-1,25
 301 115 301 115 321 115 c 0,26,27
 374 115 374 115 393 146.5 c 128,-1,28
 412 178 412 178 417 278 c 1,29,-1
 545 291 l 1,30,-1
 557 276 l 1,31,32
 542 148 542 148 533 9 c 1,33,-1
 518 -7 l 1,0,1
EndSplineSet
EndChar

StartChar: M
Encoding: 77 77 48
Width: 834
GlyphClass: 2
Flags: W
LayerCount: 2
Fore
SplineSet
211 122 m 0,0,1
 211 88 211 88 244 88 c 1,2,-1
 270 90 l 1,3,-1
 279 82 l 1,4,-1
 267 -4 l 1,5,6
 157 0 157 0 131.5 0 c 128,-1,7
 106 0 106 0 77 -2 c 0,8,9
 7 -7 7 -7 7 -8 c 2,10,-1
 15 82 l 1,11,12
 43 85 43 85 56.5 100 c 128,-1,13
 70 115 70 115 72 148 c 1,14,15
 107 487 107 487 107 514 c 128,-1,16
 107 541 107 541 98.5 547 c 128,-1,17
 90 553 90 553 45 558 c 1,18,-1
 37 566 l 1,19,-1
 47 652 l 1,20,21
 152 647 152 647 194 647 c 1,22,-1
 348 651 l 1,23,24
 374 519 374 519 422 333 c 1,25,-1
 435 333 l 1,26,27
 484 502 484 502 519 647 c 1,28,29
 688 647 688 647 704 648 c 2,30,-1
 798 653 l 1,31,-1
 805 649 l 1,32,-1
 797 561 l 1,33,34
 756 560 756 560 743.5 550 c 128,-1,35
 731 540 731 540 731 510 c 0,36,37
 731 381 731 381 753 176 c 1,38,39
 757 127 757 127 767 108 c 128,-1,40
 777 89 777 89 799 89 c 1,41,-1
 829 91 l 1,42,-1
 836 83 l 1,43,-1
 827 -3 l 1,44,45
 712 1 712 1 622.5 -2 c 128,-1,46
 533 -5 533 -5 525 -8 c 1,47,-1
 537 83 l 1,48,49
 565 86 565 86 576.5 97 c 128,-1,50
 588 108 588 108 588 132 c 2,51,-1
 584 363 l 1,52,-1
 571 363 l 1,53,54
 515 195 515 195 462 -2 c 1,55,-1
 337 -12 l 1,56,57
 285 183 285 183 229 363 c 1,58,-1
 216 363 l 1,59,60
 211 144 211 144 211 122 c 0,0,1
EndSplineSet
EndChar

StartChar: N
Encoding: 78 78 49
Width: 739
GlyphClass: 2
Flags: W
LayerCount: 2
Fore
SplineSet
465 559 m 2,0,-1
 434 559 l 1,1,-1
 429 570 l 1,2,-1
 434 651 l 1,3,4
 544 647 544 647 641.5 647 c 128,-1,5
 739 647 739 647 739 650 c 2,6,-1
 734 560 l 1,7,8
 702 556 702 556 689.5 542 c 128,-1,9
 677 528 677 528 676 497 c 2,10,-1
 663 0 l 1,11,-1
 475 -12 l 1,12,13
 371 161 371 161 270 315 c 1,14,-1
 255 315 l 1,15,-1
 258 137 l 2,16,17
 259 108 259 108 267 97 c 128,-1,18
 275 86 275 86 297 86 c 1,19,-1
 331 90 l 1,20,-1
 340 81 l 1,21,-1
 329 -4 l 1,22,23
 218 0 218 0 181 0 c 0,24,25
 113 0 113 0 21 -8 c 1,26,-1
 31 82 l 1,27,28
 87 89 87 89 88 145 c 2,29,-1
 100 494 l 1,30,31
 100 528 100 528 86 540 c 128,-1,32
 72 552 72 552 25 557 c 1,33,-1
 13 571 l 1,34,-1
 19 652 l 1,35,36
 94 647 94 647 167 647 c 1,37,-1
 295 651 l 1,38,39
 375 507 375 507 487 333 c 1,40,-1
 502 333 l 1,41,-1
 498 516 l 2,42,43
 497 541 497 541 490 550 c 128,-1,44
 483 559 483 559 465 559 c 2,0,-1
EndSplineSet
EndChar

StartChar: O
Encoding: 79 79 50
Width: 655
GlyphClass: 2
Flags: W
LayerCount: 2
Fore
SplineSet
263.5 169 m 128,-1,1
 283 114 283 114 329 114 c 128,-1,2
 375 114 375 114 393 151.5 c 128,-1,3
 411 189 411 189 411 301.5 c 128,-1,4
 411 414 411 414 391 468 c 128,-1,5
 371 522 371 522 325 522 c 128,-1,6
 279 522 279 522 261.5 485.5 c 128,-1,7
 244 449 244 449 244 336.5 c 128,-1,0
 244 224 244 224 263.5 169 c 128,-1,1
555 79.5 m 128,-1,9
 470 -12 470 -12 319 -12 c 128,-1,10
 168 -12 168 -12 91.5 71.5 c 128,-1,11
 15 155 15 155 15 317.5 c 128,-1,12
 15 480 15 480 99 569.5 c 128,-1,13
 183 659 183 659 342 659 c 0,14,15
 640 659 640 659 640 340 c 0,16,8
 640 171 640 171 555 79.5 c 128,-1,9
EndSplineSet
EndChar

StartChar: P
Encoding: 80 80 51
Width: 606
GlyphClass: 2
Flags: W
LayerCount: 2
Fore
SplineSet
621 445 m 0,0,1
 621 350 621 350 546 279 c 128,-1,2
 471 208 471 208 371 208 c 2,3,-1
 285 208 l 1,4,-1
 285 160 l 2,5,6
 285 118 285 118 295 103 c 128,-1,7
 305 88 305 88 335 88 c 1,8,-1
 368 90 l 1,9,-1
 373 82 l 1,10,-1
 363 -4 l 1,11,12
 242 0 242 0 200 0 c 1,13,-1
 14 -9 l 1,14,-1
 23 83 l 1,15,16
 60 89 60 89 74 107.5 c 128,-1,17
 88 126 88 126 88 168 c 2,18,-1
 88 505 l 2,19,20
 88 536 88 536 82.5 547.5 c 128,-1,21
 77 559 77 559 62 559 c 2,22,-1
 27 557 l 1,23,-1
 17 569 l 1,24,-1
 27 647 l 1,25,-1
 170 647 l 1,26,-1
 350 653 l 1,27,28
 418 653 418 653 469.5 638.5 c 128,-1,29
 521 624 521 624 549 602.5 c 128,-1,30
 577 581 577 581 594 552 c 0,31,32
 621 505 621 505 621 445 c 0,0,1
415 435 m 0,33,34
 415 484 415 484 390 506 c 128,-1,35
 365 528 365 528 312 528 c 0,36,37
 302 528 302 528 299 524 c 0,38,39
 294 517 294 517 287 331 c 1,40,-1
 356 321 l 1,41,42
 415 342 415 342 415 435 c 0,33,34
EndSplineSet
EndChar

StartChar: Q
Encoding: 81 81 52
Width: 659
GlyphClass: 2
Flags: W
LayerCount: 2
Fore
SplineSet
91.5 71.5 m 128,-1,1
 15 155 15 155 15 317.5 c 128,-1,2
 15 480 15 480 99 569.5 c 128,-1,3
 183 659 183 659 342 659 c 0,4,5
 640 659 640 659 640 340 c 0,6,7
 640 236 640 236 599 156 c 128,-1,8
 558 76 558 76 485 32 c 1,9,-1
 485 18 l 1,10,11
 539 -23 539 -23 599.5 -47.5 c 128,-1,12
 660 -72 660 -72 709 -72 c 0,13,14
 748 -72 748 -72 800 -62 c 1,15,-1
 812 -73 l 1,16,-1
 829 -141 l 1,17,18
 690 -242 690 -242 653 -242 c 0,19,20
 591 -242 591 -242 529 -200 c 128,-1,21
 467 -158 467 -158 313 -12 c 1,22,0
 168 -12 168 -12 91.5 71.5 c 128,-1,1
263.5 169 m 128,-1,24
 283 114 283 114 329 114 c 128,-1,25
 375 114 375 114 393 151.5 c 128,-1,26
 411 189 411 189 411 301.5 c 128,-1,27
 411 414 411 414 391 468 c 128,-1,28
 371 522 371 522 325 522 c 128,-1,29
 279 522 279 522 261.5 485.5 c 128,-1,30
 244 449 244 449 244 336.5 c 128,-1,23
 244 224 244 224 263.5 169 c 128,-1,24
EndSplineSet
EndChar

StartChar: R
Encoding: 82 82 53
Width: 678
GlyphClass: 2
Flags: W
LayerCount: 2
Fore
SplineSet
285 228 m 1,0,-1
 285 160 l 2,1,2
 285 114 285 114 296.5 102 c 128,-1,3
 308 90 308 90 356 88 c 1,4,-1
 361 80 l 1,5,-1
 351 -4 l 1,6,7
 229 0 229 0 192 0 c 0,8,9
 111 0 111 0 14 -9 c 1,10,-1
 23 83 l 1,11,12
 60 89 60 89 74 107.5 c 128,-1,13
 88 126 88 126 88 168 c 2,14,-1
 88 515 l 2,15,16
 88 540 88 540 82.5 549.5 c 128,-1,17
 77 559 77 559 62 559 c 2,18,-1
 27 557 l 1,19,-1
 17 569 l 1,20,-1
 28 648 l 1,21,22
 129 647 129 647 170 647 c 1,23,-1
 355 653 l 1,24,25
 631 653 631 653 631 465 c 0,26,27
 631 347 631 347 511 276 c 1,28,-1
 573 172 l 2,29,30
 625 84 625 84 670 84 c 1,31,-1
 681 68 l 1,32,-1
 672 -5 l 1,33,-1
 517 -16 l 1,34,35
 475 -16 475 -16 448.5 5 c 128,-1,36
 422 26 422 26 403 75 c 2,37,-1
 341 228 l 1,38,-1
 285 228 l 1,0,-1
411.5 380.5 m 128,-1,40
 425 403 425 403 425 445.5 c 128,-1,41
 425 488 425 488 397.5 508 c 128,-1,42
 370 528 370 528 312 528 c 0,43,44
 302 528 302 528 299 524 c 0,45,46
 292 514 292 514 288 354 c 1,47,-1
 364 344 l 1,48,39
 398 358 398 358 411.5 380.5 c 128,-1,40
EndSplineSet
EndChar

StartChar: S
Encoding: 83 83 54
Width: 551
GlyphClass: 2
Flags: W
LayerCount: 2
Fore
SplineSet
222 -12 m 0,0,1
 170 -12 170 -12 121 -1.5 c 128,-1,2
 72 9 72 9 48 20 c 2,3,-1
 25 31 l 1,4,-1
 13 49 l 1,5,6
 31 158 31 158 34 224 c 1,7,-1
 160 233 l 1,8,9
 160 179 160 179 182.5 150 c 128,-1,10
 205 121 205 121 242 121 c 0,11,12
 314 121 314 121 314 162 c 0,13,14
 314 188 314 188 284 206 c 0,15,16
 259 221 259 221 221.5 237 c 128,-1,17
 184 253 184 253 171 259 c 0,18,19
 101 290 101 290 59.5 332.5 c 128,-1,20
 18 375 18 375 18 445 c 0,21,22
 18 542 18 542 102.5 600.5 c 128,-1,23
 187 659 187 659 326 659 c 0,24,25
 375 659 375 659 422.5 652 c 128,-1,26
 470 645 470 645 517 631 c 1,27,-1
 529 609 l 1,28,29
 510 522 510 522 502 432 c 1,30,-1
 386 424 l 1,31,-1
 374 432 l 1,32,-1
 374 448 l 2,33,34
 374 521 374 521 301 521 c 0,35,36
 273 521 273 521 255.5 508.5 c 128,-1,37
 238 496 238 496 238 476 c 0,38,39
 238 462 238 462 244.5 454 c 128,-1,40
 251 446 251 446 255.5 441 c 128,-1,41
 260 436 260 436 269 431 c 128,-1,42
 278 426 278 426 284 422.5 c 128,-1,43
 290 419 290 419 302 413.5 c 128,-1,44
 314 408 314 408 321 405 c 128,-1,45
 328 402 328 402 342.5 396 c 128,-1,46
 357 390 357 390 379 380.5 c 128,-1,47
 401 371 401 371 426 357.5 c 128,-1,48
 451 344 451 344 479 322 c 0,49,50
 535 276 535 276 535 197 c 0,51,52
 535 100 535 100 451.5 44 c 128,-1,53
 368 -12 368 -12 222 -12 c 0,0,1
EndSplineSet
EndChar

StartChar: T
Encoding: 84 84 55
Width: 593
GlyphClass: 2
Flags: W
LayerCount: 2
Fore
SplineSet
197 168 m 2,0,-1
 197 526 l 1,1,2
 157 526 157 526 144 500.5 c 128,-1,3
 131 475 131 475 124 390 c 1,4,-1
 0 382 l 1,5,6
 7 530 7 530 8 644 c 1,7,-1
 21 658 l 1,8,-1
 140 647 l 1,9,-1
 454 647 l 1,10,-1
 575 658 l 1,11,-1
 588 644 l 1,12,-1
 593 390 l 1,13,-1
 469 382 l 1,14,15
 461 478 461 478 450 502 c 128,-1,16
 439 526 439 526 400 526 c 1,17,18
 395 361 395 361 395 160 c 0,19,20
 395 122 395 122 406.5 106.5 c 128,-1,21
 418 91 418 91 447 91 c 1,22,-1
 498 94 l 1,23,-1
 503 88 l 1,24,-1
 494 -6 l 1,25,26
 348 0 348 0 291 0 c 1,27,-1
 90 -9 l 1,28,-1
 98 83 l 1,29,30
 159 88 159 88 178 104.5 c 128,-1,31
 197 121 197 121 197 168 c 2,0,-1
EndSplineSet
EndChar

StartChar: U
Encoding: 85 85 56
Width: 627
GlyphClass: 2
Flags: W
LayerCount: 2
Fore
SplineSet
277 143 m 128,-1,1
 297 115 297 115 334.5 115 c 128,-1,2
 372 115 372 115 389 136 c 128,-1,3
 406 157 406 157 406 203 c 2,4,-1
 405 505 l 2,5,6
 405 536 405 536 399.5 547.5 c 128,-1,7
 394 559 394 559 379 559 c 1,8,-1
 356 557 l 1,9,-1
 353 561 l 1,10,-1
 364 650 l 1,11,12
 447 647 447 647 484 647 c 2,13,-1
 628 650 l 1,14,-1
 620 560 l 1,15,16
 589 550 589 550 580.5 542 c 128,-1,17
 572 534 572 534 572 516 c 2,18,-1
 572 234 l 2,19,20
 572 112 572 112 504.5 50 c 128,-1,21
 437 -12 437 -12 307 -12 c 128,-1,22
 177 -12 177 -12 118 38.5 c 128,-1,23
 59 89 59 89 59 199 c 2,24,-1
 59 505 l 2,25,26
 59 538 59 538 53.5 548.5 c 128,-1,27
 48 559 48 559 31 559 c 1,28,-1
 2 557 l 1,29,-1
 0 561 l 1,30,-1
 10 650 l 1,31,32
 108 647 108 647 187 647 c 1,33,-1
 321 651 l 1,34,-1
 311 558 l 1,35,36
 285 556 285 556 274.5 544.5 c 128,-1,37
 264 533 264 533 263 509 c 2,38,-1
 257 220 l 1,39,0
 257 171 257 171 277 143 c 128,-1,1
EndSplineSet
EndChar

StartChar: V
Encoding: 86 86 57
Width: 641
GlyphClass: 2
Flags: W
LayerCount: 2
Fore
SplineSet
277.5 548.5 m 128,-1,1
 269 544 269 544 269 526 c 0,2,3
 269 490 269 490 323 168 c 1,4,-1
 345 168 l 1,5,6
 427 504 427 504 427 537 c 0,7,8
 427 550 427 550 421.5 553.5 c 128,-1,9
 416 557 416 557 396 557 c 2,10,-1
 370 557 l 1,11,-1
 362 567 l 1,12,-1
 370 650 l 1,13,14
 463 647 463 647 524 647 c 2,15,-1
 647 648 l 1,16,-1
 640 561 l 1,17,18
 624 556 624 556 616 545.5 c 128,-1,19
 608 535 608 535 599 506 c 2,20,-1
 450 4 l 1,21,-1
 175 -13 l 1,22,23
 85 385 85 385 57 493 c 0,24,25
 48 527 48 527 35.5 542 c 128,-1,26
 23 557 23 557 2 560 c 1,27,-1
 -5 570 l 1,28,-1
 3 649 l 1,29,30
 87 647 87 647 140 647 c 1,31,-1
 331 652 l 1,32,-1
 339 643 l 1,33,-1
 333 559 l 1,34,0
 286 553 286 553 277.5 548.5 c 128,-1,1
EndSplineSet
EndChar

StartChar: W
Encoding: 87 87 58
Width: 998
GlyphClass: 2
Flags: W
LayerCount: 2
Fore
SplineSet
331 168 m 1,0,1
 410 487 410 487 410 529 c 0,2,3
 410 548 410 548 399.5 554 c 128,-1,4
 389 560 389 560 354 560 c 1,5,-1
 347 570 l 1,6,-1
 356 649 l 1,7,8
 459 647 459 647 518 647 c 1,9,-1
 701 652 l 1,10,-1
 709 643 l 1,11,-1
 702 559 l 1,12,13
 657 553 657 553 649 548.5 c 128,-1,14
 641 544 641 544 641 526 c 0,15,16
 641 484 641 484 692 168 c 1,17,-1
 713 168 l 1,18,19
 792 504 792 504 792 537 c 0,20,21
 792 550 792 550 786.5 553.5 c 128,-1,22
 781 557 781 557 762 557 c 2,23,-1
 737 557 l 1,24,-1
 730 567 l 1,25,-1
 738 650 l 1,26,27
 828 647 828 647 886 647 c 2,28,-1
 1004 648 l 1,29,-1
 997 561 l 1,30,31
 981 556 981 556 973.5 545.5 c 128,-1,32
 966 535 966 535 957 506 c 2,33,-1
 819 4 l 1,34,-1
 554 -13 l 1,35,-1
 510 272 l 1,36,-1
 496 272 l 1,37,-1
 433 4 l 1,38,-1
 168 -13 l 1,39,40
 81 385 81 385 55 493 c 1,41,42
 39 555 39 555 2 560 c 1,43,-1
 -5 570 l 1,44,-1
 4 649 l 1,45,46
 84 647 84 647 135 647 c 1,47,-1
 319 652 l 1,48,-1
 326 643 l 1,49,-1
 320 559 l 1,50,51
 275 553 275 553 266.5 548.5 c 128,-1,52
 258 544 258 544 258 526 c 0,53,54
 258 490 258 490 310 168 c 1,55,-1
 331 168 l 1,0,1
EndSplineSet
EndChar

StartChar: X
Encoding: 88 88 59
Width: 711
GlyphClass: 2
Flags: W
LayerCount: 2
Fore
SplineSet
396 424 m 1,0,1
 457 526 457 526 457 539 c 128,-1,2
 457 552 457 552 449 556.5 c 128,-1,3
 441 561 441 561 419 561 c 1,4,-1
 417 567 l 1,5,-1
 423 647 l 1,6,-1
 578 647 l 1,7,-1
 707 650 l 1,8,-1
 711 642 l 1,9,-1
 706 555 l 1,10,11
 658 532 658 532 630.5 509 c 128,-1,12
 603 486 603 486 578 446 c 2,13,-1
 484 301 l 1,14,-1
 571 179 l 2,15,16
 631 94 631 94 696 93 c 1,17,-1
 700 89 l 1,18,-1
 691 -1 l 1,19,20
 594 2 594 2 556 2 c 1,21,-1
 349 -5 l 1,22,-1
 342 2 l 1,23,-1
 349 86 l 1,24,25
 378 88 378 88 378 106 c 0,26,27
 378 118 378 118 367 133 c 2,28,-1
 306 221 l 1,29,-1
 268 158 l 2,30,31
 251 131 251 131 251 118 c 0,32,33
 251 88 251 88 290 88 c 1,34,-1
 296 77 l 1,35,-1
 291 -4 l 1,36,37
 172 2 172 2 140 2 c 1,38,-1
 6 -4 l 1,39,-1
 1 10 l 1,40,-1
 7 90 l 1,41,42
 29 100 29 100 67 139.5 c 128,-1,43
 105 179 105 179 133 219 c 2,44,-1
 221 346 l 1,45,-1
 139 467 l 2,46,47
 109 511 109 511 85.5 526 c 128,-1,48
 62 541 62 541 20 551 c 1,49,-1
 15 557 l 1,50,-1
 24 648 l 1,51,52
 94 647 94 647 200 647 c 1,53,-1
 373 653 l 1,54,-1
 379 642 l 1,55,-1
 372 560 l 1,56,57
 333 560 333 560 333 536 c 0,58,59
 333 518 333 518 342.5 503 c 128,-1,60
 352 488 352 488 355 484 c 0,61,62
 370 461 370 461 373.5 456 c 128,-1,63
 377 451 377 451 384.5 440 c 128,-1,64
 392 429 392 429 396 424 c 1,0,1
EndSplineSet
EndChar

StartChar: Y
Encoding: 89 89 60
Width: 663
GlyphClass: 2
Flags: W
LayerCount: 2
Fore
SplineSet
297 535 m 0,0,1
 297 527 297 527 353 387 c 1,2,-1
 367 387 l 1,3,-1
 408 501 l 1,4,5
 421 530 421 530 421 545.5 c 128,-1,6
 421 561 421 561 383 561 c 1,7,-1
 380 567 l 1,8,-1
 388 646 l 1,9,-1
 546 646 l 1,10,-1
 659 650 l 1,11,-1
 663 642 l 1,12,-1
 655 555 l 1,13,14
 588 517 588 517 544 429 c 2,15,-1
 453 247 l 1,16,17
 438 212 438 212 438 165.5 c 128,-1,18
 438 119 438 119 449 105 c 128,-1,19
 460 91 460 91 488 91 c 1,20,-1
 539 94 l 1,21,-1
 544 88 l 1,22,-1
 535 -6 l 1,23,24
 386 0 386 0 328 0 c 1,25,-1
 127 -9 l 1,26,-1
 135 83 l 1,27,28
 199 87 199 87 218.5 102.5 c 128,-1,29
 238 118 238 118 238 162 c 2,30,-1
 238 178 l 2,31,32
 238 216 238 216 210 268 c 2,33,-1
 103 467 l 2,34,35
 73 522 73 522 4 551 c 1,36,-1
 0 557 l 1,37,-1
 10 648 l 1,38,39
 127 646 127 646 160 646 c 1,40,-1
 340 653 l 1,41,-1
 347 642 l 1,42,-1
 338 560 l 1,43,44
 297 560 297 560 297 535 c 0,0,1
EndSplineSet
EndChar

StartChar: Z
Encoding: 90 90 61
Width: 594
GlyphClass: 2
Flags: W
LayerCount: 2
Fore
SplineSet
571 19 m 1,0,-1
 550 -3 l 1,1,-1
 121 3 l 1,2,-1
 39 -7 l 1,3,-1
 3 51 l 1,4,-1
 329 542 l 1,5,-1
 252 532 l 1,6,7
 194 521 194 521 178 501.5 c 128,-1,8
 162 482 162 482 160 418 c 1,9,-1
 34 409 l 1,10,11
 46 556 46 556 49 649 c 1,12,-1
 60 660 l 1,13,-1
 241 649 l 1,14,-1
 572 649 l 1,15,-1
 597 595 l 1,16,17
 461 413 461 413 264 109 c 1,18,-1
 369 124 l 1,19,20
 417 133 417 133 439 164.5 c 128,-1,21
 461 196 461 196 468 266 c 1,22,-1
 594 275 l 1,23,24
 573 119 573 119 571 19 c 1,0,-1
EndSplineSet
EndChar

StartChar: bracketleft
Encoding: 91 91 62
Width: 326
GlyphClass: 2
Flags: W
LayerCount: 2
Fore
SplineSet
315 -127 m 1,0,-1
 65 -116 l 1,1,2
 76 160 76 160 76 260 c 1,3,-1
 65 639 l 1,4,-1
 319 650 l 1,5,-1
 323 640 l 1,6,-1
 315 556 l 1,7,-1
 223 539 l 1,8,-1
 223 -16 l 1,9,-1
 319 -33 l 1,10,-1
 323 -44 l 1,11,-1
 315 -127 l 1,0,-1
EndSplineSet
EndChar

StartChar: backslash
Encoding: 92 92 63
Width: 329
GlyphClass: 2
Flags: W
LayerCount: 2
Fore
SplineSet
-15 655 m 1,0,-1
 2 675 l 1,1,-1
 121 675 l 1,2,-1
 236 226 l 1,3,-1
 325 -95 l 1,4,-1
 314 -110 l 1,5,-1
 188 -110 l 1,6,7
 147 50 147 50 105 215 c 1,8,-1
 -15 655 l 1,0,-1
EndSplineSet
EndChar

StartChar: bracketright
Encoding: 93 93 64
Width: 326
GlyphClass: 2
Flags: W
LayerCount: 2
Fore
SplineSet
11 650 m 1,0,-1
 261 639 l 1,1,2
 250 363 250 363 250 263 c 1,3,-1
 261 -116 l 1,4,-1
 7 -127 l 1,5,-1
 3 -117 l 1,6,-1
 11 -33 l 1,7,-1
 103 -16 l 1,8,-1
 103 539 l 1,9,-1
 7 556 l 1,10,-1
 3 567 l 1,11,-1
 11 650 l 1,0,-1
EndSplineSet
EndChar

StartChar: asciicircum
Encoding: 94 94 65
Width: 470
GlyphClass: 2
Flags: W
LayerCount: 2
Fore
SplineSet
303 484 m 1,0,-1
 318 476 l 1,1,2
 369 359 369 359 399 290 c 1,3,-1
 465 152 l 1,4,-1
 373 96 l 1,5,-1
 352 105 l 1,6,7
 317 179 317 179 285 250 c 1,8,-1
 236 352 l 1,9,-1
 228 352 l 1,10,-1
 189 262 l 1,11,-1
 121 96 l 1,12,-1
 16 130 l 1,13,-1
 5 148 l 1,14,15
 42 222 42 222 75 299 c 2,16,-1
 152 477 l 1,17,-1
 303 484 l 1,0,-1
EndSplineSet
EndChar

StartChar: underscore
Encoding: 95 95 66
Width: 448
GlyphClass: 2
Flags: W
LayerCount: 2
Fore
SplineSet
447 -218 m 1,0,-1
 -1 -219 l 1,1,-1
 -12 -200 l 1,2,-1
 -1 -95 l 1,3,-1
 364 -95 l 1,4,-1
 451 -93 l 1,5,-1
 461 -112 l 1,6,-1
 447 -218 l 1,0,-1
EndSplineSet
EndChar

StartChar: grave
Encoding: 96 96 67
Width: 398
GlyphClass: 2
Flags: W
LayerCount: 2
Fore
SplineSet
60 642 m 1,0,-1
 58 659 l 1,1,-1
 130 760 l 1,2,-1
 147 760 l 1,3,4
 240 674 240 674 334 593 c 1,5,-1
 293 532 l 1,6,-1
 271 525 l 1,7,8
 157 592 157 592 60 642 c 1,0,-1
EndSplineSet
EndChar

StartChar: a
Encoding: 97 97 68
Width: 586
GlyphClass: 2
Flags: W
LayerCount: 2
Fore
SplineSet
340 101 m 1,0,-1
 337 131 l 1,1,2
 314 132 314 132 276 132 c 1,3,-1
 213 129 l 1,4,5
 206 99 206 99 206 89.5 c 128,-1,6
 206 80 206 80 209 78 c 128,-1,7
 212 76 212 76 228 76 c 2,8,-1
 246 76 l 1,9,-1
 254 67 l 1,10,-1
 247 -3 l 1,11,12
 167 -1 167 -1 117 -1 c 2,13,-1
 4 -1 l 1,14,-1
 10 72 l 1,15,16
 38 80 38 80 49 111 c 2,17,-1
 177 500 l 1,18,-1
 418 513 l 1,19,-1
 431 502 l 1,20,21
 512 192 512 192 528 134 c 128,-1,22
 544 76 544 76 576 73 c 1,23,-1
 582 64 l 1,24,-1
 575 -2 l 1,25,26
 502 -1 502 -1 455 -1 c 2,27,-1
 291 -4 l 1,28,-1
 284 3 l 1,29,-1
 289 75 l 1,30,31
 334 80 334 80 338 86 c 0,32,33
 340 90 340 90 340 101 c 1,0,-1
279 238 m 2,34,35
 303 238 303 238 318 239 c 1,36,-1
 294 363 l 1,37,-1
 275 363 l 1,38,-1
 241 238 l 1,39,-1
 279 238 l 2,34,35
EndSplineSet
EndChar

StartChar: b
Encoding: 98 98 69
Width: 572
GlyphClass: 2
Flags: W
LayerCount: 2
Fore
SplineSet
533 386 m 0,0,1
 533 352 533 352 514 324 c 1,2,3
 488 283 488 283 455 268 c 1,4,5
 475 263 475 263 502 247 c 0,6,7
 555 214 555 214 555 156 c 0,8,9
 555 72 555 72 494.5 31.5 c 128,-1,10
 434 -9 434 -9 310 -9 c 1,11,12
 256 0 256 0 170 0 c 1,13,-1
 13 -5 l 1,14,-1
 21 71 l 1,15,16
 53 76 53 76 64 87.5 c 128,-1,17
 75 99 75 99 75 126 c 2,18,-1
 76 395 l 2,19,20
 76 429 76 429 55 429 c 2,21,-1
 26 428 l 1,22,-1
 15 438 l 1,23,-1
 26 506 l 1,24,25
 147 504 147 504 172 504 c 2,26,-1
 340 510 l 1,27,28
 533 510 533 510 533 386 c 0,0,1
306 99 m 128,-1,30
 362 99 362 99 362 148 c 0,31,32
 362 182 362 182 317 196 c 1,33,-1
 254 197 l 1,34,-1
 250 131 l 1,35,29
 250 99 250 99 306 99 c 128,-1,30
348 356 m 0,36,37
 348 400 348 400 276 400 c 0,38,39
 262 400 262 400 261 391 c 2,40,-1
 256 308 l 1,41,42
 299 299 299 299 319 299 c 1,43,44
 348 320 348 320 348 356 c 0,36,37
EndSplineSet
EndChar

StartChar: c
Encoding: 99 99 70
Width: 512
GlyphClass: 2
Flags: W
LayerCount: 2
Fore
SplineSet
481 207 m 1,0,1
 473 119 473 119 473 34 c 1,2,-1
 461 21 l 1,3,4
 369 -8 369 -8 257 -8 c 128,-1,5
 145 -8 145 -8 81 58 c 128,-1,6
 17 124 17 124 17 250 c 128,-1,7
 17 376 17 376 91 444.5 c 128,-1,8
 165 513 165 513 308 513 c 0,9,10
 371 513 371 513 487 493 c 1,11,-1
 494 475 l 1,12,13
 476 402 476 402 470 303 c 1,14,-1
 331 295 l 1,15,16
 332 315 332 315 332 343 c 128,-1,17
 332 371 332 371 321.5 383 c 128,-1,18
 311 395 311 395 278 395 c 128,-1,19
 245 395 245 395 233 371 c 128,-1,20
 221 347 221 347 221 267 c 128,-1,21
 221 187 221 187 236 150.5 c 128,-1,22
 251 114 251 114 283.5 114 c 128,-1,23
 316 114 316 114 328 132.5 c 128,-1,24
 340 151 340 151 343 198 c 1,25,-1
 481 207 l 1,0,1
EndSplineSet
EndChar

StartChar: d
Encoding: 100 100 71
Width: 578
GlyphClass: 2
Flags: W
LayerCount: 2
Fore
SplineSet
76 137 m 2,0,-1
 76 386 l 2,1,2
 76 410 76 410 71.5 419 c 128,-1,3
 67 428 67 428 56 428 c 2,4,-1
 30 426 l 1,5,-1
 21 438 l 1,6,-1
 29 506 l 1,7,8
 126 504 126 504 160 504 c 1,9,-1
 299 509 l 1,10,11
 561 509 561 509 561 275 c 0,12,13
 561 142 561 142 484 66.5 c 128,-1,14
 407 -9 407 -9 272 -9 c 1,15,16
 192 0 192 0 138 0 c 1,17,-1
 17 -6 l 1,18,-1
 23 73 l 1,19,20
 54 77 54 77 65 91 c 128,-1,21
 76 105 76 105 76 137 c 2,0,-1
273 399 m 0,22,23
 258 399 258 399 257 378 c 0,24,25
 249 284 249 284 249 130 c 0,26,27
 249 111 249 111 253.5 104.5 c 128,-1,28
 258 98 258 98 269 98 c 0,29,30
 318 98 318 98 337 129.5 c 128,-1,31
 356 161 356 161 356 249 c 128,-1,32
 356 337 356 337 340 368 c 128,-1,33
 324 399 324 399 273 399 c 0,22,23
EndSplineSet
EndChar

StartChar: e
Encoding: 101 101 72
Width: 516
GlyphClass: 2
Flags: W
LayerCount: 2
Fore
SplineSet
251 146 m 2,0,1
 251 116 251 116 257 107.5 c 128,-1,2
 263 99 263 99 298.5 99 c 128,-1,3
 334 99 334 99 351 114 c 128,-1,4
 368 129 368 129 375 179 c 1,5,-1
 490 187 l 1,6,-1
 501 174 l 1,7,8
 486 96 486 96 478 8 c 1,9,-1
 464 -5 l 1,10,11
 331 0 331 0 244 0 c 0,12,13
 117 0 117 0 13 -8 c 1,14,-1
 21 70 l 1,15,16
 51 74 51 74 62 89 c 128,-1,17
 73 104 73 104 73 139 c 2,18,-1
 74 387 l 2,19,20
 74 412 74 412 70 420.5 c 128,-1,21
 66 429 66 429 53 429 c 2,22,-1
 32 428 l 1,23,-1
 21 440 l 1,24,-1
 29 506 l 1,25,26
 153 504 153 504 280 504 c 128,-1,27
 407 504 407 504 490 513 c 1,28,-1
 502 500 l 1,29,30
 487 414 487 414 483 340 c 1,31,-1
 358 333 l 1,32,33
 360 351 360 351 360 368 c 128,-1,34
 360 385 360 385 345 393 c 128,-1,35
 330 401 330 401 300 401 c 128,-1,36
 270 401 270 401 265 397 c 128,-1,37
 260 393 260 393 260 382 c 2,38,-1
 256 305 l 1,39,-1
 321 305 l 1,40,-1
 411 309 l 1,41,-1
 422 296 l 1,42,-1
 410 199 l 1,43,44
 350 201 350 201 330.5 201 c 128,-1,45
 311 201 311 201 251 197 c 1,46,-1
 251 146 l 2,0,1
EndSplineSet
EndChar

StartChar: f
Encoding: 102 102 73
Width: 478
GlyphClass: 2
Flags: W
LayerCount: 2
Fore
SplineSet
257.5 108 m 128,-1,1
 264 99 264 99 287.5 99 c 128,-1,2
 311 99 311 99 332 106 c 1,3,-1
 347 90 l 1,4,-1
 335 -2 l 1,5,6
 237 0 237 0 198 0 c 0,7,8
 134 0 134 0 13 -7 c 1,9,-1
 21 71 l 1,10,11
 51 75 51 75 62 89.5 c 128,-1,12
 73 104 73 104 73 139 c 2,13,-1
 74 387 l 2,14,15
 74 412 74 412 70 420.5 c 128,-1,16
 66 429 66 429 53 429 c 2,17,-1
 32 428 l 1,18,-1
 21 440 l 1,19,-1
 29 506 l 1,20,21
 153 504 153 504 272.5 504 c 128,-1,22
 392 504 392 504 466 513 c 1,23,-1
 477 500 l 1,24,25
 466 412 466 412 463 341 c 1,26,-1
 339 334 l 1,27,28
 340 351 340 351 340 367.5 c 128,-1,29
 340 384 340 384 328 392.5 c 128,-1,30
 316 401 316 401 293 401 c 128,-1,31
 270 401 270 401 265 397 c 128,-1,32
 260 393 260 393 260 382 c 2,33,-1
 255 292 l 1,34,-1
 321 291 l 1,35,-1
 408 295 l 1,36,-1
 419 283 l 1,37,-1
 408 186 l 1,38,39
 349 188 349 188 328 188 c 128,-1,40
 307 188 307 188 251 184 c 1,41,-1
 251 145 l 2,42,0
 251 117 251 117 257.5 108 c 128,-1,1
EndSplineSet
EndChar

StartChar: g
Encoding: 103 103 74
Width: 542
GlyphClass: 2
Flags: W
LayerCount: 2
Fore
SplineSet
294 114 m 0,0,1
 316 114 316 114 328 120 c 1,2,-1
 328 160 l 2,3,4
 328 177 328 177 323 183.5 c 128,-1,5
 318 190 318 190 304 190 c 2,6,-1
 280 189 l 1,7,-1
 272 202 l 1,8,-1
 283 282 l 1,9,-1
 412 282 l 2,10,11
 515 282 515 282 515 286 c 2,12,-1
 524 236 l 1,13,14
 493 220 493 220 485.5 197.5 c 128,-1,15
 478 175 478 175 478 114.5 c 128,-1,16
 478 54 478 54 484 29 c 1,17,-1
 473 15 l 1,18,19
 410 -8 410 -8 280 -8 c 128,-1,20
 150 -8 150 -8 83.5 58 c 128,-1,21
 17 124 17 124 17 244 c 0,22,23
 17 513 17 513 317 513 c 0,24,25
 389 513 389 513 487 493 c 1,26,-1
 497 475 l 1,27,28
 478 414 478 414 473 320 c 1,29,-1
 334 312 l 1,30,31
 335 323 335 323 335 349.5 c 128,-1,32
 335 376 335 376 327.5 385.5 c 128,-1,33
 320 395 320 395 296 395 c 0,34,35
 251 395 251 395 236 370.5 c 128,-1,36
 221 346 221 346 221 266 c 128,-1,37
 221 186 221 186 237.5 150 c 128,-1,38
 254 114 254 114 294 114 c 0,0,1
EndSplineSet
EndChar

StartChar: h
Encoding: 104 104 75
Width: 625
GlyphClass: 2
Flags: W
LayerCount: 2
Fore
SplineSet
555 127 m 0,0,1
 555 99 555 99 562.5 87.5 c 128,-1,2
 570 76 570 76 587 76 c 1,3,-1
 608 78 l 1,4,-1
 616 68 l 1,5,-1
 608 -1 l 1,6,7
 534 0 534 0 461 0 c 2,8,-1
 318 -1 l 1,9,-1
 324 73 l 1,10,11
 353 74 353 74 365.5 87 c 128,-1,12
 378 100 378 100 378 128 c 2,13,-1
 378 200 l 1,14,15
 357 201 357 201 339 201 c 1,16,-1
 251 194 l 1,17,-1
 251 127 l 2,18,19
 251 95 251 95 256 84.5 c 128,-1,20
 261 74 261 74 277 74 c 1,21,-1
 297 76 l 1,22,-1
 304 67 l 1,23,-1
 297 -3 l 1,24,25
 189 0 189 0 160.5 0 c 128,-1,26
 132 0 132 0 96 -1 c 128,-1,27
 60 -2 60 -2 15 -3 c 1,28,-1
 22 69 l 1,29,30
 54 75 54 75 64 87 c 128,-1,31
 74 99 74 99 74 132 c 2,32,-1
 74 390 l 2,33,34
 74 414 74 414 68 421.5 c 128,-1,35
 62 429 62 429 45 429 c 2,36,-1
 24 429 l 1,37,-1
 16 441 l 1,38,-1
 23 504 l 1,39,-1
 132 504 l 1,40,-1
 307 507 l 1,41,-1
 301 431 l 1,42,43
 276 427 276 427 268 420 c 128,-1,44
 260 413 260 413 259 396 c 2,45,-1
 254 308 l 1,46,-1
 315 305 l 1,47,48
 354 305 354 305 378 307 c 1,49,-1
 378 390 l 2,50,51
 378 413 378 413 372 421 c 128,-1,52
 366 429 366 429 349 429 c 2,53,-1
 327 429 l 1,54,-1
 319 441 l 1,55,-1
 326 504 l 1,56,-1
 466 504 l 1,57,-1
 618 507 l 1,58,-1
 612 433 l 1,59,60
 582 428 582 428 573 420.5 c 128,-1,61
 564 413 564 413 563 391 c 1,62,63
 555 306 555 306 555 127 c 0,0,1
EndSplineSet
EndChar

StartChar: i
Encoding: 105 105 76
Width: 322
GlyphClass: 2
Flags: W
LayerCount: 2
Fore
SplineSet
251 127 m 0,0,1
 251 95 251 95 256 84.5 c 128,-1,2
 261 74 261 74 277 74 c 1,3,-1
 301 76 l 1,4,-1
 308 67 l 1,5,-1
 301 -3 l 1,6,7
 193 0 193 0 158 0 c 2,8,-1
 15 -3 l 1,9,-1
 22 69 l 1,10,11
 55 76 55 76 64.5 87.5 c 128,-1,12
 74 99 74 99 74 132 c 2,13,-1
 74 390 l 2,14,15
 74 414 74 414 68 421.5 c 128,-1,16
 62 429 62 429 45 429 c 2,17,-1
 25 429 l 1,18,-1
 17 441 l 1,19,-1
 24 504 l 1,20,-1
 162 504 l 1,21,-1
 311 507 l 1,22,-1
 305 431 l 1,23,24
 277 427 277 427 269 420 c 128,-1,25
 261 413 261 413 259 391 c 0,26,27
 251 287 251 287 251 127 c 0,0,1
EndSplineSet
EndChar

StartChar: j
Encoding: 106 106 77
Width: 297
GlyphClass: 2
Flags: W
LayerCount: 2
Fore
SplineSet
68 105 m 2,0,-1
 68 390 l 2,1,2
 68 414 68 414 63 422 c 128,-1,3
 58 430 58 430 42 430 c 1,4,-1
 13 428 l 1,5,-1
 5 441 l 1,6,-1
 12 504 l 1,7,-1
 132 505 l 1,8,-1
 298 510 l 1,9,-1
 291 431 l 1,10,11
 267 426 267 426 261 419 c 128,-1,12
 255 412 255 412 253 391 c 0,13,14
 243 249 243 249 243 62 c 0,15,16
 243 -12 243 -12 193.5 -58.5 c 128,-1,17
 144 -105 144 -105 35 -130 c 1,18,-1
 0 -91 l 1,19,-1
 1 -78 l 1,20,21
 42 -40 42 -40 55 -5.5 c 128,-1,22
 68 29 68 29 68 105 c 2,0,-1
EndSplineSet
EndChar

StartChar: k
Encoding: 107 107 78
Width: 596
GlyphClass: 2
Flags: W
LayerCount: 2
Fore
SplineSet
74 132 m 2,0,-1
 74 390 l 2,1,2
 74 414 74 414 68 421.5 c 128,-1,3
 62 429 62 429 45 429 c 2,4,-1
 24 429 l 1,5,-1
 16 441 l 1,6,-1
 24 505 l 1,7,8
 149 504 149 504 162 504 c 2,9,-1
 312 507 l 1,10,-1
 306 431 l 1,11,12
 275 423 275 423 266.5 415.5 c 128,-1,13
 258 408 258 408 257 388 c 2,14,-1
 251 127 l 2,15,16
 251 95 251 95 256 84.5 c 128,-1,17
 261 74 261 74 277 74 c 1,18,-1
 302 76 l 1,19,-1
 309 67 l 1,20,-1
 302 -3 l 1,21,22
 193 0 193 0 158 0 c 2,23,-1
 15 -4 l 1,24,-1
 21 67 l 1,25,26
 54 75 54 75 64 87 c 128,-1,27
 74 99 74 99 74 132 c 2,0,-1
347 368 m 1,28,29
 363 382 363 382 363 399.5 c 128,-1,30
 363 417 363 417 356.5 422 c 128,-1,31
 350 427 350 427 332 428 c 1,32,-1
 326 437 l 1,33,-1
 334 506 l 1,34,35
 417 504 417 504 456 504 c 1,36,-1
 581 508 l 1,37,-1
 590 495 l 1,38,-1
 582 432 l 1,39,40
 520 396 520 396 456 309 c 1,41,-1
 435 279 l 1,42,-1
 504 143 l 2,43,44
 536 80 536 80 582 72 c 1,45,-1
 591 59 l 1,46,-1
 582 -4 l 1,47,48
 469 -13 469 -13 441 -13 c 128,-1,49
 413 -13 413 -13 394 0 c 128,-1,50
 375 13 375 13 356 50 c 2,51,-1
 257 247 l 1,52,-1
 261 272 l 1,53,-1
 347 368 l 1,28,29
EndSplineSet
EndChar

StartChar: l
Encoding: 108 108 79
Width: 482
GlyphClass: 2
Flags: W
LayerCount: 2
Fore
SplineSet
442 -5 m 1,0,1
 319 0 319 0 238 0 c 0,2,3
 116 0 116 0 12 -8 c 1,4,-1
 20 70 l 1,5,6
 51 74 51 74 62 89 c 128,-1,7
 73 104 73 104 73 139 c 2,8,-1
 73 390 l 2,9,10
 73 414 73 414 67 421.5 c 128,-1,11
 61 429 61 429 44 429 c 2,12,-1
 24 429 l 1,13,-1
 15 441 l 1,14,-1
 22 504 l 1,15,-1
 161 504 l 1,16,-1
 344 507 l 1,17,-1
 334 424 l 1,18,19
 290 420 290 420 275 413 c 128,-1,20
 260 406 260 406 259 389 c 0,21,22
 250 272 250 272 250 128 c 0,23,24
 250 99 250 99 276 99 c 0,25,26
 317 99 317 99 331 124.5 c 128,-1,27
 345 150 345 150 349 229 c 1,28,-1
 464 240 l 1,29,-1
 475 227 l 1,30,31
 463 122 463 122 456 9 c 1,32,-1
 442 -5 l 1,0,1
EndSplineSet
EndChar

StartChar: m
Encoding: 109 109 80
Width: 705
GlyphClass: 2
Flags: W
LayerCount: 2
Fore
SplineSet
62 119 m 1,0,-1
 90 394 l 1,1,2
 90 416 90 416 84 419.5 c 128,-1,3
 78 423 78 423 41 427 c 1,4,-1
 34 434 l 1,5,-1
 43 508 l 1,6,7
 133 504 133 504 169 504 c 2,8,-1
 306 507 l 1,9,10
 325 409 325 409 357 285 c 1,11,-1
 369 285 l 1,12,13
 406 411 406 411 429 504 c 1,14,15
 581 504 581 504 595 505 c 2,16,-1
 672 509 l 1,17,-1
 678 506 l 1,18,-1
 671 430 l 1,19,20
 637 429 637 429 627.5 422 c 128,-1,21
 618 415 618 415 618 391 c 0,22,23
 618 290 618 290 636 142 c 1,24,25
 638 105 638 105 646.5 90.5 c 128,-1,26
 655 76 655 76 674 76 c 2,27,-1
 699 77 l 1,28,-1
 705 70 l 1,29,-1
 698 -2 l 1,30,31
 469 2 469 2 436 -6 c 1,32,-1
 446 71 l 1,33,34
 469 73 469 73 478.5 81.5 c 128,-1,35
 488 90 488 90 488 109 c 2,36,-1
 488 260 l 1,37,-1
 476 260 l 1,38,39
 426 114 426 114 395 0 c 1,40,-1
 280 -8 l 1,41,42
 221 211 221 211 200 263 c 1,43,-1
 199 263 l 1,44,45
 199 262 199 262 200 260 c 1,46,-1
 188 260 l 1,47,48
 187 118 187 118 187 101 c 0,49,50
 187 75 187 75 215 75 c 1,51,-1
 235 76 l 1,52,-1
 243 70 l 1,53,-1
 233 -3 l 1,54,55
 136 0 136 0 115 0 c 128,-1,56
 94 0 94 0 69.5 -1.5 c 128,-1,57
 45 -3 45 -3 27 -4 c 128,-1,58
 9 -5 9 -5 9 -6 c 2,59,-1
 15 70 l 1,60,61
 39 72 39 72 50 83.5 c 128,-1,62
 61 95 61 95 62 119 c 1,0,-1
EndSplineSet
EndChar

StartChar: n
Encoding: 110 110 81
Width: 630
GlyphClass: 2
Flags: W
LayerCount: 2
Fore
SplineSet
387 430 m 2,0,-1
 362 430 l 1,1,-1
 357 439 l 1,2,-1
 361 507 l 1,3,4
 458 504 458 504 542 504 c 128,-1,5
 626 504 626 504 626 506 c 2,6,-1
 622 430 l 1,7,8
 596 426 596 426 586 415.5 c 128,-1,9
 576 405 576 405 575 381 c 2,10,-1
 564 4 l 1,11,-1
 391 -5 l 1,12,-1
 239 217 l 1,13,-1
 225 217 l 1,14,-1
 229 114 l 2,15,16
 230 90 230 90 236.5 81.5 c 128,-1,17
 243 73 243 73 262 73 c 1,18,-1
 288 76 l 1,19,-1
 297 69 l 1,20,-1
 287 -3 l 1,21,22
 190 0 190 0 154 0 c 1,23,-1
 20 -6 l 1,24,-1
 29 70 l 1,25,26
 53 73 53 73 63.5 84.5 c 128,-1,27
 74 96 74 96 75 119 c 2,28,-1
 85 378 l 1,29,30
 85 405 85 405 74 413.5 c 128,-1,31
 63 422 63 422 24 427 c 1,32,-1
 13 439 l 1,33,-1
 18 508 l 1,34,35
 82 504 82 504 148 504 c 1,36,-1
 261 507 l 1,37,38
 314 416 314 416 404 285 c 1,39,-1
 418 285 l 1,40,-1
 414 396 l 1,41,42
 412 416 412 416 407 423 c 128,-1,43
 402 430 402 430 387 430 c 2,0,-1
EndSplineSet
EndChar

StartChar: o
Encoding: 111 111 82
Width: 554
GlyphClass: 2
Flags: W
LayerCount: 2
Fore
SplineSet
234.5 137.5 m 128,-1,1
 246 99 246 99 278 99 c 128,-1,2
 310 99 310 99 320.5 123 c 128,-1,3
 331 147 331 147 331 234 c 128,-1,4
 331 321 331 321 319.5 358.5 c 128,-1,5
 308 396 308 396 275.5 396 c 128,-1,6
 243 396 243 396 233 373 c 128,-1,7
 223 350 223 350 223 263 c 128,-1,0
 223 176 223 176 234.5 137.5 c 128,-1,1
467.5 61 m 128,-1,9
 398 -9 398 -9 271 -9 c 0,10,11
 17 -9 17 -9 17 245 c 0,12,13
 17 513 17 513 288 513 c 0,14,15
 414 513 414 513 475.5 451.5 c 128,-1,16
 537 390 537 390 537 260.5 c 128,-1,8
 537 131 537 131 467.5 61 c 128,-1,9
EndSplineSet
EndChar

StartChar: p
Encoding: 112 112 83
Width: 523
GlyphClass: 2
Flags: W
LayerCount: 2
Fore
SplineSet
533 343 m 0,0,1
 533 268 533 268 470.5 212.5 c 128,-1,2
 408 157 408 157 323 157 c 2,3,-1
 251 157 l 1,4,-1
 251 126 l 2,5,6
 251 98 251 98 260 86.5 c 128,-1,7
 269 75 269 75 294 75 c 2,8,-1
 319 76 l 1,9,-1
 323 69 l 1,10,-1
 315 -3 l 1,11,12
 207 0 207 0 181.5 0 c 128,-1,13
 156 0 156 0 115.5 -2 c 128,-1,14
 75 -4 75 -4 13 -7 c 1,15,-1
 21 71 l 1,16,17
 51 75 51 75 62.5 90 c 128,-1,18
 74 105 74 105 74 137 c 2,19,-1
 74 387 l 2,20,21
 74 411 74 411 69.5 420 c 128,-1,22
 65 429 65 429 54 429 c 2,23,-1
 24 428 l 1,24,-1
 15 438 l 1,25,-1
 24 504 l 1,26,-1
 146 504 l 1,27,-1
 301 509 l 1,28,29
 361 509 361 509 405.5 496.5 c 128,-1,30
 450 484 450 484 473.5 467 c 128,-1,31
 497 450 497 450 512 426 c 1,32,33
 533 389 533 389 533 343 c 0,0,1
348 337 m 0,34,35
 348 371 348 371 330 386 c 128,-1,36
 312 401 312 401 272 401 c 0,37,38
 265 401 265 401 262.5 397.5 c 128,-1,39
 260 394 260 394 259 383 c 2,40,-1
 253 261 l 1,41,-1
 306 254 l 1,42,43
 348 270 348 270 348 337 c 0,34,35
EndSplineSet
EndChar

StartChar: q
Encoding: 113 113 84
Width: 557
GlyphClass: 2
Flags: W
LayerCount: 2
Fore
SplineSet
17 245 m 0,0,1
 17 513 17 513 288 513 c 0,2,3
 414 513 414 513 475.5 451.5 c 128,-1,4
 537 390 537 390 537 264 c 0,5,6
 537 105 537 105 418 29 c 1,7,-1
 418 17 l 1,8,9
 457 -11 457 -11 506.5 -29 c 128,-1,10
 556 -47 556 -47 584 -47 c 0,11,12
 628 -47 628 -47 672 -39 c 1,13,-1
 683 -49 l 1,14,-1
 698 -109 l 1,15,16
 575 -192 575 -192 543 -192 c 0,17,18
 493 -192 493 -192 442.5 -158.5 c 128,-1,19
 392 -125 392 -125 266 -9 c 1,20,21
 144 -9 144 -9 80.5 55.5 c 128,-1,22
 17 120 17 120 17 245 c 0,0,1
234.5 137.5 m 128,-1,24
 246 99 246 99 278 99 c 128,-1,25
 310 99 310 99 320.5 123 c 128,-1,26
 331 147 331 147 331 234 c 128,-1,27
 331 321 331 321 319.5 358.5 c 128,-1,28
 308 396 308 396 275.5 396 c 128,-1,29
 243 396 243 396 233 373 c 128,-1,30
 223 350 223 350 223 263 c 128,-1,23
 223 176 223 176 234.5 137.5 c 128,-1,24
EndSplineSet
EndChar

StartChar: r
Encoding: 114 114 85
Width: 584
GlyphClass: 2
Flags: W
LayerCount: 2
Fore
SplineSet
251 171 m 1,0,-1
 251 129 l 2,1,2
 251 95 251 95 260.5 86 c 128,-1,3
 270 77 270 77 310 75 c 1,4,-1
 315 68 l 1,5,-1
 306 -3 l 1,6,7
 198 0 198 0 167 0 c 0,8,9
 108 0 108 0 14 -8 c 1,10,-1
 21 70 l 1,11,12
 51 75 51 75 62.5 90 c 128,-1,13
 74 105 74 105 74 137 c 2,14,-1
 74 397 l 2,15,16
 74 415 74 415 69.5 422 c 128,-1,17
 65 429 65 429 54 429 c 2,18,-1
 24 428 l 1,19,-1
 15 438 l 1,20,-1
 25 505 l 1,21,22
 112 504 112 504 146 504 c 1,23,-1
 306 509 l 1,24,25
 544 509 544 509 544 359 c 0,26,27
 544 268 544 268 447 212 c 1,28,-1
 493 141 l 2,29,30
 538 72 538 72 571 72 c 1,31,-1
 581 58 l 1,32,-1
 573 -4 l 1,33,-1
 437 -12 l 1,34,35
 400 -12 400 -12 378.5 3.5 c 128,-1,36
 357 19 357 19 341 58 c 2,37,-1
 295 171 l 1,38,-1
 251 171 l 1,0,-1
359 343 m 128,-1,40
 359 373 359 373 338.5 386.5 c 128,-1,41
 318 400 318 400 273 400 c 0,42,43
 265 400 265 400 262 397 c 0,44,45
 257 390 257 390 254 279 c 1,46,-1
 314 271 l 1,47,48
 343 283 343 283 351 298 c 128,-1,39
 359 313 359 313 359 343 c 128,-1,40
EndSplineSet
EndChar

StartChar: s
Encoding: 115 115 86
Width: 474
GlyphClass: 2
Flags: W
LayerCount: 2
Fore
SplineSet
192 -9 m 0,0,1
 148 -9 148 -9 106 -0.5 c 128,-1,2
 64 8 64 8 24 25 c 1,3,-1
 13 40 l 1,4,5
 29 130 29 130 31 177 c 1,6,-1
 145 184 l 1,7,8
 145 149 145 149 163.5 127.5 c 128,-1,9
 182 106 182 106 213 106 c 0,10,11
 260 106 260 106 260 128 c 0,12,13
 260 145 260 145 235 158.5 c 128,-1,14
 210 172 210 172 174 185 c 128,-1,15
 138 198 138 198 102 215 c 128,-1,16
 66 232 66 232 41 265 c 128,-1,17
 16 298 16 298 16 343 c 0,18,19
 16 421 16 421 88.5 467 c 128,-1,20
 161 513 161 513 281 513 c 0,21,22
 363 513 363 513 443 491 c 1,23,-1
 454 472 l 1,24,25
 438 403 438 403 431 333 c 1,26,-1
 327 326 l 1,27,-1
 316 333 l 1,28,-1
 316 340 l 2,29,30
 316 365 316 365 301 379.5 c 128,-1,31
 286 394 286 394 260 394 c 0,32,33
 215 394 215 394 215 367 c 0,34,35
 215 339 215 339 301 310 c 0,36,37
 337 298 337 298 373 281 c 128,-1,38
 409 264 409 264 434 232 c 128,-1,39
 459 200 459 200 459 155 c 0,40,41
 459 78 459 78 388 34.5 c 128,-1,42
 317 -9 317 -9 192 -9 c 0,0,1
EndSplineSet
EndChar

StartChar: t
Encoding: 116 116 87
Width: 511
GlyphClass: 2
Flags: W
LayerCount: 2
Fore
SplineSet
167 131 m 2,0,-1
 167 399 l 1,1,2
 140 399 140 399 131.5 378 c 128,-1,3
 123 357 123 357 117 291 c 1,4,-1
 6 285 l 1,5,6
 11 408 11 408 12 501 c 1,7,-1
 23 513 l 1,8,-1
 126 504 l 1,9,-1
 387 504 l 1,10,-1
 491 513 l 1,11,-1
 503 501 l 1,12,-1
 506 291 l 1,13,-1
 394 285 l 1,14,15
 388 360 388 360 381 379.5 c 128,-1,16
 374 399 374 399 348 399 c 1,17,18
 345 279 345 279 345 131 c 0,19,20
 345 101 345 101 354.5 89 c 128,-1,21
 364 77 364 77 388 77 c 1,22,-1
 429 80 l 1,23,-1
 434 75 l 1,24,-1
 426 -5 l 1,25,26
 300 0 300 0 252 0 c 1,27,-1
 78 -8 l 1,28,-1
 84 71 l 1,29,30
 134 75 134 75 150.5 87 c 128,-1,31
 167 99 167 99 167 131 c 2,0,-1
EndSplineSet
EndChar

StartChar: u
Encoding: 117 117 88
Width: 528
GlyphClass: 2
Flags: W
LayerCount: 2
Fore
SplineSet
282 99 m 128,-1,1
 308 99 308 99 320 112 c 128,-1,2
 332 125 332 125 332 156 c 2,3,-1
 331 387 l 1,4,5
 332 429 332 429 311 429 c 1,6,-1
 294 428 l 1,7,-1
 291 431 l 1,8,-1
 301 506 l 1,9,10
 371 504 371 504 401 504 c 2,11,-1
 526 506 l 1,12,-1
 519 429 l 1,13,14
 495 421 495 421 488 415 c 128,-1,15
 481 409 481 409 481 397 c 2,16,-1
 481 185 l 2,17,18
 481 -9 481 -9 258 -9 c 0,19,20
 148 -9 148 -9 99.5 29 c 128,-1,21
 51 67 51 67 51 153 c 2,22,-1
 51 387 l 2,23,24
 51 413 51 413 46.5 421 c 128,-1,25
 42 429 42 429 28 429 c 2,26,-1
 5 428 l 1,27,-1
 3 431 l 1,28,-1
 12 506 l 1,29,30
 96 504 96 504 166 504 c 1,31,-1
 280 507 l 1,32,-1
 271 427 l 1,33,34
 235 426 235 426 233 391 c 1,35,-1
 228 167 l 2,36,37
 228 136 228 136 242 117.5 c 128,-1,0
 256 99 256 99 282 99 c 128,-1,1
EndSplineSet
EndChar

StartChar: v
Encoding: 118 118 89
Width: 549
GlyphClass: 2
Flags: W
LayerCount: 2
Fore
SplineSet
278 141 m 1,0,-1
 297 141 l 1,1,2
 356 399 356 399 356 411 c 128,-1,3
 356 423 356 423 352.5 425 c 128,-1,4
 349 427 349 427 335 427 c 2,5,-1
 316 427 l 1,6,-1
 309 436 l 1,7,-1
 315 506 l 1,8,9
 394 504 394 504 444 504 c 2,10,-1
 548 505 l 1,11,-1
 542 431 l 1,12,13
 530 427 530 427 524.5 418.5 c 128,-1,14
 519 410 519 410 511 388 c 1,15,-1
 395 3 l 1,16,-1
 143 -10 l 1,17,18
 68 315 68 315 56 359.5 c 128,-1,19
 44 404 44 404 34.5 416 c 128,-1,20
 25 428 25 428 10 430 c 1,21,-1
 3 439 l 1,22,-1
 10 506 l 1,23,24
 80 504 80 504 126 504 c 2,25,-1
 289 507 l 1,26,-1
 296 500 l 1,27,-1
 291 428 l 1,28,29
 253 424 253 424 247 420.5 c 128,-1,30
 241 417 241 417 241 399.5 c 128,-1,31
 241 382 241 382 278 141 c 1,0,-1
EndSplineSet
EndChar

StartChar: w
Encoding: 119 119 90
Width: 850
GlyphClass: 2
Flags: W
LayerCount: 2
Fore
SplineSet
266 141 m 1,0,-1
 285 141 l 1,1,2
 290 157 290 157 313.5 262 c 128,-1,3
 337 367 337 367 341 393 c 1,4,-1
 346 410 l 1,5,6
 347 424 347 424 340 427 c 128,-1,7
 333 430 333 430 321 430 c 128,-1,8
 309 430 309 430 303 430 c 1,9,-1
 297 439 l 1,10,-1
 305 506 l 1,11,12
 393 504 393 504 444 504 c 2,13,-1
 601 507 l 1,14,-1
 608 500 l 1,15,-1
 602 428 l 1,16,17
 565 423 565 423 559.5 420.5 c 128,-1,18
 554 418 554 418 554 404 c 0,19,20
 554 375 554 375 588 141 c 1,21,-1
 606 141 l 1,22,23
 614 173 614 173 639 285.5 c 128,-1,24
 664 398 664 398 664 410.5 c 128,-1,25
 664 423 664 423 660.5 425 c 128,-1,26
 657 427 657 427 643 427 c 2,27,-1
 625 427 l 1,28,-1
 619 436 l 1,29,-1
 625 506 l 1,30,31
 702 504 702 504 749 504 c 2,32,-1
 848 505 l 1,33,-1
 843 431 l 1,34,35
 831 427 831 427 825.5 418.5 c 128,-1,36
 820 410 820 410 812 388 c 1,37,-1
 705 3 l 1,38,-1
 463 -10 l 1,39,40
 450 71 450 71 435 192 c 1,41,-1
 423 192 l 1,42,-1
 379 3 l 1,43,-1
 137 -10 l 1,44,45
 65 315 65 315 53 359.5 c 128,-1,46
 41 404 41 404 32.5 416 c 128,-1,47
 24 428 24 428 10 430 c 1,48,-1
 3 439 l 1,49,-1
 11 506 l 1,50,51
 77 504 77 504 122 504 c 2,52,-1
 279 507 l 1,53,-1
 285 500 l 1,54,-1
 280 428 l 1,55,56
 243 424 243 424 237 420.5 c 128,-1,57
 231 417 231 417 231 392.5 c 128,-1,58
 231 368 231 368 266 141 c 1,0,-1
EndSplineSet
EndChar

StartChar: x
Encoding: 120 120 91
Width: 610
GlyphClass: 2
Flags: W
LayerCount: 2
Fore
SplineSet
359 503 m 1,0,-1
 603 506 l 1,1,-1
 606 500 l 1,2,-1
 602 425 l 1,3,4
 530 390 530 390 497 340 c 2,5,-1
 422 228 l 1,6,-1
 487 146 l 2,7,8
 539 79 539 79 590 79 c 1,9,-1
 593 76 l 1,10,-1
 586 0 l 1,11,12
 503 2 503 2 472 2 c 2,13,-1
 295 -3 l 1,14,-1
 289 2 l 1,15,-1
 295 74 l 1,16,17
 313 74 313 74 313 87 c 0,18,19
 313 95 313 95 305 106 c 2,20,-1
 260 163 l 1,21,-1
 234 123 l 2,22,23
 224 107 224 107 224 98 c 0,24,25
 224 75 224 75 254 75 c 1,26,-1
 260 66 l 1,27,-1
 256 -3 l 1,28,29
 152 2 152 2 126 2 c 1,30,-1
 11 -3 l 1,31,-1
 7 9 l 1,32,-1
 11 76 l 1,33,34
 27 84 27 84 59 115.5 c 128,-1,35
 91 147 91 147 112 175 c 2,36,-1
 183 273 l 1,37,-1
 120 356 l 1,38,39
 88 400 88 400 58 412 c 0,40,41
 47 416 47 416 23 422 c 1,42,-1
 19 427 l 1,43,-1
 27 505 l 1,44,45
 82 504 82 504 176 504 c 1,46,-1
 324 509 l 1,47,-1
 329 499 l 1,48,-1
 323 429 l 2,49,50
 322 429 322 429 320 429 c 0,51,52
 295 429 295 429 295 412 c 0,53,54
 295 396 295 396 306.5 380.5 c 128,-1,55
 318 365 318 365 320.5 361.5 c 128,-1,56
 323 358 323 358 331 349 c 128,-1,57
 339 340 339 340 342 336 c 1,58,59
 347 346 347 346 360 366 c 0,60,61
 385 406 385 406 385 416 c 0,62,63
 385 430 385 430 359 430 c 0,64,65
 357 430 357 430 355 430 c 1,66,-1
 354 435 l 1,67,-1
 359 503 l 1,0,-1
EndSplineSet
EndChar

StartChar: y
Encoding: 121 121 92
Width: 578
GlyphClass: 2
Flags: W
LayerCount: 2
Fore
SplineSet
333 502 m 1,0,-1
 469 503 l 1,1,-1
 566 506 l 1,2,-1
 569 500 l 1,3,-1
 562 425 l 1,4,5
 537 410 537 410 512 383 c 128,-1,6
 487 356 487 356 472 328 c 2,7,-1
 398 186 l 1,8,9
 386 159 386 159 386 129 c 128,-1,10
 386 99 386 99 395 88 c 128,-1,11
 404 77 404 77 428 77 c 1,12,-1
 471 80 l 1,13,-1
 475 75 l 1,14,-1
 468 -5 l 1,15,16
 337 0 337 0 287 0 c 1,17,-1
 111 -7 l 1,18,-1
 117 71 l 1,19,20
 171 74 171 74 188.5 85 c 128,-1,21
 206 96 206 96 206 129 c 2,22,-1
 206 137 l 2,23,24
 206 165 206 165 183 204 c 2,25,-1
 92 361 l 1,26,27
 71 392 71 392 13 422 c 1,28,-1
 9 427 l 1,29,-1
 18 505 l 1,30,31
 121 503 121 503 147 503 c 1,32,-1
 300 509 l 1,33,-1
 307 499 l 1,34,-1
 298 429 l 1,35,36
 295 429 295 429 293 429 c 0,37,38
 268 429 268 429 268 411 c 0,39,40
 268 403 268 403 285 366 c 128,-1,41
 302 329 302 329 309 312 c 1,42,-1
 321 312 l 1,43,-1
 347 386 l 1,44,45
 358 408 358 408 358 419 c 128,-1,46
 358 430 358 430 334 430 c 0,47,48
 331 430 331 430 329 430 c 1,49,-1
 326 435 l 1,50,-1
 333 502 l 1,0,-1
EndSplineSet
EndChar

StartChar: z
Encoding: 122 122 93
Width: 510
GlyphClass: 2
Flags: W
LayerCount: 2
Fore
SplineSet
489 16 m 1,0,-1
 471 -2 l 1,1,-1
 108 2 l 1,2,-1
 38 -6 l 1,3,-1
 6 43 l 1,4,-1
 271 414 l 1,5,-1
 218 406 l 1,6,7
 171 395 171 395 159.5 381.5 c 128,-1,8
 148 368 148 368 147 320 c 1,9,-1
 33 313 l 1,10,11
 43 433 43 433 45 506 c 1,12,-1
 55 514 l 1,13,-1
 205 506 l 1,14,-1
 488 507 l 1,15,-1
 511 461 l 1,16,17
 384 306 384 306 240 94 c 1,18,-1
 316 107 l 1,19,20
 356 115 356 115 373.5 138.5 c 128,-1,21
 391 162 391 162 395 214 c 1,22,-1
 508 222 l 1,23,24
 491 94 491 94 489 16 c 1,0,-1
EndSplineSet
EndChar

StartChar: braceleft
Encoding: 123 123 94
Width: 335
GlyphClass: 2
Flags: W
LayerCount: 2
Fore
SplineSet
113 376 m 0,0,1
 113 396 113 396 86.5 455 c 128,-1,2
 60 514 60 514 60 543 c 0,3,4
 60 595 60 595 108.5 627 c 128,-1,5
 157 659 157 659 235 659 c 0,6,7
 271 659 271 659 325 647 c 1,8,-1
 335 631 l 1,9,-1
 317 548 l 1,10,11
 297 553 297 553 282 553 c 0,12,13
 232 553 232 553 232 503 c 0,14,15
 232 488 232 488 245.5 441 c 128,-1,16
 259 394 259 394 259 369 c 128,-1,17
 259 344 259 344 239.5 321.5 c 128,-1,18
 220 299 220 299 186 290 c 1,19,-1
 186 285 l 1,20,21
 259 261 259 261 259 195 c 0,22,23
 259 173 259 173 245.5 119.5 c 128,-1,24
 232 66 232 66 232 44 c 128,-1,25
 232 22 232 22 246.5 6.5 c 128,-1,26
 261 -9 261 -9 287 -9 c 1,27,-1
 318 -4 l 1,28,-1
 331 -17 l 1,29,-1
 317 -100 l 1,30,31
 280 -123 280 -123 213 -123 c 128,-1,32
 146 -123 146 -123 103 -89.5 c 128,-1,33
 60 -56 60 -56 60 -7 c 0,34,35
 60 24 60 24 86.5 84.5 c 128,-1,36
 113 145 113 145 113 162 c 0,37,38
 113 215 113 215 41 235 c 1,39,-1
 45 311 l 1,40,41
 113 332 113 332 113 376 c 0,0,1
EndSplineSet
EndChar

StartChar: bar
Encoding: 124 124 95
Width: 293
GlyphClass: 2
Flags: W
LayerCount: 2
Fore
SplineSet
194 807 m 1,0,-1
 215 791 l 1,1,2
 209 457 209 457 209 291 c 2,3,-1
 210 -258 l 1,4,-1
 93 -269 l 1,5,-1
 78 -253 l 1,6,7
 78 -244 78 -244 80 796 c 1,8,-1
 194 807 l 1,0,-1
EndSplineSet
EndChar

StartChar: braceright
Encoding: 125 125 96
Width: 335
GlyphClass: 2
Flags: W
LayerCount: 2
Fore
SplineSet
240.5 210 m 128,-1,1
 222 192 222 192 222 171 c 128,-1,2
 222 150 222 150 248.5 91 c 128,-1,3
 275 32 275 32 275 3 c 0,4,5
 275 -53 275 -53 226.5 -88 c 128,-1,6
 178 -123 178 -123 100 -123 c 0,7,8
 64 -123 64 -123 10 -111 c 1,9,-1
 0 -95 l 1,10,-1
 18 -12 l 1,11,12
 38 -17 38 -17 53 -17 c 0,13,14
 103 -17 103 -17 103 33 c 0,15,16
 103 49 103 49 89.5 100 c 128,-1,17
 76 151 76 151 76 171 c 0,18,19
 76 235 76 235 149 256 c 1,20,-1
 149 261 l 1,21,22
 76 285 76 285 76 351 c 0,23,24
 76 371 76 371 89.5 421 c 128,-1,25
 103 471 103 471 103 492.5 c 128,-1,26
 103 514 103 514 88.5 529.5 c 128,-1,27
 74 545 74 545 48 545 c 1,28,-1
 17 540 l 1,29,-1
 4 553 l 1,30,-1
 18 636 l 1,31,32
 55 659 55 659 122 659 c 128,-1,33
 189 659 189 659 232 625.5 c 128,-1,34
 275 592 275 592 275 543 c 0,35,36
 275 514 275 514 248.5 457 c 128,-1,37
 222 400 222 400 222 378 c 128,-1,38
 222 356 222 356 241 336.5 c 128,-1,39
 260 317 260 317 294 311 c 1,40,-1
 290 235 l 1,41,0
 259 228 259 228 240.5 210 c 128,-1,1
EndSplineSet
EndChar

StartChar: asciitilde
Encoding: 126 126 97
Width: 505
GlyphClass: 2
Flags: W
LayerCount: 2
Fore
SplineSet
243 325 m 128,-1,1
 323 308 323 308 339.5 308 c 128,-1,2
 356 308 356 308 378 322.5 c 128,-1,3
 400 337 400 337 430 366 c 1,4,-1
 446 366 l 1,5,-1
 495 310 l 1,6,-1
 495 294 l 1,7,-1
 388 179 l 1,8,-1
 366 175 l 1,9,10
 342 175 342 175 262 192 c 128,-1,11
 182 209 182 209 165.5 209 c 128,-1,12
 149 209 149 209 127 194.5 c 128,-1,13
 105 180 105 180 75 151 c 1,14,-1
 59 151 l 1,15,-1
 10 207 l 1,16,-1
 10 223 l 1,17,-1
 117 338 l 1,18,-1
 139 342 l 1,19,0
 163 342 163 342 243 325 c 128,-1,1
EndSplineSet
EndChar

StartChar: exclamdown
Encoding: 161 161 99
Width: 284
GlyphClass: 2
Flags: W
LayerCount: 2
Fore
SplineSet
78 456 m 128,-1,1
 105 484 105 484 151.5 484 c 128,-1,2
 198 484 198 484 222 459.5 c 128,-1,3
 246 435 246 435 246 388 c 128,-1,4
 246 341 246 341 218.5 313 c 128,-1,5
 191 285 191 285 145.5 285 c 128,-1,6
 100 285 100 285 75.5 310 c 128,-1,7
 51 335 51 335 51 381.5 c 128,-1,0
 51 428 51 428 78 456 c 128,-1,1
206 210 m 1,8,-1
 240 -192 l 1,9,-1
 222 -216 l 1,10,-1
 34 -242 l 1,11,-1
 9 -216 l 1,12,-1
 82 214 l 1,13,-1
 185 230 l 1,14,-1
 206 210 l 1,8,-1
EndSplineSet
EndChar

StartChar: cent
Encoding: 162 162 100
Width: 440
GlyphClass: 2
Flags: W
LayerCount: 2
Fore
SplineSet
300 308 m 2,0,1
 300 340 300 340 291 353 c 128,-1,2
 282 366 282 366 260 366 c 0,3,4
 203 366 203 366 203 273 c 0,5,6
 203 196 203 196 222.5 160.5 c 128,-1,7
 242 125 242 125 284 125 c 0,8,9
 332 125 332 125 370 144 c 1,10,-1
 382 151 l 1,11,-1
 392 146 l 1,12,-1
 414 71 l 1,13,14
 361 25 361 25 305 1 c 1,15,-1
 300 -157 l 1,16,-1
 176 -173 l 1,17,-1
 168 -167 l 1,18,-1
 175 -4 l 1,19,20
 98 15 98 15 56 75.5 c 128,-1,21
 14 136 14 136 14 229.5 c 128,-1,22
 14 323 14 323 61 387.5 c 128,-1,23
 108 452 108 452 191 474 c 1,24,-1
 196 641 l 1,25,-1
 322 656 l 1,26,-1
 329 649 l 1,27,-1
 322 481 l 1,28,29
 376 475 376 475 410 462 c 1,30,-1
 415 451 l 1,31,32
 399 367 399 367 392 277 c 1,33,-1
 300 272 l 1,34,-1
 300 308 l 2,0,1
EndSplineSet
EndChar

StartChar: sterling
Encoding: 163 163 101
Width: 511
GlyphClass: 2
Flags: W
LayerCount: 2
Fore
SplineSet
447 216 m 1,0,-1
 478 216 l 1,1,2
 491 200 491 200 500 167 c 128,-1,3
 509 134 509 134 509 105 c 0,4,5
 509 54 509 54 475 21 c 128,-1,6
 441 -12 441 -12 389 -12 c 0,7,8
 358 -12 358 -12 291 15 c 128,-1,9
 224 42 224 42 192 42 c 0,10,11
 128 42 128 42 55 -1 c 1,12,-1
 40 5 l 1,13,-1
 15 96 l 1,14,15
 95 137 95 137 95 201 c 2,16,-1
 95 235 l 1,17,18
 94 258 94 258 81 265.5 c 128,-1,19
 68 273 68 273 28 275 c 1,20,-1
 24 281 l 1,21,-1
 32 351 l 1,22,-1
 95 360 l 1,23,-1
 95 387 l 2,24,25
 95 464 95 464 178.5 531 c 128,-1,26
 262 598 262 598 350.5 598 c 128,-1,27
 439 598 439 598 482 583 c 1,28,-1
 487 572 l 1,29,-1
 444 441 l 1,30,-1
 425 438 l 1,31,32
 351 481 351 481 317.5 481 c 128,-1,33
 284 481 284 481 273.5 467 c 128,-1,34
 263 453 263 453 263 417 c 1,35,-1
 261 360 l 1,36,-1
 400 363 l 1,37,-1
 405 356 l 1,38,-1
 394 271 l 1,39,40
 337 274 337 274 258 274 c 1,41,-1
 257 236 l 2,42,43
 257 210 257 210 248.5 183 c 128,-1,44
 240 156 240 156 228 144 c 1,45,-1
 287 158 l 1,46,47
 298 158 298 158 338 149.5 c 128,-1,48
 378 141 378 141 397.5 141 c 128,-1,49
 417 141 417 141 432 161.5 c 128,-1,50
 447 182 447 182 447 216 c 1,0,-1
EndSplineSet
EndChar

StartChar: currency
Encoding: 164 164 102
Width: 444
GlyphClass: 2
Flags: W
LayerCount: 2
Fore
SplineSet
73 280 m 1,0,1
 62 310 62 310 62 343.5 c 128,-1,2
 62 377 62 377 74 407 c 1,3,-1
 -6 479 l 1,4,-1
 -2 502 l 1,5,-1
 103 579 l 1,6,-1
 169 502 l 1,7,8
 202 515 202 515 234 515 c 128,-1,9
 266 515 266 515 299 502 c 1,10,-1
 368 581 l 1,11,-1
 391 577 l 1,12,-1
 468 472 l 1,13,-1
 394 408 l 1,14,15
 407 374 407 374 407 340.5 c 128,-1,16
 407 307 407 307 393 274 c 1,17,-1
 470 207 l 1,18,-1
 466 184 l 1,19,-1
 361 107 l 1,20,-1
 296 181 l 1,21,22
 266 170 266 170 232.5 170 c 128,-1,23
 199 170 199 170 166 184 c 1,24,-1
 96 105 l 1,25,-1
 73 109 l 1,26,-1
 -4 214 l 1,27,-1
 73 280 l 1,0,1
160 342 m 128,-1,29
 160 311 160 311 181.5 289.5 c 128,-1,30
 203 268 203 268 234 268 c 128,-1,31
 265 268 265 268 287 289.5 c 128,-1,32
 309 311 309 311 309 342 c 128,-1,33
 309 373 309 373 287 395 c 128,-1,34
 265 417 265 417 234 417 c 128,-1,35
 203 417 203 417 181.5 395 c 128,-1,28
 160 373 160 373 160 342 c 128,-1,29
EndSplineSet
EndChar

StartChar: yen
Encoding: 165 165 103
Width: 589
GlyphClass: 2
Flags: W
LayerCount: 2
Fore
SplineSet
7 427 m 1,0,1
 10 466 10 466 16 505 c 1,2,3
 86 503 86 503 183 503 c 128,-1,4
 280 503 280 503 298 509 c 1,5,-1
 304 499 l 1,6,-1
 296 429 l 1,7,8
 266 429 266 429 266 415 c 0,9,10
 266 408 266 408 307 312 c 1,11,-1
 319 312 l 1,12,13
 356 416 356 416 356 421 c 128,-1,14
 356 426 356 426 354 427.5 c 128,-1,15
 352 429 352 429 348.5 428 c 128,-1,16
 345 427 345 427 340 426 c 0,17,18
 330 422 330 422 324 435 c 1,19,-1
 331 502 l 1,20,-1
 467 503 l 1,21,-1
 563 506 l 1,22,-1
 567 500 l 1,23,-1
 560 425 l 1,24,25
 529 408 529 408 514 394 c 0,26,27
 498 380 498 380 480 348 c 1,28,-1
 554 350 l 1,29,-1
 562 340 l 1,30,-1
 556 254 l 1,31,-1
 426 254 l 1,32,-1
 400 208 l 1,33,-1
 551 211 l 1,34,-1
 559 201 l 1,35,-1
 553 115 l 1,36,-1
 377 115 l 1,37,38
 377 108 377 108 382 96 c 0,39,40
 389 77 389 77 421 77 c 1,41,-1
 463 80 l 1,42,-1
 468 75 l 1,43,-1
 461 -5 l 1,44,45
 332 0 332 0 284 0 c 1,46,-1
 107 -7 l 1,47,-1
 114 71 l 1,48,49
 160 74 160 74 177 82.5 c 128,-1,50
 194 91 194 91 198 115 c 1,51,-1
 35 114 l 1,52,-1
 25 122 l 1,53,-1
 37 207 l 1,54,-1
 184 207 l 1,55,-1
 158 254 l 1,56,-1
 38 253 l 1,57,-1
 28 261 l 1,58,-1
 40 346 l 1,59,-1
 101 346 l 1,60,61
 97 352 97 352 55 383 c 128,-1,62
 13 414 13 414 7 427 c 1,0,1
EndSplineSet
EndChar

StartChar: brokenbar
Encoding: 166 166 104
Width: 293
GlyphClass: 2
Flags: W
LayerCount: 2
Fore
SplineSet
79 140 m 1,0,-1
 191 157 l 1,1,-1
 209 140 l 1,2,-1
 210 -268 l 1,3,-1
 93 -279 l 1,4,-1
 78 -263 l 1,5,6
 78 -44 78 -44 79 140 c 1,0,-1
79 369 m 1,7,-1
 80 796 l 1,8,-1
 194 807 l 1,9,-1
 215 791 l 1,10,11
 210 548 210 548 209 374 c 1,12,-1
 92 358 l 1,13,-1
 79 369 l 1,7,-1
EndSplineSet
EndChar

StartChar: section
Encoding: 167 167 105
Width: 486
GlyphClass: 2
Flags: W
LayerCount: 2
Fore
SplineSet
418 67 m 0,0,1
 418 -2 418 -2 355 -48.5 c 128,-1,2
 292 -95 292 -95 198 -95 c 0,3,4
 138 -95 138 -95 90 -71 c 128,-1,5
 42 -47 42 -47 42 -18 c 0,6,7
 42 53 42 53 82 107 c 1,8,-1
 109 105 l 1,9,10
 114 71 114 71 141 47 c 128,-1,11
 168 23 168 23 200.5 23 c 128,-1,12
 233 23 233 23 233 47 c 0,13,14
 233 65 233 65 211 81 c 128,-1,15
 189 97 189 97 158 111.5 c 128,-1,16
 127 126 127 126 96 144 c 128,-1,17
 65 162 65 162 43 192.5 c 128,-1,18
 21 223 21 223 21 262 c 0,19,20
 21 346 21 346 127 401 c 1,21,22
 75 444 75 444 75 506.5 c 128,-1,23
 75 569 75 569 133 614 c 128,-1,24
 191 659 191 659 280 659 c 0,25,26
 338 659 338 659 382.5 643.5 c 128,-1,27
 427 628 427 628 427 608 c 0,28,29
 427 579 427 579 412.5 534.5 c 128,-1,30
 398 490 398 490 385 479 c 1,31,-1
 360 479 l 1,32,33
 351 504 351 504 332.5 520 c 128,-1,34
 314 536 314 536 298 536 c 128,-1,35
 282 536 282 536 273 528.5 c 128,-1,36
 264 521 264 521 264 508 c 128,-1,37
 264 495 264 495 285 479 c 128,-1,38
 306 463 306 463 336 446.5 c 128,-1,39
 366 430 366 430 396.5 410 c 128,-1,40
 427 390 427 390 448 359 c 128,-1,41
 469 328 469 328 469 291 c 0,42,43
 469 217 469 217 369 159 c 1,44,45
 418 120 418 120 418 67 c 0,0,1
196 357 m 1,46,47
 177 338 177 338 177 317 c 128,-1,48
 177 296 177 296 185 281 c 128,-1,49
 193 266 193 266 214 251 c 0,50,51
 242 232 242 232 292 206 c 1,52,53
 307 224 307 224 307 244 c 128,-1,54
 307 264 307 264 299 279.5 c 128,-1,55
 291 295 291 295 270 310 c 1,56,57
 243 331 243 331 196 357 c 1,46,47
EndSplineSet
EndChar

StartChar: dieresis
Encoding: 168 168 106
Width: 398
GlyphClass: 2
Flags: W
LayerCount: 2
Fore
SplineSet
292 559 m 0,0,1
 212 559 212 559 212 639 c 0,2,3
 212 679 212 679 235 702.5 c 128,-1,4
 258 726 258 726 297 726 c 128,-1,5
 336 726 336 726 356.5 705 c 128,-1,6
 377 684 377 684 377 645 c 128,-1,7
 377 606 377 606 354 582.5 c 128,-1,8
 331 559 331 559 292 559 c 0,0,1
99 559 m 0,9,10
 20 559 20 559 20 639 c 0,11,12
 20 679 20 679 43 702.5 c 128,-1,13
 66 726 66 726 105 726 c 128,-1,14
 144 726 144 726 164.5 705 c 128,-1,15
 185 684 185 684 185 645 c 128,-1,16
 185 606 185 606 162 582.5 c 128,-1,17
 139 559 139 559 99 559 c 0,9,10
EndSplineSet
EndChar

StartChar: copyright
Encoding: 169 169 107
Width: 699
GlyphClass: 2
Flags: W
LayerCount: 2
Fore
SplineSet
465 145 m 1,0,1
 405 127 405 127 332 127 c 128,-1,2
 259 127 259 127 218 170 c 128,-1,3
 177 213 177 213 177 291 c 0,4,5
 177 465 177 465 366 465 c 0,6,7
 402 465 402 465 482 452 c 1,8,-1
 487 441 l 1,9,10
 474 393 474 393 471 328 c 1,11,-1
 381 324 l 1,12,13
 382 337 382 337 382 355 c 128,-1,14
 382 373 382 373 375 381 c 128,-1,15
 368 389 368 389 346.5 389 c 128,-1,16
 325 389 325 389 317 373 c 128,-1,17
 309 357 309 357 309 305.5 c 128,-1,18
 309 254 309 254 319 230 c 128,-1,19
 329 206 329 206 349.5 206 c 128,-1,20
 370 206 370 206 378.5 218.5 c 128,-1,21
 387 231 387 231 388 261 c 1,22,-1
 477 268 l 1,23,-1
 473 155 l 1,24,-1
 465 145 l 1,0,1
45 293 m 128,-1,26
 45 420 45 420 134 509 c 128,-1,27
 223 598 223 598 349 598 c 128,-1,28
 475 598 475 598 564.5 508.5 c 128,-1,29
 654 419 654 419 654 292.5 c 128,-1,30
 654 166 654 166 564.5 77 c 128,-1,31
 475 -12 475 -12 349 -12 c 128,-1,32
 223 -12 223 -12 134 77 c 128,-1,25
 45 166 45 166 45 293 c 128,-1,26
105 293 m 128,-1,34
 105 191 105 191 176.5 119 c 128,-1,35
 248 47 248 47 349 47 c 128,-1,36
 450 47 450 47 522 119 c 128,-1,37
 594 191 594 191 594 293 c 128,-1,38
 594 395 594 395 522 467 c 128,-1,39
 450 539 450 539 349 539 c 128,-1,40
 248 539 248 539 176.5 467 c 128,-1,33
 105 395 105 395 105 293 c 128,-1,34
EndSplineSet
EndChar

StartChar: ordfeminine
Encoding: 170 170 108
Width: 363
GlyphClass: 2
Flags: W
LayerCount: 2
Fore
SplineSet
323 554 m 1,0,-1
 308 441 l 1,1,2
 308 419 308 419 327 419 c 1,3,-1
 348 423 l 1,4,-1
 360 404 l 1,5,6
 316 325 316 325 284 319 c 1,7,8
 210 319 210 319 204 367 c 1,9,-1
 195 371 l 1,10,11
 146 322 146 322 118 322 c 0,12,13
 75 322 75 322 45 356.5 c 128,-1,14
 15 391 15 391 15 440 c 0,15,16
 15 462 15 462 27.5 478 c 128,-1,17
 40 494 40 494 60 499 c 1,18,-1
 196 521 l 1,19,20
 195 540 195 540 179.5 551.5 c 128,-1,21
 164 563 164 563 144 563 c 0,22,23
 109 563 109 563 61 535 c 1,24,-1
 52 539 l 1,25,-1
 34 596 l 1,26,27
 144 653 144 653 181 653 c 0,28,29
 257 653 257 653 290 624.5 c 128,-1,30
 323 596 323 596 323 554 c 1,0,-1
139 448 m 0,31,32
 139 413 139 413 164 413 c 2,33,-1
 194 413 l 1,34,-1
 195 469 l 1,35,-1
 150 461 l 2,36,37
 139 459 139 459 139 448 c 0,31,32
EndSplineSet
EndChar

StartChar: guillemotleft
Encoding: 171 171 109
Width: 476
GlyphClass: 2
Flags: W
LayerCount: 2
Fore
SplineSet
372 422 m 1,0,-1
 434 387 l 1,1,-1
 441 364 l 1,2,3
 423 334 423 334 372 232 c 1,4,5
 414 148 414 148 441 101 c 1,6,-1
 434 78 l 1,7,-1
 372 42 l 1,8,9
 301 127 301 127 216 219 c 1,10,-1
 216 246 l 1,11,12
 303 339 303 339 372 422 c 1,0,-1
166 422 m 1,13,-1
 228 387 l 1,14,-1
 235 364 l 1,15,16
 217 334 217 334 166 232 c 1,17,18
 208 148 208 148 235 101 c 1,19,-1
 228 78 l 1,20,-1
 166 42 l 1,21,22
 95 127 95 127 10 219 c 1,23,-1
 10 246 l 1,24,25
 97 339 97 339 166 422 c 1,13,-1
EndSplineSet
EndChar

StartChar: logicalnot
Encoding: 172 172 110
Width: 506
GlyphClass: 2
Flags: W
LayerCount: 2
Fore
SplineSet
453 359 m 1,0,-1
 460 344 l 1,1,2
 448 266 448 266 447 164 c 1,3,-1
 448 29 l 1,4,-1
 313 11 l 1,5,-1
 300 20 l 1,6,7
 300 111 300 111 301 207 c 1,8,-1
 250 207 l 1,9,-1
 24 206 l 1,10,-1
 15 219 l 1,11,-1
 33 354 l 1,12,13
 173 353 173 353 262 353 c 1,14,-1
 453 359 l 1,0,-1
EndSplineSet
EndChar

StartChar: registered
Encoding: 174 174 111
Width: 468
GlyphClass: 2
Flags: W
LayerCount: 2
Fore
SplineSet
30 507 m 128,-1,1
 30 592 30 592 89.5 651.5 c 128,-1,2
 149 711 149 711 234 711 c 128,-1,3
 319 711 319 711 378.5 651.5 c 128,-1,4
 438 592 438 592 438 507 c 128,-1,5
 438 422 438 422 378.5 362.5 c 128,-1,6
 319 303 319 303 234 303 c 128,-1,7
 149 303 149 303 89.5 362.5 c 128,-1,0
 30 422 30 422 30 507 c 128,-1,1
72 507 m 128,-1,9
 72 440 72 440 119.5 392.5 c 128,-1,10
 167 345 167 345 234 345 c 128,-1,11
 301 345 301 345 348.5 392.5 c 128,-1,12
 396 440 396 440 396 507 c 128,-1,13
 396 574 396 574 348.5 621.5 c 128,-1,14
 301 669 301 669 234 669 c 128,-1,15
 167 669 167 669 119.5 621.5 c 128,-1,8
 72 574 72 574 72 507 c 128,-1,9
157 468 m 2,16,-1
 157 571 l 2,17,18
 157 589 157 589 149 589 c 2,19,-1
 138 588 l 1,20,-1
 135 590 l 1,21,-1
 138 615 l 1,22,-1
 192 615 l 2,23,24
 213 615 213 615 233 617 c 1,25,26
 324 617 324 617 324 560 c 0,27,28
 324 523 324 523 287 501 c 1,29,-1
 307 469 l 1,30,31
 320 443 320 443 337 441 c 1,32,-1
 339 438 l 1,33,-1
 340 425 l 2,34,35
 340 420 340 420 337 419 c 0,36,37
 323 413 323 413 300 412.5 c 128,-1,38
 277 412 277 412 269 416.5 c 128,-1,39
 261 421 261 421 253 439 c 2,40,-1
 234 486 l 1,41,-1
 217 486 l 1,42,-1
 217 465 l 2,43,44
 217 450 217 450 220.5 447 c 128,-1,45
 224 444 224 444 232 443 c 128,-1,46
 240 442 240 442 240.5 442 c 128,-1,47
 241 442 241 442 241 441 c 2,48,-1
 238 415 l 1,49,50
 204 417 204 417 191 417 c 2,51,-1
 179 417 l 1,52,-1
 134 414 l 1,53,-1
 137 441 l 1,54,55
 157 445 157 445 157 468 c 2,16,-1
218 524 m 1,56,-1
 242 523 l 1,57,58
 260 529 260 529 260 554 c 128,-1,59
 260 579 260 579 226 579 c 0,60,61
 221 579 221 579 221 571 c 2,62,-1
 218 524 l 1,56,-1
EndSplineSet
EndChar

StartChar: macron
Encoding: 175 175 112
Width: 398
GlyphClass: 2
Flags: W
LayerCount: 2
Fore
SplineSet
347 693 m 1,0,-1
 358 675 l 1,1,-1
 340 566 l 1,2,-1
 66 564 l 1,3,-1
 50 579 l 1,4,-1
 69 688 l 1,5,6
 164 687 164 687 223 687 c 1,7,-1
 347 693 l 1,0,-1
EndSplineSet
EndChar

StartChar: degree
Encoding: 176 176 113
Width: 302
GlyphClass: 2
Flags: W
LayerCount: 2
Fore
SplineSet
16 524 m 128,-1,1
 16 580 16 580 55.5 619.5 c 128,-1,2
 95 659 95 659 151 659 c 128,-1,3
 207 659 207 659 246.5 619.5 c 128,-1,4
 286 580 286 580 286 524 c 128,-1,5
 286 468 286 468 246.5 428.5 c 128,-1,6
 207 389 207 389 151 389 c 128,-1,7
 95 389 95 389 55.5 428.5 c 128,-1,0
 16 468 16 468 16 524 c 128,-1,1
107.5 567 m 128,-1,9
 91 550 91 550 91 523.5 c 128,-1,10
 91 497 91 497 107.5 480.5 c 128,-1,11
 124 464 124 464 150.5 464 c 128,-1,12
 177 464 177 464 194 480.5 c 128,-1,13
 211 497 211 497 211 523.5 c 128,-1,14
 211 550 211 550 194 567 c 128,-1,15
 177 584 177 584 150.5 584 c 128,-1,8
 124 584 124 584 107.5 567 c 128,-1,9
EndSplineSet
EndChar

StartChar: plusminus
Encoding: 177 177 114
Width: 506
GlyphClass: 2
Flags: W
LayerCount: 2
Fore
SplineSet
477 200 m 1,0,-1
 321 199 l 1,1,-1
 322 58 l 1,2,-1
 192 40 l 1,3,-1
 179 49 l 1,4,5
 179 123 179 123 180 199 c 1,6,-1
 24 198 l 1,7,-1
 15 211 l 1,8,-1
 33 346 l 1,9,10
 106 345 106 345 180 345 c 1,11,-1
 181 502 l 1,12,-1
 312 515 l 1,13,-1
 327 508 l 1,14,15
 323 420 323 420 321 345 c 1,16,-1
 483 351 l 1,17,-1
 490 336 l 1,18,-1
 477 200 l 1,0,-1
460 -123 m 1,19,-1
 42 -124 l 1,20,-1
 31 -105 l 1,21,-1
 42 0 l 1,22,-1
 377 0 l 1,23,-1
 464 2 l 1,24,-1
 474 -17 l 1,25,-1
 460 -123 l 1,19,-1
EndSplineSet
EndChar

StartChar: two.sups
Encoding: 178 178 115
Width: 377
GlyphClass: 2
Flags: W
LayerCount: 2
Fore
SplineSet
170 582 m 128,-1,1
 170 610 170 610 134.5 610 c 128,-1,2
 99 610 99 610 58 566 c 1,3,-1
 45 566 l 1,4,-1
 27 652 l 1,5,6
 57 687 57 687 97.5 707.5 c 128,-1,7
 138 728 138 728 188.5 728 c 128,-1,8
 239 728 239 728 276.5 700 c 128,-1,9
 314 672 314 672 314 626 c 128,-1,10
 314 580 314 580 287 536 c 128,-1,11
 260 492 260 492 191 425 c 1,12,-1
 194 419 l 1,13,-1
 225 419 l 2,14,15
 251 419 251 419 262.5 432.5 c 128,-1,16
 274 446 274 446 276 480 c 1,17,-1
 363 486 l 1,18,19
 348 393 348 393 345 332 c 1,20,-1
 332 319 l 1,21,22
 168 327 168 327 95 327 c 1,23,-1
 26 323 l 1,24,-1
 19 396 l 1,25,-1
 113 493 l 1,26,0
 170 554 170 554 170 582 c 128,-1,1
EndSplineSet
EndChar

StartChar: three.sups
Encoding: 179 179 116
Width: 329
GlyphClass: 2
Flags: W
LayerCount: 2
Fore
SplineSet
94 418 m 0,0,1
 159 418 159 418 159 453 c 0,2,3
 159 481 159 481 86 481 c 1,4,-1
 77 492 l 1,5,-1
 69 558 l 1,6,-1
 114 566 l 1,7,8
 151 580 151 580 151 612 c 0,9,10
 151 634 151 634 123 634 c 128,-1,11
 95 634 95 634 53 607 c 1,12,-1
 42 607 l 1,13,-1
 18 681 l 1,14,15
 50 703 50 703 91.5 715.5 c 128,-1,16
 133 728 133 728 176 728 c 128,-1,17
 219 728 219 728 252 705.5 c 128,-1,18
 285 683 285 683 285 649 c 128,-1,19
 285 615 285 615 264 591.5 c 128,-1,20
 243 568 243 568 208 558 c 1,21,-1
 208 550 l 1,22,23
 260 532 260 532 283.5 508 c 128,-1,24
 307 484 307 484 307 449 c 0,25,26
 307 398 307 398 239.5 358.5 c 128,-1,27
 172 319 172 319 85 319 c 0,28,29
 49 319 49 319 33.5 340 c 128,-1,30
 18 361 18 361 13 414 c 1,31,-1
 30 431 l 1,32,33
 59 418 59 418 94 418 c 0,0,1
EndSplineSet
EndChar

StartChar: acute
Encoding: 180 180 117
Width: 398
GlyphClass: 2
Flags: W
LayerCount: 2
Fore
SplineSet
375 659 m 1,0,-1
 373 642 l 1,1,2
 265 586 265 586 162 525 c 1,3,-1
 140 532 l 1,4,-1
 99 593 l 1,5,-1
 286 760 l 1,6,-1
 303 760 l 1,7,-1
 375 659 l 1,0,-1
EndSplineSet
EndChar

StartChar: mu
Encoding: 181 181 118
AltUni2: 0003bc.ffffffff.0
Width: 546
GlyphClass: 2
Flags: W
LayerCount: 2
Fore
SplineSet
190 -65 m 1,0,-1
 191 -105 l 1,1,-1
 197 -205 l 1,2,-1
 189 -217 l 1,3,-1
 33 -242 l 1,4,-1
 18 -228 l 1,5,6
 32 -88 32 -88 38 73 c 2,7,-1
 47 325 l 1,8,9
 47 375 47 375 35 427 c 1,10,-1
 45 455 l 1,11,-1
 227 484 l 1,12,-1
 240 462 l 1,13,14
 228 439 228 439 220 362.5 c 128,-1,15
 212 286 212 286 212 196 c 0,16,17
 212 134 212 134 255 134 c 0,18,19
 274 134 274 134 301 150 c 1,20,-1
 301 323 l 2,21,22
 301 375 301 375 288 425 c 1,23,-1
 298 452 l 1,24,-1
 492 480 l 1,25,-1
 506 458 l 1,26,27
 492 435 492 435 482.5 351 c 128,-1,28
 473 267 473 267 473 163 c 0,29,30
 473 147 473 147 481 137.5 c 128,-1,31
 489 128 489 128 503 128 c 128,-1,32
 517 128 517 128 535 136 c 1,33,-1
 552 110 l 1,34,35
 549 104 549 104 531.5 80 c 128,-1,36
 514 56 514 56 500 41 c 0,37,38
 463 1 463 1 429 -12 c 1,39,40
 325 -12 325 -12 312 61 c 1,41,-1
 302 66 l 1,42,43
 245 -10 245 -10 226 -10 c 128,-1,44
 207 -10 207 -10 195 -3 c 1,45,-1
 190 -6 l 1,46,-1
 190 -65 l 1,0,-1
EndSplineSet
EndChar

StartChar: paragraph
Encoding: 182 182 119
Width: 574
GlyphClass: 2
Flags: W
LayerCount: 2
Fore
SplineSet
249 652 m 1,0,-1
 410 647 l 1,1,-1
 574 650 l 1,2,-1
 568 566 l 1,3,-1
 566 562 l 1,4,5
 538 555 538 555 530.5 547 c 128,-1,6
 523 539 523 539 520 511.5 c 128,-1,7
 517 484 517 484 513 371.5 c 128,-1,8
 509 259 509 259 509 190 c 0,9,10
 509 79 509 79 422 -7.5 c 128,-1,11
 335 -94 335 -94 224 -94 c 0,12,13
 166 -94 166 -94 122 -64 c 128,-1,14
 78 -34 78 -34 78 5 c 0,15,16
 78 33 78 33 91.5 71 c 128,-1,17
 105 109 105 109 124 135 c 1,18,-1
 142 135 l 1,19,20
 149 78 149 78 175.5 45 c 128,-1,21
 202 12 202 12 242.5 12 c 128,-1,22
 283 12 283 12 301 33.5 c 128,-1,23
 319 55 319 55 319 106 c 2,24,-1
 319 545 l 2,25,26
 319 554 319 554 313.5 557 c 128,-1,27
 308 560 308 560 291 560 c 0,28,29
 232 560 232 560 232 420 c 0,30,31
 232 361 232 361 245.5 319 c 128,-1,32
 259 277 259 277 292 232 c 1,33,-1
 292 197 l 1,34,35
 162 197 162 197 83.5 258.5 c 128,-1,36
 5 320 5 320 5 421 c 128,-1,37
 5 522 5 522 73.5 587 c 128,-1,38
 142 652 142 652 249 652 c 1,0,-1
EndSplineSet
EndChar

StartChar: periodcentered
Encoding: 183 183 120
Width: 238
GlyphClass: 2
Flags: W
LayerCount: 2
Fore
SplineSet
189 182 m 128,-1,1
 162 154 162 154 115.5 154 c 128,-1,2
 69 154 69 154 45 178.5 c 128,-1,3
 21 203 21 203 21 250 c 128,-1,4
 21 297 21 297 48.5 325 c 128,-1,5
 76 353 76 353 121.5 353 c 128,-1,6
 167 353 167 353 191.5 328 c 128,-1,7
 216 303 216 303 216 256.5 c 128,-1,0
 216 210 216 210 189 182 c 128,-1,1
EndSplineSet
EndChar

StartChar: cedilla
Encoding: 184 184 121
Width: 398
GlyphClass: 2
Flags: W
LayerCount: 2
Fore
SplineSet
207 -38 m 1,0,1
 315 -89 315 -89 315 -148 c 0,2,3
 315 -184 315 -184 272 -213 c 128,-1,4
 229 -242 229 -242 167 -242 c 0,5,6
 135 -242 135 -242 107 -227.5 c 128,-1,7
 79 -213 79 -213 79 -191 c 128,-1,8
 79 -169 79 -169 128 -120 c 1,9,-1
 137 -120 l 1,10,11
 138 -147 138 -147 151 -161.5 c 128,-1,12
 164 -176 164 -176 191 -176 c 128,-1,13
 218 -176 218 -176 218 -152.5 c 128,-1,14
 218 -129 218 -129 131 -87 c 1,15,-1
 162 35 l 1,16,-1
 223 35 l 1,17,-1
 207 -38 l 1,0,1
EndSplineSet
EndChar

StartChar: one.sups
Encoding: 185 185 122
Width: 283
GlyphClass: 2
Flags: W
LayerCount: 2
Fore
SplineSet
210 433 m 0,0,1
 210 390 210 390 236 390 c 2,2,-1
 265 391 l 1,3,-1
 268 387 l 1,4,-1
 258 323 l 1,5,6
 186 327 186 327 149 327 c 1,7,-1
 15 320 l 1,8,-1
 21 378 l 1,9,10
 82 384 82 384 82 422 c 2,11,-1
 82 606 l 2,12,13
 82 629 82 629 76 636.5 c 128,-1,14
 70 644 70 644 50 644 c 2,15,-1
 18 643 l 1,16,-1
 12 650 l 1,17,-1
 17 703 l 1,18,19
 33 704 33 704 49 706 c 128,-1,20
 65 708 65 708 96.5 711.5 c 128,-1,21
 128 715 128 715 147.5 717 c 128,-1,22
 167 719 167 719 181.5 721 c 128,-1,23
 196 723 196 723 208.5 724.5 c 128,-1,24
 221 726 221 726 235 728 c 1,25,-1
 247 696 l 1,26,27
 228 682 228 682 219 650 c 128,-1,28
 210 618 210 618 210 433 c 0,0,1
EndSplineSet
EndChar

StartChar: ordmasculine
Encoding: 186 186 123
Width: 372
GlyphClass: 2
Flags: W
LayerCount: 2
Fore
SplineSet
308.5 365 m 128,-1,1
 263 319 263 319 183.5 319 c 128,-1,2
 104 319 104 319 61 361.5 c 128,-1,3
 18 404 18 404 18 483 c 128,-1,4
 18 562 18 562 64 607.5 c 128,-1,5
 110 653 110 653 191 653 c 128,-1,6
 272 653 272 653 313 612 c 128,-1,7
 354 571 354 571 354 491 c 128,-1,0
 354 411 354 411 308.5 365 c 128,-1,1
163.5 418.5 m 128,-1,9
 169 396 169 396 185.5 396 c 128,-1,10
 202 396 202 396 207 407.5 c 128,-1,11
 212 419 212 419 212 471 c 128,-1,12
 212 523 212 523 206.5 545 c 128,-1,13
 201 567 201 567 184.5 567 c 128,-1,14
 168 567 168 567 163 556 c 128,-1,15
 158 545 158 545 158 493 c 128,-1,8
 158 441 158 441 163.5 418.5 c 128,-1,9
EndSplineSet
EndChar

StartChar: guillemotright
Encoding: 187 187 124
Width: 476
GlyphClass: 2
Flags: W
LayerCount: 2
Fore
SplineSet
310 42 m 1,0,-1
 248 77 l 1,1,-1
 241 100 l 1,2,3
 259 130 259 130 310 232 c 1,4,5
 268 316 268 316 241 363 c 1,6,-1
 248 386 l 1,7,-1
 310 422 l 1,8,9
 381 337 381 337 466 245 c 1,10,-1
 466 218 l 1,11,12
 379 125 379 125 310 42 c 1,0,-1
104 42 m 1,13,-1
 42 77 l 1,14,-1
 35 100 l 1,15,16
 53 130 53 130 104 232 c 1,17,18
 62 316 62 316 35 363 c 1,19,-1
 42 386 l 1,20,-1
 104 422 l 1,21,22
 175 337 175 337 260 245 c 1,23,-1
 260 218 l 1,24,25
 173 125 173 125 104 42 c 1,13,-1
EndSplineSet
EndChar

StartChar: onequarter
Encoding: 188 188 125
Width: 845
GlyphClass: 2
Flags: W
LayerCount: 2
Fore
SplineSet
771 169 m 1,0,-1
 816 169 l 1,1,-1
 824 159 l 1,2,-1
 816 78 l 1,3,-1
 772 79 l 1,4,-1
 776 8 l 1,5,-1
 767 0 l 1,6,-1
 646 -8 l 1,7,-1
 639 0 l 1,8,9
 642 40 642 40 643 83 c 1,10,-1
 488 85 l 1,11,-1
 489 157 l 1,12,-1
 658 399 l 1,13,-1
 665 401 l 1,14,-1
 771 392 l 1,15,-1
 771 169 l 1,0,-1
644 169 m 1,16,-1
 644 250 l 1,17,-1
 636 250 l 1,18,-1
 585 169 l 1,19,-1
 644 169 l 1,16,-1
210 360 m 0,20,21
 210 317 210 317 236 317 c 2,22,-1
 265 318 l 1,23,-1
 268 314 l 1,24,-1
 258 250 l 1,25,26
 186 254 186 254 149 254 c 1,27,-1
 15 247 l 1,28,-1
 21 305 l 1,29,30
 82 311 82 311 82 349 c 2,31,-1
 82 533 l 2,32,33
 82 556 82 556 76 563.5 c 128,-1,34
 70 571 70 571 50 571 c 2,35,-1
 18 570 l 1,36,-1
 12 577 l 1,37,-1
 17 630 l 1,38,39
 33 631 33 631 49 633 c 128,-1,40
 65 635 65 635 96.5 638.5 c 128,-1,41
 128 642 128 642 147.5 644 c 128,-1,42
 167 646 167 646 181.5 648 c 128,-1,43
 196 650 196 650 208.5 651.5 c 128,-1,44
 221 653 221 653 235 655 c 1,45,-1
 247 623 l 1,46,47
 228 609 228 609 219 576.5 c 128,-1,48
 210 544 210 544 210 360 c 0,20,21
672 647 m 1,49,-1
 682 623 l 1,50,51
 503 346 503 346 412 207 c 1,52,-1
 223 -91 l 1,53,-1
 130 -56 l 1,54,-1
 124 -39 l 1,55,56
 235 121 235 121 318 253 c 2,57,-1
 585 679 l 1,58,-1
 672 647 l 1,49,-1
EndSplineSet
EndChar

StartChar: onehalf
Encoding: 189 189 126
Width: 877
GlyphClass: 2
Flags: W
LayerCount: 2
Fore
SplineSet
210 360 m 0,0,1
 210 317 210 317 236 317 c 2,2,-1
 265 318 l 1,3,-1
 268 314 l 1,4,-1
 258 250 l 1,5,6
 186 254 186 254 149 254 c 1,7,-1
 15 247 l 1,8,-1
 21 305 l 1,9,10
 82 311 82 311 82 349 c 2,11,-1
 82 533 l 2,12,13
 82 556 82 556 76 563.5 c 128,-1,14
 70 571 70 571 50 571 c 2,15,-1
 18 570 l 1,16,-1
 12 577 l 1,17,-1
 17 630 l 1,18,19
 33 631 33 631 49 633 c 128,-1,20
 65 635 65 635 96.5 638.5 c 128,-1,21
 128 642 128 642 147.5 644 c 128,-1,22
 167 646 167 646 181.5 648 c 128,-1,23
 196 650 196 650 208.5 651.5 c 128,-1,24
 221 653 221 653 235 655 c 1,25,-1
 247 623 l 1,26,27
 228 609 228 609 219 576.5 c 128,-1,28
 210 544 210 544 210 360 c 0,0,1
672 647 m 1,29,-1
 682 623 l 1,30,31
 503 346 503 346 412 207 c 1,32,-1
 223 -91 l 1,33,-1
 130 -56 l 1,34,-1
 124 -39 l 1,35,36
 235 121 235 121 318 253 c 2,37,-1
 585 679 l 1,38,-1
 672 647 l 1,29,-1
670 255 m 128,-1,40
 670 283 670 283 634.5 283 c 128,-1,41
 599 283 599 283 558 239 c 1,42,-1
 545 239 l 1,43,-1
 527 325 l 1,44,45
 557 360 557 360 597.5 380.5 c 128,-1,46
 638 401 638 401 688.5 401 c 128,-1,47
 739 401 739 401 776.5 373 c 128,-1,48
 814 345 814 345 814 299 c 128,-1,49
 814 253 814 253 787 209 c 128,-1,50
 760 165 760 165 691 98 c 1,51,-1
 694 92 l 1,52,-1
 725 92 l 2,53,54
 751 92 751 92 762.5 105.5 c 128,-1,55
 774 119 774 119 776 153 c 1,56,-1
 863 159 l 1,57,58
 848 66 848 66 845 5 c 1,59,-1
 832 -8 l 1,60,61
 668 0 668 0 595 0 c 1,62,-1
 526 -4 l 1,63,-1
 519 69 l 1,64,-1
 613 166 l 1,65,39
 670 227 670 227 670 255 c 128,-1,40
EndSplineSet
EndChar

StartChar: threequarters
Encoding: 190 190 127
Width: 841
GlyphClass: 2
Flags: W
LayerCount: 2
Fore
SplineSet
767 169 m 1,0,-1
 812 169 l 1,1,-1
 820 159 l 1,2,-1
 812 78 l 1,3,-1
 768 79 l 1,4,-1
 772 8 l 1,5,-1
 763 0 l 1,6,-1
 642 -8 l 1,7,-1
 635 0 l 1,8,9
 638 40 638 40 639 83 c 1,10,-1
 484 85 l 1,11,-1
 485 157 l 1,12,-1
 654 399 l 1,13,-1
 661 401 l 1,14,-1
 767 392 l 1,15,-1
 767 169 l 1,0,-1
640 169 m 1,16,-1
 640 250 l 1,17,-1
 632 250 l 1,18,-1
 581 169 l 1,19,-1
 640 169 l 1,16,-1
94 345 m 0,20,21
 159 345 159 345 159 380 c 0,22,23
 159 408 159 408 86 408 c 1,24,-1
 77 419 l 1,25,-1
 69 485 l 1,26,-1
 114 493 l 1,27,28
 151 507 151 507 151 539 c 0,29,30
 151 561 151 561 123 561 c 128,-1,31
 95 561 95 561 53 534 c 1,32,-1
 42 534 l 1,33,-1
 18 608 l 1,34,35
 50 630 50 630 91.5 642.5 c 128,-1,36
 133 655 133 655 176 655 c 128,-1,37
 219 655 219 655 252 632.5 c 128,-1,38
 285 610 285 610 285 576 c 128,-1,39
 285 542 285 542 264 518.5 c 128,-1,40
 243 495 243 495 208 485 c 1,41,-1
 208 477 l 1,42,43
 260 459 260 459 283.5 435 c 128,-1,44
 307 411 307 411 307 376 c 0,45,46
 307 325 307 325 239.5 285.5 c 128,-1,47
 172 246 172 246 85 246 c 0,48,49
 49 246 49 246 33.5 267 c 128,-1,50
 18 288 18 288 13 341 c 1,51,-1
 30 358 l 1,52,53
 59 345 59 345 94 345 c 0,20,21
668 647 m 1,54,-1
 678 623 l 1,55,56
 499 346 499 346 408 207 c 1,57,-1
 219 -91 l 1,58,-1
 126 -56 l 1,59,-1
 120 -39 l 1,60,61
 231 121 231 121 314 253 c 2,62,-1
 581 679 l 1,63,-1
 668 647 l 1,54,-1
EndSplineSet
EndChar

StartChar: questiondown
Encoding: 191 191 128
Width: 381
GlyphClass: 2
Flags: W
LayerCount: 2
Fore
SplineSet
212 40 m 1,0,1
 165 14 165 14 165 -19 c 128,-1,2
 165 -52 165 -52 207.5 -72.5 c 128,-1,3
 250 -93 250 -93 328 -96 c 1,4,-1
 342 -114 l 1,5,-1
 301 -232 l 1,6,-1
 284 -241 l 1,7,8
 157 -238 157 -238 72.5 -186 c 128,-1,9
 -12 -134 -12 -134 -12 -59 c 0,10,11
 -12 -7 -12 -7 19.5 30.5 c 128,-1,12
 51 68 51 68 151 134 c 1,13,-1
 154 140 l 1,14,-1
 146 209 l 1,15,-1
 155 223 l 1,16,-1
 273 243 l 1,17,-1
 288 235 l 1,18,-1
 312 102 l 1,19,-1
 309 87 l 1,20,-1
 212 40 l 1,0,1
146 456 m 128,-1,22
 173 484 173 484 219.5 484 c 128,-1,23
 266 484 266 484 290 459.5 c 128,-1,24
 314 435 314 435 314 388 c 128,-1,25
 314 341 314 341 286.5 313 c 128,-1,26
 259 285 259 285 213.5 285 c 128,-1,27
 168 285 168 285 143.5 310 c 128,-1,28
 119 335 119 335 119 381.5 c 128,-1,21
 119 428 119 428 146 456 c 128,-1,22
EndSplineSet
EndChar

StartChar: Agrave
Encoding: 192 192 129
Width: 676
GlyphClass: 2
Flags: W
LayerCount: 2
Fore
SplineSet
395 178 m 1,0,1
 341 180 341 180 322 180 c 128,-1,2
 303 180 303 180 238 175 c 1,3,4
 225 118 225 118 225 107 c 128,-1,5
 225 96 225 96 230.5 92.5 c 128,-1,6
 236 89 236 89 256 89 c 2,7,-1
 282 89 l 1,8,-1
 290 79 l 1,9,-1
 282 -4 l 1,10,11
 189 -1 189 -1 128 -1 c 2,12,-1
 -5 -2 l 1,13,-1
 2 85 l 1,14,15
 38 94 38 94 53 140 c 2,16,-1
 212 642 l 1,17,-1
 475 658 l 1,18,-1
 490 646 l 1,19,20
 586 261 586 261 615 153 c 0,21,22
 624 119 624 119 637.5 103.5 c 128,-1,23
 651 88 651 88 674 86 c 1,24,-1
 681 76 l 1,25,-1
 673 -3 l 1,26,27
 587 -1 587 -1 532 -1 c 1,28,-1
 341 -6 l 1,29,-1
 333 3 l 1,30,-1
 339 87 l 1,31,32
 385 92 385 92 394 97 c 128,-1,33
 403 102 403 102 403 114 c 128,-1,34
 403 126 403 126 395 178 c 1,0,1
321 301 m 2,35,36
 337 301 337 301 373 303 c 1,37,-1
 339 478 l 1,38,-1
 317 478 l 1,39,-1
 270 301 l 1,40,-1
 321 301 l 2,35,36
165 746 m 1,41,-1
 158 762 l 1,42,-1
 194 870 l 1,43,-1
 210 875 l 1,44,45
 336 821 336 821 459 775 c 1,46,-1
 438 704 l 1,47,-1
 419 691 l 1,48,49
 326 715 326 715 165 746 c 1,41,-1
EndSplineSet
EndChar

StartChar: Aacute
Encoding: 193 193 130
Width: 676
GlyphClass: 2
Flags: W
LayerCount: 2
Fore
SplineSet
395 178 m 1,0,1
 341 180 341 180 322 180 c 128,-1,2
 303 180 303 180 238 175 c 1,3,4
 225 118 225 118 225 107 c 128,-1,5
 225 96 225 96 230.5 92.5 c 128,-1,6
 236 89 236 89 256 89 c 2,7,-1
 282 89 l 1,8,-1
 290 79 l 1,9,-1
 282 -4 l 1,10,11
 189 -1 189 -1 128 -1 c 2,12,-1
 -5 -2 l 1,13,-1
 2 85 l 1,14,15
 38 94 38 94 53 140 c 2,16,-1
 212 642 l 1,17,-1
 475 658 l 1,18,-1
 490 646 l 1,19,20
 586 261 586 261 615 153 c 0,21,22
 624 119 624 119 637.5 103.5 c 128,-1,23
 651 88 651 88 674 86 c 1,24,-1
 681 76 l 1,25,-1
 673 -3 l 1,26,27
 587 -1 587 -1 532 -1 c 1,28,-1
 341 -6 l 1,29,-1
 333 3 l 1,30,-1
 339 87 l 1,31,32
 385 92 385 92 394 97 c 128,-1,33
 403 102 403 102 403 114 c 128,-1,34
 403 126 403 126 395 178 c 1,0,1
321 301 m 2,35,36
 337 301 337 301 373 303 c 1,37,-1
 339 478 l 1,38,-1
 317 478 l 1,39,-1
 270 301 l 1,40,-1
 321 301 l 2,35,36
530 762 m 1,41,-1
 523 746 l 1,42,43
 393 722 393 722 269 691 c 1,44,-1
 250 704 l 1,45,-1
 229 775 l 1,46,47
 332 813 332 813 478 875 c 1,48,-1
 494 870 l 1,49,-1
 530 762 l 1,41,-1
EndSplineSet
EndChar

StartChar: Acircumflex
Encoding: 194 194 131
Width: 676
GlyphClass: 2
Flags: W
LayerCount: 2
Fore
SplineSet
395 178 m 1,0,1
 341 180 341 180 322 180 c 128,-1,2
 303 180 303 180 238 175 c 1,3,4
 225 118 225 118 225 107 c 128,-1,5
 225 96 225 96 230.5 92.5 c 128,-1,6
 236 89 236 89 256 89 c 2,7,-1
 282 89 l 1,8,-1
 290 79 l 1,9,-1
 282 -4 l 1,10,11
 189 -1 189 -1 128 -1 c 2,12,-1
 -5 -2 l 1,13,-1
 2 85 l 1,14,15
 38 94 38 94 53 140 c 2,16,-1
 212 642 l 1,17,-1
 475 658 l 1,18,-1
 490 646 l 1,19,20
 586 261 586 261 615 153 c 0,21,22
 624 119 624 119 637.5 103.5 c 128,-1,23
 651 88 651 88 674 86 c 1,24,-1
 681 76 l 1,25,-1
 673 -3 l 1,26,27
 587 -1 587 -1 532 -1 c 1,28,-1
 341 -6 l 1,29,-1
 333 3 l 1,30,-1
 339 87 l 1,31,32
 385 92 385 92 394 97 c 128,-1,33
 403 102 403 102 403 114 c 128,-1,34
 403 126 403 126 395 178 c 1,0,1
321 301 m 2,35,36
 337 301 337 301 373 303 c 1,37,-1
 339 478 l 1,38,-1
 317 478 l 1,39,-1
 270 301 l 1,40,-1
 321 301 l 2,35,36
357 888 m 1,41,42
 357 891 357 891 382 871 c 0,43,44
 481 790 481 790 533 750 c 1,45,-1
 498 688 l 1,46,-1
 475 681 l 1,47,48
 428 701 428 701 343 732 c 1,49,50
 291 713 291 713 212 681 c 1,51,-1
 189 688 l 1,52,-1
 153 750 l 1,53,54
 236 810 236 810 330 888 c 1,55,-1
 357 888 l 1,41,42
EndSplineSet
EndChar

StartChar: Atilde
Encoding: 195 195 132
Width: 676
GlyphClass: 2
Flags: W
LayerCount: 2
Fore
SplineSet
395 178 m 1,0,1
 341 180 341 180 322 180 c 128,-1,2
 303 180 303 180 238 175 c 1,3,4
 225 118 225 118 225 107 c 128,-1,5
 225 96 225 96 230.5 92.5 c 128,-1,6
 236 89 236 89 256 89 c 2,7,-1
 282 89 l 1,8,-1
 290 79 l 1,9,-1
 282 -4 l 1,10,11
 189 -1 189 -1 128 -1 c 2,12,-1
 -5 -2 l 1,13,-1
 2 85 l 1,14,15
 38 94 38 94 53 140 c 2,16,-1
 212 642 l 1,17,-1
 475 658 l 1,18,-1
 490 646 l 1,19,20
 586 261 586 261 615 153 c 0,21,22
 624 119 624 119 637.5 103.5 c 128,-1,23
 651 88 651 88 674 86 c 1,24,-1
 681 76 l 1,25,-1
 673 -3 l 1,26,27
 587 -1 587 -1 532 -1 c 1,28,-1
 341 -6 l 1,29,-1
 333 3 l 1,30,-1
 339 87 l 1,31,32
 385 92 385 92 394 97 c 128,-1,33
 403 102 403 102 403 114 c 128,-1,34
 403 126 403 126 395 178 c 1,0,1
321 301 m 2,35,36
 337 301 337 301 373 303 c 1,37,-1
 339 478 l 1,38,-1
 317 478 l 1,39,-1
 270 301 l 1,40,-1
 321 301 l 2,35,36
322 847 m 128,-1,42
 383 830 383 830 396 830 c 0,43,44
 418 830 418 830 452 874 c 1,45,-1
 464 888 l 1,46,-1
 480 888 l 1,47,-1
 539 834 l 1,48,-1
 539 818 l 1,49,-1
 458 703 l 1,50,-1
 441 699 l 1,51,52
 423 699 423 699 362 716 c 128,-1,53
 301 733 301 733 288.5 733 c 128,-1,54
 276 733 276 733 259 718.5 c 128,-1,55
 242 704 242 704 220 675 c 1,56,-1
 204 675 l 1,57,-1
 145 729 l 1,58,-1
 145 745 l 1,59,-1
 226 860 l 1,60,-1
 243 864 l 1,61,41
 261 864 261 864 322 847 c 128,-1,42
EndSplineSet
EndChar

StartChar: Adieresis
Encoding: 196 196 133
Width: 676
GlyphClass: 2
Flags: W
LayerCount: 2
Fore
SplineSet
395 178 m 1,0,1
 341 180 341 180 322 180 c 128,-1,2
 303 180 303 180 238 175 c 1,3,4
 225 118 225 118 225 107 c 128,-1,5
 225 96 225 96 230.5 92.5 c 128,-1,6
 236 89 236 89 256 89 c 2,7,-1
 282 89 l 1,8,-1
 290 79 l 1,9,-1
 282 -4 l 1,10,11
 189 -1 189 -1 128 -1 c 2,12,-1
 -5 -2 l 1,13,-1
 2 85 l 1,14,15
 38 94 38 94 53 140 c 2,16,-1
 212 642 l 1,17,-1
 475 658 l 1,18,-1
 490 646 l 1,19,20
 586 261 586 261 615 153 c 0,21,22
 624 119 624 119 637.5 103.5 c 128,-1,23
 651 88 651 88 674 86 c 1,24,-1
 681 76 l 1,25,-1
 673 -3 l 1,26,27
 587 -1 587 -1 532 -1 c 1,28,-1
 341 -6 l 1,29,-1
 333 3 l 1,30,-1
 339 87 l 1,31,32
 385 92 385 92 394 97 c 128,-1,33
 403 102 403 102 403 114 c 128,-1,34
 403 126 403 126 395 178 c 1,0,1
321 301 m 2,35,36
 337 301 337 301 373 303 c 1,37,-1
 339 478 l 1,38,-1
 317 478 l 1,39,-1
 270 301 l 1,40,-1
 321 301 l 2,35,36
435 685 m 0,41,42
 355 685 355 685 355 765 c 0,43,44
 355 805 355 805 378 828.5 c 128,-1,45
 401 852 401 852 440 852 c 128,-1,46
 479 852 479 852 499.5 831 c 128,-1,47
 520 810 520 810 520 771 c 128,-1,48
 520 732 520 732 497 708.5 c 128,-1,49
 474 685 474 685 435 685 c 0,41,42
242 685 m 0,50,51
 163 685 163 685 163 765 c 0,52,53
 163 805 163 805 186 828.5 c 128,-1,54
 209 852 209 852 248 852 c 128,-1,55
 287 852 287 852 307.5 831 c 128,-1,56
 328 810 328 810 328 771 c 128,-1,57
 328 732 328 732 305 708.5 c 128,-1,58
 282 685 282 685 242 685 c 0,50,51
EndSplineSet
EndChar

StartChar: Aring
Encoding: 197 197 134
Width: 676
GlyphClass: 2
Flags: W
LayerCount: 2
Fore
SplineSet
395 178 m 1,0,1
 341 180 341 180 322 180 c 128,-1,2
 303 180 303 180 238 175 c 1,3,4
 225 118 225 118 225 107 c 128,-1,5
 225 96 225 96 230.5 92.5 c 128,-1,6
 236 89 236 89 256 89 c 2,7,-1
 282 89 l 1,8,-1
 290 79 l 1,9,-1
 282 -4 l 1,10,11
 189 -1 189 -1 128 -1 c 2,12,-1
 -5 -2 l 1,13,-1
 2 85 l 1,14,15
 38 94 38 94 53 140 c 2,16,-1
 212 642 l 1,17,-1
 475 658 l 1,18,-1
 490 646 l 1,19,20
 586 261 586 261 615 153 c 0,21,22
 624 119 624 119 637.5 103.5 c 128,-1,23
 651 88 651 88 674 86 c 1,24,-1
 681 76 l 1,25,-1
 673 -3 l 1,26,27
 587 -1 587 -1 532 -1 c 1,28,-1
 341 -6 l 1,29,-1
 333 3 l 1,30,-1
 339 87 l 1,31,32
 385 92 385 92 394 97 c 128,-1,33
 403 102 403 102 403 114 c 128,-1,34
 403 126 403 126 395 178 c 1,0,1
321 301 m 2,35,36
 337 301 337 301 373 303 c 1,37,-1
 339 478 l 1,38,-1
 317 478 l 1,39,-1
 270 301 l 1,40,-1
 321 301 l 2,35,36
344 732 m 0,41,42
 379 732 379 732 379 765 c 0,43,44
 379 800 379 800 342 800 c 128,-1,45
 305 800 305 800 305 768 c 0,46,47
 305 749 305 749 317 740.5 c 128,-1,48
 329 732 329 732 344 732 c 0,41,42
418 695 m 128,-1,50
 388 662 388 662 338.5 662 c 128,-1,51
 289 662 289 662 262.5 690 c 128,-1,52
 236 718 236 718 236 765 c 128,-1,53
 236 812 236 812 266 842 c 128,-1,54
 296 872 296 872 347 872 c 128,-1,55
 398 872 398 872 423 844 c 128,-1,56
 448 816 448 816 448 772 c 128,-1,49
 448 728 448 728 418 695 c 128,-1,50
EndSplineSet
EndChar

StartChar: AE
Encoding: 198 198 135
Width: 938
GlyphClass: 2
Flags: W
LayerCount: 2
Fore
SplineSet
394 99.5 m 128,-1,1
 407 108 407 108 407 128 c 0,2,3
 407 151 407 151 401 219 c 1,4,-1
 326 206 l 1,5,-1
 249 183 l 1,6,7
 227 110 227 110 227 101.5 c 128,-1,8
 227 93 227 93 235.5 91 c 128,-1,9
 244 89 244 89 282 89 c 1,10,-1
 289 79 l 1,11,-1
 282 -4 l 1,12,13
 276 -1 276 -1 85 -1 c 1,14,-1
 5 -2 l 1,15,-1
 2 85 l 1,16,17
 38 94 38 94 59 140 c 1,18,-1
 225 531 l 1,19,20
 221 559 221 559 199 559 c 1,21,-1
 173 557 l 1,22,-1
 161 571 l 1,23,-1
 170 650 l 1,24,25
 333 647 333 647 551.5 648 c 128,-1,26
 770 649 770 649 847 659 c 1,27,-1
 860 643 l 1,28,29
 842 538 842 538 837 444 c 1,30,-1
 699 435 l 1,31,32
 701 459 701 459 701 472 c 0,33,34
 701 506 701 506 682.5 516.5 c 128,-1,35
 664 527 664 527 623.5 527 c 128,-1,36
 583 527 583 527 576 522 c 128,-1,37
 569 517 569 517 569 503 c 1,38,-1
 588 372 l 1,39,-1
 661 385 l 1,40,-1
 762 411 l 1,41,-1
 779 394 l 1,42,-1
 767 278 l 1,43,-1
 671 266 l 1,44,-1
 606 254 l 1,45,-1
 617 181 l 2,46,47
 627 114 627 114 672 114 c 0,48,49
 730 114 730 114 749 133.5 c 128,-1,50
 768 153 768 153 777 221 c 1,51,-1
 905 230 l 1,52,-1
 917 215 l 1,53,54
 899 118 899 118 889 9 c 1,55,-1
 874 -7 l 1,56,57
 708 0 708 0 553 0 c 2,58,-1
 511 0 l 1,59,-1
 340 -6 l 1,60,-1
 333 3 l 1,61,-1
 339 87 l 1,62,0
 381 91 381 91 394 99.5 c 128,-1,1
298 324 m 1,63,-1
 341 328 l 1,64,-1
 391 337 l 1,65,-1
 377 478 l 1,66,-1
 355 478 l 1,67,-1
 298 324 l 1,63,-1
EndSplineSet
EndChar

StartChar: Ccedilla
Encoding: 199 199 136
Width: 603
GlyphClass: 2
Flags: W
LayerCount: 2
Fore
SplineSet
15 311 m 0,0,1
 15 479 15 479 106 569 c 128,-1,2
 197 659 197 659 366 659 c 0,3,4
 442 659 442 659 576 633 c 1,5,-1
 584 613 l 1,6,7
 563 521 563 521 556 399 c 1,8,-1
 402 390 l 1,9,10
 404 416 404 416 404 451.5 c 128,-1,11
 404 487 404 487 388.5 504 c 128,-1,12
 373 521 373 521 335 521 c 0,13,14
 283 521 283 521 263 483.5 c 128,-1,15
 243 446 243 446 243 340.5 c 128,-1,16
 243 235 243 235 266.5 182.5 c 128,-1,17
 290 130 290 130 340 130 c 0,18,19
 378 130 378 130 396 156 c 128,-1,20
 414 182 414 182 419 246 c 1,21,-1
 572 256 l 1,22,23
 560 139 560 139 560 43 c 1,24,-1
 547 27 l 1,25,26
 456 -5 456 -5 343 -10 c 1,27,-1
 337 -38 l 1,28,29
 379 -58 379 -58 412 -85.5 c 128,-1,30
 445 -113 445 -113 445 -148.5 c 128,-1,31
 445 -184 445 -184 402 -213 c 128,-1,32
 359 -242 359 -242 297 -242 c 0,33,34
 265 -242 265 -242 237 -227.5 c 128,-1,35
 209 -213 209 -213 209 -191 c 128,-1,36
 209 -169 209 -169 258 -120 c 1,37,-1
 267 -120 l 1,38,39
 268 -147 268 -147 281 -161.5 c 128,-1,40
 294 -176 294 -176 321 -176 c 128,-1,41
 348 -176 348 -176 348 -152.5 c 128,-1,42
 348 -129 348 -129 261 -87 c 1,43,-1
 280 -10 l 1,44,45
 154 -1 154 -1 84.5 83 c 128,-1,46
 15 167 15 167 15 311 c 0,0,1
EndSplineSet
EndChar

StartChar: Egrave
Encoding: 200 200 137
Width: 603
GlyphClass: 2
Flags: W
LayerCount: 2
Fore
SplineSet
290 387 m 1,0,-1
 372 386 l 1,1,-1
 482 392 l 1,2,-1
 494 378 l 1,3,-1
 480 263 l 1,4,5
 406 266 406 266 372.5 266 c 128,-1,6
 339 266 339 266 285 260 c 1,7,8
 284 226 284 226 284 181 c 128,-1,9
 284 136 284 136 292.5 125.5 c 128,-1,10
 301 115 301 115 332 115 c 0,11,12
 397 115 397 115 418 134.5 c 128,-1,13
 439 154 439 154 448 221 c 1,14,-1
 576 230 l 1,15,-1
 588 215 l 1,16,17
 570 118 570 118 560 9 c 1,18,-1
 545 -7 l 1,19,20
 379 0 379 0 278 0 c 0,21,22
 133 0 133 0 13 -10 c 1,23,-1
 22 82 l 1,24,25
 60 88 60 88 73.5 106.5 c 128,-1,26
 87 125 87 125 87 170 c 2,27,-1
 88 505 l 2,28,29
 88 537 88 537 82.5 548 c 128,-1,30
 77 559 77 559 61 559 c 1,31,-1
 35 557 l 1,32,-1
 23 571 l 1,33,-1
 32 650 l 1,34,35
 174 647 174 647 326 647 c 128,-1,36
 478 647 478 647 574 659 c 1,37,-1
 587 643 l 1,38,39
 569 538 569 538 564 444 c 1,40,-1
 426 435 l 1,41,42
 428 459 428 459 428 472 c 0,43,44
 428 506 428 506 409.5 516.5 c 128,-1,45
 391 527 391 527 350 527 c 128,-1,46
 309 527 309 527 302.5 522 c 128,-1,47
 296 517 296 517 296 500 c 2,48,-1
 290 387 l 1,0,-1
150 746 m 1,49,-1
 143 762 l 1,50,-1
 179 870 l 1,51,-1
 195 875 l 1,52,53
 321 821 321 821 444 775 c 1,54,-1
 423 704 l 1,55,-1
 404 691 l 1,56,57
 311 715 311 715 150 746 c 1,49,-1
EndSplineSet
EndChar

StartChar: Eacute
Encoding: 201 201 138
Width: 603
GlyphClass: 2
Flags: W
LayerCount: 2
Fore
SplineSet
290 387 m 1,0,-1
 372 386 l 1,1,-1
 482 392 l 1,2,-1
 494 378 l 1,3,-1
 480 263 l 1,4,5
 406 266 406 266 372.5 266 c 128,-1,6
 339 266 339 266 285 260 c 1,7,8
 284 226 284 226 284 181 c 128,-1,9
 284 136 284 136 292.5 125.5 c 128,-1,10
 301 115 301 115 332 115 c 0,11,12
 397 115 397 115 418 134.5 c 128,-1,13
 439 154 439 154 448 221 c 1,14,-1
 576 230 l 1,15,-1
 588 215 l 1,16,17
 570 118 570 118 560 9 c 1,18,-1
 545 -7 l 1,19,20
 379 0 379 0 278 0 c 0,21,22
 133 0 133 0 13 -10 c 1,23,-1
 22 82 l 1,24,25
 60 88 60 88 73.5 106.5 c 128,-1,26
 87 125 87 125 87 170 c 2,27,-1
 88 505 l 2,28,29
 88 537 88 537 82.5 548 c 128,-1,30
 77 559 77 559 61 559 c 1,31,-1
 35 557 l 1,32,-1
 23 571 l 1,33,-1
 32 650 l 1,34,35
 174 647 174 647 326 647 c 128,-1,36
 478 647 478 647 574 659 c 1,37,-1
 587 643 l 1,38,39
 569 538 569 538 564 444 c 1,40,-1
 426 435 l 1,41,42
 428 459 428 459 428 472 c 0,43,44
 428 506 428 506 409.5 516.5 c 128,-1,45
 391 527 391 527 350 527 c 128,-1,46
 309 527 309 527 302.5 522 c 128,-1,47
 296 517 296 517 296 500 c 2,48,-1
 290 387 l 1,0,-1
515 762 m 1,49,-1
 508 746 l 1,50,51
 378 722 378 722 254 691 c 1,52,-1
 235 704 l 1,53,-1
 214 775 l 1,54,55
 317 813 317 813 463 875 c 1,56,-1
 479 870 l 1,57,-1
 515 762 l 1,49,-1
EndSplineSet
EndChar

StartChar: Ecircumflex
Encoding: 202 202 139
Width: 603
GlyphClass: 2
Flags: W
LayerCount: 2
Fore
SplineSet
290 387 m 1,0,-1
 372 386 l 1,1,-1
 482 392 l 1,2,-1
 494 378 l 1,3,-1
 480 263 l 1,4,5
 406 266 406 266 372.5 266 c 128,-1,6
 339 266 339 266 285 260 c 1,7,8
 284 226 284 226 284 181 c 128,-1,9
 284 136 284 136 292.5 125.5 c 128,-1,10
 301 115 301 115 332 115 c 0,11,12
 397 115 397 115 418 134.5 c 128,-1,13
 439 154 439 154 448 221 c 1,14,-1
 576 230 l 1,15,-1
 588 215 l 1,16,17
 570 118 570 118 560 9 c 1,18,-1
 545 -7 l 1,19,20
 379 0 379 0 278 0 c 0,21,22
 133 0 133 0 13 -10 c 1,23,-1
 22 82 l 1,24,25
 60 88 60 88 73.5 106.5 c 128,-1,26
 87 125 87 125 87 170 c 2,27,-1
 88 505 l 2,28,29
 88 537 88 537 82.5 548 c 128,-1,30
 77 559 77 559 61 559 c 1,31,-1
 35 557 l 1,32,-1
 23 571 l 1,33,-1
 32 650 l 1,34,35
 174 647 174 647 326 647 c 128,-1,36
 478 647 478 647 574 659 c 1,37,-1
 587 643 l 1,38,39
 569 538 569 538 564 444 c 1,40,-1
 426 435 l 1,41,42
 428 459 428 459 428 472 c 0,43,44
 428 506 428 506 409.5 516.5 c 128,-1,45
 391 527 391 527 350 527 c 128,-1,46
 309 527 309 527 302.5 522 c 128,-1,47
 296 517 296 517 296 500 c 2,48,-1
 290 387 l 1,0,-1
342 888 m 1,49,50
 342 891 342 891 366 871 c 0,51,52
 466 790 466 790 518 750 c 1,53,-1
 483 688 l 1,54,-1
 460 681 l 1,55,56
 413 701 413 701 328 732 c 1,57,58
 276 713 276 713 197 681 c 1,59,-1
 174 688 l 1,60,-1
 138 750 l 1,61,62
 221 810 221 810 315 888 c 1,63,-1
 342 888 l 1,49,50
EndSplineSet
EndChar

StartChar: Edieresis
Encoding: 203 203 140
Width: 603
GlyphClass: 2
Flags: W
LayerCount: 2
Fore
SplineSet
290 387 m 1,0,-1
 372 386 l 1,1,-1
 482 392 l 1,2,-1
 494 378 l 1,3,-1
 480 263 l 1,4,5
 406 266 406 266 372.5 266 c 128,-1,6
 339 266 339 266 285 260 c 1,7,8
 284 226 284 226 284 181 c 128,-1,9
 284 136 284 136 292.5 125.5 c 128,-1,10
 301 115 301 115 332 115 c 0,11,12
 397 115 397 115 418 134.5 c 128,-1,13
 439 154 439 154 448 221 c 1,14,-1
 576 230 l 1,15,-1
 588 215 l 1,16,17
 570 118 570 118 560 9 c 1,18,-1
 545 -7 l 1,19,20
 379 0 379 0 278 0 c 0,21,22
 133 0 133 0 13 -10 c 1,23,-1
 22 82 l 1,24,25
 60 88 60 88 73.5 106.5 c 128,-1,26
 87 125 87 125 87 170 c 2,27,-1
 88 505 l 2,28,29
 88 537 88 537 82.5 548 c 128,-1,30
 77 559 77 559 61 559 c 1,31,-1
 35 557 l 1,32,-1
 23 571 l 1,33,-1
 32 650 l 1,34,35
 174 647 174 647 326 647 c 128,-1,36
 478 647 478 647 574 659 c 1,37,-1
 587 643 l 1,38,39
 569 538 569 538 564 444 c 1,40,-1
 426 435 l 1,41,42
 428 459 428 459 428 472 c 0,43,44
 428 506 428 506 409.5 516.5 c 128,-1,45
 391 527 391 527 350 527 c 128,-1,46
 309 527 309 527 302.5 522 c 128,-1,47
 296 517 296 517 296 500 c 2,48,-1
 290 387 l 1,0,-1
420 685 m 0,49,50
 340 685 340 685 340 765 c 0,51,52
 340 805 340 805 363 828.5 c 128,-1,53
 386 852 386 852 425 852 c 128,-1,54
 464 852 464 852 484.5 831 c 128,-1,55
 505 810 505 810 505 771 c 128,-1,56
 505 732 505 732 482 708.5 c 128,-1,57
 459 685 459 685 420 685 c 0,49,50
227 685 m 0,58,59
 148 685 148 685 148 765 c 0,60,61
 148 805 148 805 171 828.5 c 128,-1,62
 194 852 194 852 233 852 c 128,-1,63
 272 852 272 852 292.5 831 c 128,-1,64
 313 810 313 810 313 771 c 128,-1,65
 313 732 313 732 290 708.5 c 128,-1,66
 267 685 267 685 227 685 c 0,58,59
EndSplineSet
EndChar

StartChar: Igrave
Encoding: 204 204 141
Width: 370
GlyphClass: 2
Flags: W
LayerCount: 2
Fore
SplineSet
285 156 m 0,0,1
 285 114 285 114 291.5 100.5 c 128,-1,2
 298 87 298 87 317 87 c 1,3,-1
 349 90 l 1,4,-1
 357 80 l 1,5,-1
 348 -4 l 1,6,7
 223 0 223 0 181 0 c 1,8,-1
 15 -5 l 1,9,-1
 23 80 l 1,10,11
 63 89 63 89 75.5 105 c 128,-1,12
 88 121 88 121 88 162 c 2,13,-1
 88 508 l 2,14,15
 88 539 88 539 81 549 c 128,-1,16
 74 559 74 559 53 559 c 2,17,-1
 27 558 l 1,18,-1
 18 572 l 1,19,-1
 26 647 l 1,20,-1
 187 647 l 1,21,-1
 359 652 l 1,22,-1
 352 562 l 1,23,24
 318 557 318 557 307.5 547.5 c 128,-1,25
 297 538 297 538 295 510 c 0,26,27
 285 353 285 353 285 156 c 0,0,1
11 746 m 1,28,-1
 4 762 l 1,29,-1
 40 870 l 1,30,-1
 56 875 l 1,31,32
 182 821 182 821 305 775 c 1,33,-1
 284 704 l 1,34,-1
 265 691 l 1,35,36
 172 715 172 715 11 746 c 1,28,-1
EndSplineSet
EndChar

StartChar: Iacute
Encoding: 205 205 142
Width: 370
GlyphClass: 2
Flags: W
LayerCount: 2
Fore
SplineSet
285 156 m 0,0,1
 285 114 285 114 291.5 100.5 c 128,-1,2
 298 87 298 87 317 87 c 1,3,-1
 349 90 l 1,4,-1
 357 80 l 1,5,-1
 348 -4 l 1,6,7
 223 0 223 0 181 0 c 1,8,-1
 15 -5 l 1,9,-1
 23 80 l 1,10,11
 63 89 63 89 75.5 105 c 128,-1,12
 88 121 88 121 88 162 c 2,13,-1
 88 508 l 2,14,15
 88 539 88 539 81 549 c 128,-1,16
 74 559 74 559 53 559 c 2,17,-1
 27 558 l 1,18,-1
 18 572 l 1,19,-1
 26 647 l 1,20,-1
 187 647 l 1,21,-1
 359 652 l 1,22,-1
 352 562 l 1,23,24
 318 557 318 557 307.5 547.5 c 128,-1,25
 297 538 297 538 295 510 c 0,26,27
 285 353 285 353 285 156 c 0,0,1
376 762 m 1,28,-1
 369 746 l 1,29,30
 239 722 239 722 115 691 c 1,31,-1
 96 704 l 1,32,-1
 75 775 l 1,33,34
 178 813 178 813 324 875 c 1,35,-1
 340 870 l 1,36,-1
 376 762 l 1,28,-1
EndSplineSet
EndChar

StartChar: Icircumflex
Encoding: 206 206 143
Width: 370
GlyphClass: 2
Flags: W
LayerCount: 2
Fore
SplineSet
285 156 m 0,0,1
 285 114 285 114 291.5 100.5 c 128,-1,2
 298 87 298 87 317 87 c 1,3,-1
 349 90 l 1,4,-1
 357 80 l 1,5,-1
 348 -4 l 1,6,7
 223 0 223 0 181 0 c 1,8,-1
 15 -5 l 1,9,-1
 23 80 l 1,10,11
 63 89 63 89 75.5 105 c 128,-1,12
 88 121 88 121 88 162 c 2,13,-1
 88 508 l 2,14,15
 88 539 88 539 81 549 c 128,-1,16
 74 559 74 559 53 559 c 2,17,-1
 27 558 l 1,18,-1
 18 572 l 1,19,-1
 26 647 l 1,20,-1
 187 647 l 1,21,-1
 359 652 l 1,22,-1
 352 562 l 1,23,24
 318 557 318 557 307.5 547.5 c 128,-1,25
 297 538 297 538 295 510 c 0,26,27
 285 353 285 353 285 156 c 0,0,1
203 888 m 1,28,29
 203 891 203 891 228 871 c 0,30,31
 327 790 327 790 379 750 c 1,32,-1
 344 688 l 1,33,-1
 321 681 l 1,34,35
 274 701 274 701 189 732 c 1,36,37
 137 713 137 713 58 681 c 1,38,-1
 35 688 l 1,39,-1
 -1 750 l 1,40,41
 82 810 82 810 176 888 c 1,42,-1
 203 888 l 1,28,29
EndSplineSet
EndChar

StartChar: Idieresis
Encoding: 207 207 144
Width: 370
GlyphClass: 2
Flags: W
LayerCount: 2
Fore
SplineSet
285 156 m 0,0,1
 285 114 285 114 291.5 100.5 c 128,-1,2
 298 87 298 87 317 87 c 1,3,-1
 349 90 l 1,4,-1
 357 80 l 1,5,-1
 348 -4 l 1,6,7
 223 0 223 0 181 0 c 1,8,-1
 15 -5 l 1,9,-1
 23 80 l 1,10,11
 63 89 63 89 75.5 105 c 128,-1,12
 88 121 88 121 88 162 c 2,13,-1
 88 508 l 2,14,15
 88 539 88 539 81 549 c 128,-1,16
 74 559 74 559 53 559 c 2,17,-1
 27 558 l 1,18,-1
 18 572 l 1,19,-1
 26 647 l 1,20,-1
 187 647 l 1,21,-1
 359 652 l 1,22,-1
 352 562 l 1,23,24
 318 557 318 557 307.5 547.5 c 128,-1,25
 297 538 297 538 295 510 c 0,26,27
 285 353 285 353 285 156 c 0,0,1
281 685 m 0,28,29
 201 685 201 685 201 765 c 0,30,31
 201 805 201 805 224 828.5 c 128,-1,32
 247 852 247 852 286 852 c 128,-1,33
 325 852 325 852 345.5 831 c 128,-1,34
 366 810 366 810 366 771 c 128,-1,35
 366 732 366 732 343 708.5 c 128,-1,36
 320 685 320 685 281 685 c 0,28,29
88 685 m 0,37,38
 9 685 9 685 9 765 c 0,39,40
 9 805 9 805 32 828.5 c 128,-1,41
 55 852 55 852 94 852 c 128,-1,42
 133 852 133 852 153.5 831 c 128,-1,43
 174 810 174 810 174 771 c 128,-1,44
 174 732 174 732 151 708.5 c 128,-1,45
 128 685 128 685 88 685 c 0,37,38
EndSplineSet
EndChar

StartChar: Eth
Encoding: 208 208 145
Width: 704
GlyphClass: 2
Flags: W
LayerCount: 2
Fore
SplineSet
113 168 m 2,0,-1
 113 266 l 1,1,-1
 17 266 l 1,2,-1
 7 274 l 1,3,-1
 20 363 l 1,4,-1
 113 363 l 1,5,-1
 113 503 l 2,6,7
 113 534 113 534 107.5 545.5 c 128,-1,8
 102 557 102 557 88 557 c 2,9,-1
 56 555 l 1,10,-1
 46 569 l 1,11,-1
 55 650 l 1,12,13
 166 647 166 647 207 647 c 1,14,-1
 373 653 l 1,15,16
 690 653 690 653 690 352 c 0,17,18
 690 184 690 184 596.5 86 c 128,-1,19
 503 -12 503 -12 342 -12 c 1,20,21
 246 0 246 0 183 0 c 1,22,-1
 40 -8 l 1,23,-1
 48 85 l 1,24,25
 86 91 86 91 99.5 108.5 c 128,-1,26
 113 126 113 126 113 168 c 2,0,-1
306 267 m 1,27,-1
 306 162 l 2,28,29
 306 133 306 133 313.5 123 c 128,-1,30
 321 113 321 113 342 113 c 0,31,32
 407 113 407 113 434 159 c 128,-1,33
 461 205 461 205 461 320.5 c 128,-1,34
 461 436 461 436 434.5 481 c 128,-1,35
 408 526 408 526 337 526 c 0,36,37
 317 526 317 526 316 499 c 2,38,-1
 309 364 l 1,39,-1
 384 367 l 1,40,-1
 392 357 l 1,41,-1
 385 267 l 1,42,-1
 306 267 l 1,27,-1
EndSplineSet
EndChar

StartChar: Ntilde
Encoding: 209 209 146
Width: 739
GlyphClass: 2
Flags: W
LayerCount: 2
Fore
SplineSet
465 559 m 2,0,-1
 434 559 l 1,1,-1
 429 570 l 1,2,-1
 434 651 l 1,3,4
 544 647 544 647 641.5 647 c 128,-1,5
 739 647 739 647 739 650 c 2,6,-1
 734 560 l 1,7,8
 702 556 702 556 689.5 542 c 128,-1,9
 677 528 677 528 676 497 c 2,10,-1
 663 0 l 1,11,-1
 475 -12 l 1,12,13
 371 161 371 161 270 315 c 1,14,-1
 255 315 l 1,15,-1
 258 137 l 2,16,17
 259 108 259 108 267 97 c 128,-1,18
 275 86 275 86 297 86 c 1,19,-1
 331 90 l 1,20,-1
 340 81 l 1,21,-1
 329 -4 l 1,22,23
 218 0 218 0 181 0 c 0,24,25
 113 0 113 0 21 -8 c 1,26,-1
 31 82 l 1,27,28
 87 89 87 89 88 145 c 2,29,-1
 100 494 l 1,30,31
 100 528 100 528 86 540 c 128,-1,32
 72 552 72 552 25 557 c 1,33,-1
 13 571 l 1,34,-1
 19 652 l 1,35,36
 94 647 94 647 167 647 c 1,37,-1
 295 651 l 1,38,39
 375 507 375 507 487 333 c 1,40,-1
 502 333 l 1,41,-1
 498 516 l 2,42,43
 497 541 497 541 490 550 c 128,-1,44
 483 559 483 559 465 559 c 2,0,-1
365 847 m 128,-1,46
 426 830 426 830 438 830 c 0,47,48
 461 830 461 830 496 874 c 2,49,-1
 507 888 l 1,50,-1
 523 888 l 1,51,-1
 582 834 l 1,52,-1
 582 818 l 1,53,-1
 501 703 l 1,54,-1
 484 699 l 1,55,56
 466 699 466 699 405 716 c 128,-1,57
 344 733 344 733 331.5 733 c 128,-1,58
 319 733 319 733 302 718.5 c 128,-1,59
 285 704 285 704 263 675 c 1,60,-1
 247 675 l 1,61,-1
 188 729 l 1,62,-1
 188 745 l 1,63,-1
 269 860 l 1,64,-1
 286 864 l 1,65,45
 304 864 304 864 365 847 c 128,-1,46
EndSplineSet
EndChar

StartChar: Ograve
Encoding: 210 210 147
Width: 655
GlyphClass: 2
Flags: W
LayerCount: 2
Fore
SplineSet
263.5 169 m 128,-1,1
 283 114 283 114 329 114 c 128,-1,2
 375 114 375 114 393 151.5 c 128,-1,3
 411 189 411 189 411 301.5 c 128,-1,4
 411 414 411 414 391 468 c 128,-1,5
 371 522 371 522 325 522 c 128,-1,6
 279 522 279 522 261.5 485.5 c 128,-1,7
 244 449 244 449 244 336.5 c 128,-1,0
 244 224 244 224 263.5 169 c 128,-1,1
555 79.5 m 128,-1,9
 470 -12 470 -12 319 -12 c 128,-1,10
 168 -12 168 -12 91.5 71.5 c 128,-1,11
 15 155 15 155 15 317.5 c 128,-1,12
 15 480 15 480 99 569.5 c 128,-1,13
 183 659 183 659 342 659 c 0,14,15
 640 659 640 659 640 340 c 0,16,8
 640 171 640 171 555 79.5 c 128,-1,9
148 746 m 1,17,-1
 141 762 l 1,18,-1
 177 870 l 1,19,-1
 193 875 l 1,20,21
 319 821 319 821 442 775 c 1,22,-1
 421 704 l 1,23,-1
 402 691 l 1,24,25
 309 715 309 715 148 746 c 1,17,-1
EndSplineSet
EndChar

StartChar: Oacute
Encoding: 211 211 148
Width: 655
GlyphClass: 2
Flags: W
LayerCount: 2
Fore
SplineSet
263.5 169 m 128,-1,1
 283 114 283 114 329 114 c 128,-1,2
 375 114 375 114 393 151.5 c 128,-1,3
 411 189 411 189 411 301.5 c 128,-1,4
 411 414 411 414 391 468 c 128,-1,5
 371 522 371 522 325 522 c 128,-1,6
 279 522 279 522 261.5 485.5 c 128,-1,7
 244 449 244 449 244 336.5 c 128,-1,0
 244 224 244 224 263.5 169 c 128,-1,1
555 79.5 m 128,-1,9
 470 -12 470 -12 319 -12 c 128,-1,10
 168 -12 168 -12 91.5 71.5 c 128,-1,11
 15 155 15 155 15 317.5 c 128,-1,12
 15 480 15 480 99 569.5 c 128,-1,13
 183 659 183 659 342 659 c 0,14,15
 640 659 640 659 640 340 c 0,16,8
 640 171 640 171 555 79.5 c 128,-1,9
513 762 m 1,17,-1
 506 746 l 1,18,19
 376 722 376 722 252 691 c 1,20,-1
 233 704 l 1,21,-1
 212 775 l 1,22,23
 315 813 315 813 461 875 c 1,24,-1
 477 870 l 1,25,-1
 513 762 l 1,17,-1
EndSplineSet
EndChar

StartChar: Ocircumflex
Encoding: 212 212 149
Width: 655
GlyphClass: 2
Flags: W
LayerCount: 2
Fore
SplineSet
263.5 169 m 128,-1,1
 283 114 283 114 329 114 c 128,-1,2
 375 114 375 114 393 151.5 c 128,-1,3
 411 189 411 189 411 301.5 c 128,-1,4
 411 414 411 414 391 468 c 128,-1,5
 371 522 371 522 325 522 c 128,-1,6
 279 522 279 522 261.5 485.5 c 128,-1,7
 244 449 244 449 244 336.5 c 128,-1,0
 244 224 244 224 263.5 169 c 128,-1,1
555 79.5 m 128,-1,9
 470 -12 470 -12 319 -12 c 128,-1,10
 168 -12 168 -12 91.5 71.5 c 128,-1,11
 15 155 15 155 15 317.5 c 128,-1,12
 15 480 15 480 99 569.5 c 128,-1,13
 183 659 183 659 342 659 c 0,14,15
 640 659 640 659 640 340 c 0,16,8
 640 171 640 171 555 79.5 c 128,-1,9
340 888 m 1,17,18
 340 891 340 891 364 871 c 0,19,20
 464 790 464 790 516 750 c 1,21,-1
 481 688 l 1,22,-1
 458 681 l 1,23,24
 411 701 411 701 326 732 c 1,25,26
 274 713 274 713 195 681 c 1,27,-1
 172 688 l 1,28,-1
 136 750 l 1,29,30
 219 810 219 810 313 888 c 1,31,-1
 340 888 l 1,17,18
EndSplineSet
EndChar

StartChar: Otilde
Encoding: 213 213 150
Width: 655
GlyphClass: 2
Flags: W
LayerCount: 2
Fore
SplineSet
263.5 169 m 128,-1,1
 283 114 283 114 329 114 c 128,-1,2
 375 114 375 114 393 151.5 c 128,-1,3
 411 189 411 189 411 301.5 c 128,-1,4
 411 414 411 414 391 468 c 128,-1,5
 371 522 371 522 325 522 c 128,-1,6
 279 522 279 522 261.5 485.5 c 128,-1,7
 244 449 244 449 244 336.5 c 128,-1,0
 244 224 244 224 263.5 169 c 128,-1,1
555 79.5 m 128,-1,9
 470 -12 470 -12 319 -12 c 128,-1,10
 168 -12 168 -12 91.5 71.5 c 128,-1,11
 15 155 15 155 15 317.5 c 128,-1,12
 15 480 15 480 99 569.5 c 128,-1,13
 183 659 183 659 342 659 c 0,14,15
 640 659 640 659 640 340 c 0,16,8
 640 171 640 171 555 79.5 c 128,-1,9
305 847 m 128,-1,18
 366 830 366 830 378 830 c 0,19,20
 401 830 401 830 436 874 c 2,21,-1
 447 888 l 1,22,-1
 463 888 l 1,23,-1
 522 834 l 1,24,-1
 522 818 l 1,25,-1
 441 703 l 1,26,-1
 424 699 l 1,27,28
 406 699 406 699 345 716 c 128,-1,29
 284 733 284 733 271.5 733 c 128,-1,30
 259 733 259 733 242 718.5 c 128,-1,31
 225 704 225 704 203 675 c 1,32,-1
 187 675 l 1,33,-1
 128 729 l 1,34,-1
 128 745 l 1,35,-1
 209 860 l 1,36,-1
 226 864 l 1,37,17
 244 864 244 864 305 847 c 128,-1,18
EndSplineSet
EndChar

StartChar: Odieresis
Encoding: 214 214 151
Width: 655
GlyphClass: 2
Flags: W
LayerCount: 2
Fore
SplineSet
263.5 169 m 128,-1,1
 283 114 283 114 329 114 c 128,-1,2
 375 114 375 114 393 151.5 c 128,-1,3
 411 189 411 189 411 301.5 c 128,-1,4
 411 414 411 414 391 468 c 128,-1,5
 371 522 371 522 325 522 c 128,-1,6
 279 522 279 522 261.5 485.5 c 128,-1,7
 244 449 244 449 244 336.5 c 128,-1,0
 244 224 244 224 263.5 169 c 128,-1,1
555 79.5 m 128,-1,9
 470 -12 470 -12 319 -12 c 128,-1,10
 168 -12 168 -12 91.5 71.5 c 128,-1,11
 15 155 15 155 15 317.5 c 128,-1,12
 15 480 15 480 99 569.5 c 128,-1,13
 183 659 183 659 342 659 c 0,14,15
 640 659 640 659 640 340 c 0,16,8
 640 171 640 171 555 79.5 c 128,-1,9
418 685 m 0,17,18
 338 685 338 685 338 765 c 0,19,20
 338 805 338 805 361 828.5 c 128,-1,21
 384 852 384 852 423 852 c 128,-1,22
 462 852 462 852 482.5 831 c 128,-1,23
 503 810 503 810 503 771 c 128,-1,24
 503 732 503 732 480 708.5 c 128,-1,25
 457 685 457 685 418 685 c 0,17,18
225 685 m 0,26,27
 146 685 146 685 146 765 c 0,28,29
 146 805 146 805 169 828.5 c 128,-1,30
 192 852 192 852 231 852 c 128,-1,31
 270 852 270 852 290.5 831 c 128,-1,32
 311 810 311 810 311 771 c 128,-1,33
 311 732 311 732 288 708.5 c 128,-1,34
 265 685 265 685 225 685 c 0,26,27
EndSplineSet
EndChar

StartChar: multiply
Encoding: 215 215 152
Width: 506
GlyphClass: 2
Flags: W
LayerCount: 2
Fore
SplineSet
364 455 m 1,0,-1
 379 449 l 1,1,-1
 463 347 l 1,2,-1
 353 236 l 1,3,-1
 468 129 l 1,4,-1
 462 113 l 1,5,-1
 357 26 l 1,6,-1
 249 132 l 1,7,-1
 144 26 l 1,8,-1
 128 29 l 1,9,-1
 49 133 l 1,10,11
 98 182 98 182 149 232 c 1,12,-1
 35 345 l 1,13,-1
 38 361 l 1,14,-1
 146 444 l 1,15,16
 200 389 200 389 252 336 c 1,17,-1
 364 455 l 1,0,-1
EndSplineSet
EndChar

StartChar: Oslash
Encoding: 216 216 153
Width: 655
GlyphClass: 2
Flags: W
LayerCount: 2
Fore
SplineSet
15 312 m 0,0,1
 15 480 15 480 99 569.5 c 128,-1,2
 183 659 183 659 342 659 c 0,3,4
 357 659 357 659 387 657 c 1,5,-1
 436 785 l 1,6,-1
 570 767 l 1,7,-1
 574 755 l 1,8,-1
 520 615 l 1,9,10
 640 542 640 542 640 340 c 0,11,12
 640 171 640 171 555 79.5 c 128,-1,13
 470 -12 470 -12 313 -12 c 0,14,15
 298 -12 298 -12 272 -10 c 1,16,-1
 219 -141 l 1,17,-1
 87 -122 l 1,18,-1
 81 -113 l 1,19,-1
 141 31 l 1,20,21
 15 108 15 108 15 312 c 0,0,1
263.5 169 m 128,-1,23
 283 114 283 114 329 114 c 128,-1,24
 375 114 375 114 393 151.5 c 128,-1,25
 411 189 411 189 411 301.5 c 128,-1,26
 411 414 411 414 391 468 c 128,-1,27
 371 522 371 522 325 522 c 128,-1,28
 279 522 279 522 261.5 485.5 c 128,-1,29
 244 449 244 449 244 336.5 c 128,-1,22
 244 224 244 224 263.5 169 c 128,-1,23
EndSplineSet
EndChar

StartChar: Ugrave
Encoding: 217 217 154
Width: 627
GlyphClass: 2
Flags: W
LayerCount: 2
Fore
SplineSet
277 143 m 128,-1,1
 297 115 297 115 334.5 115 c 128,-1,2
 372 115 372 115 389 136 c 128,-1,3
 406 157 406 157 406 203 c 2,4,-1
 405 505 l 2,5,6
 405 536 405 536 399.5 547.5 c 128,-1,7
 394 559 394 559 379 559 c 1,8,-1
 356 557 l 1,9,-1
 353 561 l 1,10,-1
 364 650 l 1,11,12
 447 647 447 647 484 647 c 2,13,-1
 628 650 l 1,14,-1
 620 560 l 1,15,16
 589 550 589 550 580.5 542 c 128,-1,17
 572 534 572 534 572 516 c 2,18,-1
 572 234 l 2,19,20
 572 112 572 112 504.5 50 c 128,-1,21
 437 -12 437 -12 307 -12 c 128,-1,22
 177 -12 177 -12 118 38.5 c 128,-1,23
 59 89 59 89 59 199 c 2,24,-1
 59 505 l 2,25,26
 59 538 59 538 53.5 548.5 c 128,-1,27
 48 559 48 559 31 559 c 1,28,-1
 2 557 l 1,29,-1
 0 561 l 1,30,-1
 10 650 l 1,31,32
 108 647 108 647 187 647 c 1,33,-1
 321 651 l 1,34,-1
 311 558 l 1,35,36
 285 556 285 556 274.5 544.5 c 128,-1,37
 264 533 264 533 263 509 c 2,38,-1
 257 220 l 1,39,0
 257 171 257 171 277 143 c 128,-1,1
156 746 m 1,40,-1
 149 762 l 1,41,-1
 185 870 l 1,42,-1
 201 875 l 1,43,44
 327 821 327 821 450 775 c 1,45,-1
 429 704 l 1,46,-1
 410 691 l 1,47,48
 317 715 317 715 156 746 c 1,40,-1
EndSplineSet
EndChar

StartChar: Uacute
Encoding: 218 218 155
Width: 627
GlyphClass: 2
Flags: W
LayerCount: 2
Fore
SplineSet
277 143 m 128,-1,1
 297 115 297 115 334.5 115 c 128,-1,2
 372 115 372 115 389 136 c 128,-1,3
 406 157 406 157 406 203 c 2,4,-1
 405 505 l 2,5,6
 405 536 405 536 399.5 547.5 c 128,-1,7
 394 559 394 559 379 559 c 1,8,-1
 356 557 l 1,9,-1
 353 561 l 1,10,-1
 364 650 l 1,11,12
 447 647 447 647 484 647 c 2,13,-1
 628 650 l 1,14,-1
 620 560 l 1,15,16
 589 550 589 550 580.5 542 c 128,-1,17
 572 534 572 534 572 516 c 2,18,-1
 572 234 l 2,19,20
 572 112 572 112 504.5 50 c 128,-1,21
 437 -12 437 -12 307 -12 c 128,-1,22
 177 -12 177 -12 118 38.5 c 128,-1,23
 59 89 59 89 59 199 c 2,24,-1
 59 505 l 2,25,26
 59 538 59 538 53.5 548.5 c 128,-1,27
 48 559 48 559 31 559 c 1,28,-1
 2 557 l 1,29,-1
 0 561 l 1,30,-1
 10 650 l 1,31,32
 108 647 108 647 187 647 c 1,33,-1
 321 651 l 1,34,-1
 311 558 l 1,35,36
 285 556 285 556 274.5 544.5 c 128,-1,37
 264 533 264 533 263 509 c 2,38,-1
 257 220 l 1,39,0
 257 171 257 171 277 143 c 128,-1,1
521 762 m 1,40,-1
 514 746 l 1,41,42
 384 722 384 722 260 691 c 1,43,-1
 241 704 l 1,44,-1
 220 775 l 1,45,46
 323 813 323 813 469 875 c 1,47,-1
 485 870 l 1,48,-1
 521 762 l 1,40,-1
EndSplineSet
EndChar

StartChar: Ucircumflex
Encoding: 219 219 156
Width: 627
GlyphClass: 2
Flags: W
LayerCount: 2
Fore
SplineSet
277 143 m 128,-1,1
 297 115 297 115 334.5 115 c 128,-1,2
 372 115 372 115 389 136 c 128,-1,3
 406 157 406 157 406 203 c 2,4,-1
 405 505 l 2,5,6
 405 536 405 536 399.5 547.5 c 128,-1,7
 394 559 394 559 379 559 c 1,8,-1
 356 557 l 1,9,-1
 353 561 l 1,10,-1
 364 650 l 1,11,12
 447 647 447 647 484 647 c 2,13,-1
 628 650 l 1,14,-1
 620 560 l 1,15,16
 589 550 589 550 580.5 542 c 128,-1,17
 572 534 572 534 572 516 c 2,18,-1
 572 234 l 2,19,20
 572 112 572 112 504.5 50 c 128,-1,21
 437 -12 437 -12 307 -12 c 128,-1,22
 177 -12 177 -12 118 38.5 c 128,-1,23
 59 89 59 89 59 199 c 2,24,-1
 59 505 l 2,25,26
 59 538 59 538 53.5 548.5 c 128,-1,27
 48 559 48 559 31 559 c 1,28,-1
 2 557 l 1,29,-1
 0 561 l 1,30,-1
 10 650 l 1,31,32
 108 647 108 647 187 647 c 1,33,-1
 321 651 l 1,34,-1
 311 558 l 1,35,36
 285 556 285 556 274.5 544.5 c 128,-1,37
 264 533 264 533 263 509 c 2,38,-1
 257 220 l 1,39,0
 257 171 257 171 277 143 c 128,-1,1
348 888 m 1,40,41
 348 891 348 891 372 871 c 0,42,43
 472 790 472 790 524 750 c 1,44,-1
 489 688 l 1,45,-1
 466 681 l 1,46,47
 419 701 419 701 334 732 c 1,48,49
 282 713 282 713 203 681 c 1,50,-1
 180 688 l 1,51,-1
 144 750 l 1,52,53
 227 810 227 810 321 888 c 1,54,-1
 348 888 l 1,40,41
EndSplineSet
EndChar

StartChar: Udieresis
Encoding: 220 220 157
Width: 627
GlyphClass: 2
Flags: W
LayerCount: 2
Fore
SplineSet
277 143 m 128,-1,1
 297 115 297 115 334.5 115 c 128,-1,2
 372 115 372 115 389 136 c 128,-1,3
 406 157 406 157 406 203 c 2,4,-1
 405 505 l 2,5,6
 405 536 405 536 399.5 547.5 c 128,-1,7
 394 559 394 559 379 559 c 1,8,-1
 356 557 l 1,9,-1
 353 561 l 1,10,-1
 364 650 l 1,11,12
 447 647 447 647 484 647 c 2,13,-1
 628 650 l 1,14,-1
 620 560 l 1,15,16
 589 550 589 550 580.5 542 c 128,-1,17
 572 534 572 534 572 516 c 2,18,-1
 572 234 l 2,19,20
 572 112 572 112 504.5 50 c 128,-1,21
 437 -12 437 -12 307 -12 c 128,-1,22
 177 -12 177 -12 118 38.5 c 128,-1,23
 59 89 59 89 59 199 c 2,24,-1
 59 505 l 2,25,26
 59 538 59 538 53.5 548.5 c 128,-1,27
 48 559 48 559 31 559 c 1,28,-1
 2 557 l 1,29,-1
 0 561 l 1,30,-1
 10 650 l 1,31,32
 108 647 108 647 187 647 c 1,33,-1
 321 651 l 1,34,-1
 311 558 l 1,35,36
 285 556 285 556 274.5 544.5 c 128,-1,37
 264 533 264 533 263 509 c 2,38,-1
 257 220 l 1,39,0
 257 171 257 171 277 143 c 128,-1,1
426 685 m 0,40,41
 346 685 346 685 346 765 c 0,42,43
 346 805 346 805 369 828.5 c 128,-1,44
 392 852 392 852 431 852 c 128,-1,45
 470 852 470 852 490.5 831 c 128,-1,46
 511 810 511 810 511 771 c 128,-1,47
 511 732 511 732 488 708.5 c 128,-1,48
 465 685 465 685 426 685 c 0,40,41
233 685 m 0,49,50
 154 685 154 685 154 765 c 0,51,52
 154 805 154 805 177 828.5 c 128,-1,53
 200 852 200 852 239 852 c 128,-1,54
 278 852 278 852 298.5 831 c 128,-1,55
 319 810 319 810 319 771 c 128,-1,56
 319 732 319 732 296 708.5 c 128,-1,57
 273 685 273 685 233 685 c 0,49,50
EndSplineSet
EndChar

StartChar: Yacute
Encoding: 221 221 158
Width: 663
GlyphClass: 2
Flags: W
LayerCount: 2
Fore
SplineSet
297 535 m 0,0,1
 297 527 297 527 353 387 c 1,2,-1
 367 387 l 1,3,-1
 408 501 l 1,4,5
 421 530 421 530 421 545.5 c 128,-1,6
 421 561 421 561 383 561 c 1,7,-1
 380 567 l 1,8,-1
 388 646 l 1,9,-1
 546 646 l 1,10,-1
 659 650 l 1,11,-1
 663 642 l 1,12,-1
 655 555 l 1,13,14
 588 517 588 517 544 429 c 2,15,-1
 453 247 l 1,16,17
 438 212 438 212 438 165.5 c 128,-1,18
 438 119 438 119 449 105 c 128,-1,19
 460 91 460 91 488 91 c 1,20,-1
 539 94 l 1,21,-1
 544 88 l 1,22,-1
 535 -6 l 1,23,24
 386 0 386 0 328 0 c 1,25,-1
 127 -9 l 1,26,-1
 135 83 l 1,27,28
 199 87 199 87 218.5 102.5 c 128,-1,29
 238 118 238 118 238 162 c 2,30,-1
 238 178 l 2,31,32
 238 216 238 216 210 268 c 2,33,-1
 103 467 l 2,34,35
 73 522 73 522 4 551 c 1,36,-1
 0 557 l 1,37,-1
 10 648 l 1,38,39
 127 646 127 646 160 646 c 1,40,-1
 340 653 l 1,41,-1
 347 642 l 1,42,-1
 338 560 l 1,43,44
 297 560 297 560 297 535 c 0,0,1
553 762 m 1,45,-1
 546 746 l 1,46,47
 416 722 416 722 292 691 c 1,48,-1
 273 704 l 1,49,-1
 252 775 l 1,50,51
 355 813 355 813 501 875 c 1,52,-1
 517 870 l 1,53,-1
 553 762 l 1,45,-1
EndSplineSet
EndChar

StartChar: Thorn
Encoding: 222 222 159
Width: 605
GlyphClass: 2
Flags: W
LayerCount: 2
Fore
SplineSet
306 548.5 m 128,-1,1
 297 543 297 543 296 534.5 c 128,-1,2
 295 526 295 526 294 522 c 1,3,-1
 363 522 l 2,4,5
 487 522 487 522 546 475.5 c 128,-1,6
 605 429 605 429 605 337 c 128,-1,7
 605 245 605 245 536 192 c 128,-1,8
 467 139 467 139 356 139 c 2,9,-1
 285 139 l 1,10,-1
 285 116 l 2,11,12
 285 98 285 98 291 92.5 c 128,-1,13
 297 87 297 87 317 87 c 1,14,-1
 359 90 l 1,15,-1
 367 80 l 1,16,-1
 358 -4 l 1,17,18
 226 0 226 0 181 0 c 1,19,-1
 15 -5 l 1,20,-1
 23 80 l 1,21,22
 63 88 63 88 75.5 104 c 128,-1,23
 88 120 88 120 88 162 c 2,24,-1
 88 508 l 2,25,26
 88 539 88 539 81 549 c 128,-1,27
 74 559 74 559 53 559 c 2,28,-1
 27 558 l 1,29,-1
 18 572 l 1,30,-1
 26 647 l 1,31,-1
 187 647 l 1,32,-1
 359 652 l 1,33,-1
 352 562 l 1,34,0
 315 554 315 554 306 548.5 c 128,-1,1
288 385 m 2,35,-1
 286 256 l 1,36,37
 331 246 331 246 350 246 c 1,38,39
 399 259 399 259 399 331 c 0,40,41
 399 371 399 371 377 389 c 128,-1,42
 355 407 355 407 308 407 c 0,43,44
 288 407 288 407 288 385 c 2,35,-1
EndSplineSet
EndChar

StartChar: germandbls
Encoding: 223 223 160
Width: 948
GlyphClass: 2
Flags: W
LayerCount: 2
Fore
SplineSet
192 -9 m 0,0,1
 148 -9 148 -9 106 -0.5 c 128,-1,2
 64 8 64 8 24 25 c 1,3,-1
 13 40 l 1,4,5
 29 130 29 130 31 177 c 1,6,-1
 145 184 l 1,7,8
 145 149 145 149 163.5 127.5 c 128,-1,9
 182 106 182 106 213 106 c 0,10,11
 260 106 260 106 260 128 c 0,12,13
 260 145 260 145 235 158.5 c 128,-1,14
 210 172 210 172 174 185 c 128,-1,15
 138 198 138 198 102 215 c 128,-1,16
 66 232 66 232 41 265 c 128,-1,17
 16 298 16 298 16 343 c 0,18,19
 16 421 16 421 88.5 467 c 128,-1,20
 161 513 161 513 281 513 c 0,21,22
 363 513 363 513 443 491 c 1,23,-1
 454 472 l 1,24,25
 438 403 438 403 431 333 c 1,26,-1
 327 326 l 1,27,-1
 316 333 l 1,28,-1
 316 340 l 2,29,30
 316 365 316 365 301 379.5 c 128,-1,31
 286 394 286 394 260 394 c 0,32,33
 215 394 215 394 215 367 c 0,34,35
 215 339 215 339 301 310 c 0,36,37
 337 298 337 298 373 281 c 128,-1,38
 409 264 409 264 434 232 c 128,-1,39
 459 200 459 200 459 155 c 0,40,41
 459 78 459 78 388 34.5 c 128,-1,42
 317 -9 317 -9 192 -9 c 0,0,1
666 -9 m 0,43,44
 622 -9 622 -9 580 -0.5 c 128,-1,45
 538 8 538 8 498 25 c 1,46,-1
 487 40 l 1,47,48
 503 130 503 130 505 177 c 1,49,-1
 619 184 l 1,50,51
 619 149 619 149 637.5 127.5 c 128,-1,52
 656 106 656 106 687 106 c 0,53,54
 734 106 734 106 734 128 c 0,55,56
 734 145 734 145 709 158.5 c 128,-1,57
 684 172 684 172 648 185 c 128,-1,58
 612 198 612 198 576 215 c 128,-1,59
 540 232 540 232 515 265 c 128,-1,60
 490 298 490 298 490 343 c 0,61,62
 490 421 490 421 562.5 467 c 128,-1,63
 635 513 635 513 755 513 c 0,64,65
 837 513 837 513 917 491 c 1,66,-1
 928 472 l 1,67,68
 912 403 912 403 905 333 c 1,69,-1
 801 326 l 1,70,-1
 790 333 l 1,71,-1
 790 340 l 2,72,73
 790 365 790 365 775 379.5 c 128,-1,74
 760 394 760 394 734 394 c 0,75,76
 689 394 689 394 689 367 c 0,77,78
 689 339 689 339 775 310 c 0,79,80
 811 298 811 298 847 281 c 128,-1,81
 883 264 883 264 908 232 c 128,-1,82
 933 200 933 200 933 155 c 0,83,84
 933 78 933 78 862 34.5 c 128,-1,85
 791 -9 791 -9 666 -9 c 0,43,44
EndSplineSet
EndChar

StartChar: agrave
Encoding: 224 224 161
Width: 586
GlyphClass: 2
Flags: W
LayerCount: 2
Fore
SplineSet
340 101 m 1,0,-1
 337 131 l 1,1,2
 314 132 314 132 276 132 c 1,3,-1
 213 129 l 1,4,5
 206 99 206 99 206 89.5 c 128,-1,6
 206 80 206 80 209 78 c 128,-1,7
 212 76 212 76 228 76 c 2,8,-1
 246 76 l 1,9,-1
 254 67 l 1,10,-1
 247 -3 l 1,11,12
 167 -1 167 -1 117 -1 c 2,13,-1
 4 -1 l 1,14,-1
 10 72 l 1,15,16
 38 80 38 80 49 111 c 2,17,-1
 177 500 l 1,18,-1
 418 513 l 1,19,-1
 431 502 l 1,20,21
 512 192 512 192 528 134 c 128,-1,22
 544 76 544 76 576 73 c 1,23,-1
 582 64 l 1,24,-1
 575 -2 l 1,25,26
 502 -1 502 -1 455 -1 c 2,27,-1
 291 -4 l 1,28,-1
 284 3 l 1,29,-1
 289 75 l 1,30,31
 334 80 334 80 338 86 c 0,32,33
 340 90 340 90 340 101 c 1,0,-1
127 602 m 1,34,-1
 120 618 l 1,35,-1
 156 726 l 1,36,-1
 172 731 l 1,37,38
 298 677 298 677 421 631 c 1,39,-1
 400 560 l 1,40,-1
 381 547 l 1,41,42
 288 571 288 571 127 602 c 1,34,-1
279 238 m 2,43,44
 303 238 303 238 318 239 c 1,45,-1
 294 363 l 1,46,-1
 275 363 l 1,47,-1
 241 238 l 1,48,-1
 279 238 l 2,43,44
EndSplineSet
EndChar

StartChar: aacute
Encoding: 225 225 162
Width: 586
GlyphClass: 2
Flags: W
LayerCount: 2
Fore
SplineSet
340 101 m 1,0,-1
 337 131 l 1,1,2
 314 132 314 132 276 132 c 1,3,-1
 213 129 l 1,4,5
 206 99 206 99 206 89.5 c 128,-1,6
 206 80 206 80 209 78 c 128,-1,7
 212 76 212 76 228 76 c 2,8,-1
 246 76 l 1,9,-1
 254 67 l 1,10,-1
 247 -3 l 1,11,12
 167 -1 167 -1 117 -1 c 2,13,-1
 4 -1 l 1,14,-1
 10 72 l 1,15,16
 38 80 38 80 49 111 c 2,17,-1
 177 500 l 1,18,-1
 418 513 l 1,19,-1
 431 502 l 1,20,21
 512 192 512 192 528 134 c 128,-1,22
 544 76 544 76 576 73 c 1,23,-1
 582 64 l 1,24,-1
 575 -2 l 1,25,26
 502 -1 502 -1 455 -1 c 2,27,-1
 291 -4 l 1,28,-1
 284 3 l 1,29,-1
 289 75 l 1,30,31
 334 80 334 80 338 86 c 0,32,33
 340 90 340 90 340 101 c 1,0,-1
474 618 m 1,34,-1
 467 602 l 1,35,36
 337 578 337 578 213 547 c 1,37,-1
 194 560 l 1,38,-1
 173 631 l 1,39,40
 276 669 276 669 422 731 c 1,41,-1
 438 726 l 1,42,-1
 474 618 l 1,34,-1
279 238 m 2,43,44
 303 238 303 238 318 239 c 1,45,-1
 294 363 l 1,46,-1
 275 363 l 1,47,-1
 241 238 l 1,48,-1
 279 238 l 2,43,44
EndSplineSet
EndChar

StartChar: acircumflex
Encoding: 226 226 163
Width: 586
GlyphClass: 2
Flags: W
LayerCount: 2
Fore
SplineSet
340 101 m 1,0,-1
 337 131 l 1,1,2
 314 132 314 132 276 132 c 1,3,-1
 213 129 l 1,4,5
 206 99 206 99 206 89.5 c 128,-1,6
 206 80 206 80 209 78 c 128,-1,7
 212 76 212 76 228 76 c 2,8,-1
 246 76 l 1,9,-1
 254 67 l 1,10,-1
 247 -3 l 1,11,12
 167 -1 167 -1 117 -1 c 2,13,-1
 4 -1 l 1,14,-1
 10 72 l 1,15,16
 38 80 38 80 49 111 c 2,17,-1
 177 500 l 1,18,-1
 418 513 l 1,19,-1
 431 502 l 1,20,21
 512 192 512 192 528 134 c 128,-1,22
 544 76 544 76 576 73 c 1,23,-1
 582 64 l 1,24,-1
 575 -2 l 1,25,26
 502 -1 502 -1 455 -1 c 2,27,-1
 291 -4 l 1,28,-1
 284 3 l 1,29,-1
 289 75 l 1,30,31
 334 80 334 80 338 86 c 0,32,33
 340 90 340 90 340 101 c 1,0,-1
311 744 m 1,34,35
 311 747 311 747 336 727 c 0,36,37
 435 646 435 646 487 606 c 1,38,-1
 452 544 l 1,39,-1
 429 537 l 1,40,41
 382 557 382 557 297 588 c 1,42,43
 245 569 245 569 166 537 c 1,44,-1
 143 544 l 1,45,-1
 107 606 l 1,46,47
 190 666 190 666 284 744 c 1,48,-1
 311 744 l 1,34,35
279 238 m 2,49,50
 303 238 303 238 318 239 c 1,51,-1
 294 363 l 1,52,-1
 275 363 l 1,53,-1
 241 238 l 1,54,-1
 279 238 l 2,49,50
EndSplineSet
EndChar

StartChar: atilde
Encoding: 227 227 164
Width: 586
GlyphClass: 2
Flags: W
LayerCount: 2
Fore
SplineSet
340 101 m 1,0,-1
 337 131 l 1,1,2
 314 132 314 132 276 132 c 1,3,-1
 213 129 l 1,4,5
 206 99 206 99 206 89.5 c 128,-1,6
 206 80 206 80 209 78 c 128,-1,7
 212 76 212 76 228 76 c 2,8,-1
 246 76 l 1,9,-1
 254 67 l 1,10,-1
 247 -3 l 1,11,12
 167 -1 167 -1 117 -1 c 2,13,-1
 4 -1 l 1,14,-1
 10 72 l 1,15,16
 38 80 38 80 49 111 c 2,17,-1
 177 500 l 1,18,-1
 418 513 l 1,19,-1
 431 502 l 1,20,21
 512 192 512 192 528 134 c 128,-1,22
 544 76 544 76 576 73 c 1,23,-1
 582 64 l 1,24,-1
 575 -2 l 1,25,26
 502 -1 502 -1 455 -1 c 2,27,-1
 291 -4 l 1,28,-1
 284 3 l 1,29,-1
 289 75 l 1,30,31
 334 80 334 80 338 86 c 0,32,33
 340 90 340 90 340 101 c 1,0,-1
275 703 m 128,-1,35
 336 686 336 686 348 686 c 0,36,37
 371 686 371 686 406 730 c 2,38,-1
 417 744 l 1,39,-1
 433 744 l 1,40,-1
 492 690 l 1,41,-1
 492 674 l 1,42,-1
 411 559 l 1,43,-1
 394 555 l 1,44,45
 376 555 376 555 315 572 c 128,-1,46
 254 589 254 589 241.5 589 c 128,-1,47
 229 589 229 589 212 574.5 c 128,-1,48
 195 560 195 560 173 531 c 1,49,-1
 157 531 l 1,50,-1
 98 585 l 1,51,-1
 98 601 l 1,52,-1
 179 716 l 1,53,-1
 196 720 l 1,54,34
 214 720 214 720 275 703 c 128,-1,35
279 238 m 2,55,56
 303 238 303 238 318 239 c 1,57,-1
 294 363 l 1,58,-1
 275 363 l 1,59,-1
 241 238 l 1,60,-1
 279 238 l 2,55,56
EndSplineSet
EndChar

StartChar: adieresis
Encoding: 228 228 165
Width: 586
GlyphClass: 2
Flags: W
LayerCount: 2
Fore
SplineSet
340 101 m 1,0,-1
 337 131 l 1,1,2
 314 132 314 132 276 132 c 1,3,-1
 213 129 l 1,4,5
 206 99 206 99 206 89.5 c 128,-1,6
 206 80 206 80 209 78 c 128,-1,7
 212 76 212 76 228 76 c 2,8,-1
 246 76 l 1,9,-1
 254 67 l 1,10,-1
 247 -3 l 1,11,12
 167 -1 167 -1 117 -1 c 2,13,-1
 4 -1 l 1,14,-1
 10 72 l 1,15,16
 38 80 38 80 49 111 c 2,17,-1
 177 500 l 1,18,-1
 418 513 l 1,19,-1
 431 502 l 1,20,21
 512 192 512 192 528 134 c 128,-1,22
 544 76 544 76 576 73 c 1,23,-1
 582 64 l 1,24,-1
 575 -2 l 1,25,26
 502 -1 502 -1 455 -1 c 2,27,-1
 291 -4 l 1,28,-1
 284 3 l 1,29,-1
 289 75 l 1,30,31
 334 80 334 80 338 86 c 0,32,33
 340 90 340 90 340 101 c 1,0,-1
279 238 m 2,34,35
 303 238 303 238 318 239 c 1,36,-1
 294 363 l 1,37,-1
 275 363 l 1,38,-1
 241 238 l 1,39,-1
 279 238 l 2,34,35
389 541 m 0,40,41
 309 541 309 541 309 621 c 0,42,43
 309 661 309 661 332 684.5 c 128,-1,44
 355 708 355 708 394 708 c 128,-1,45
 433 708 433 708 453.5 687 c 128,-1,46
 474 666 474 666 474 627 c 128,-1,47
 474 588 474 588 451 564.5 c 128,-1,48
 428 541 428 541 389 541 c 0,40,41
196 541 m 0,49,50
 117 541 117 541 117 621 c 0,51,52
 117 661 117 661 140 684.5 c 128,-1,53
 163 708 163 708 202 708 c 128,-1,54
 241 708 241 708 261.5 687 c 128,-1,55
 282 666 282 666 282 627 c 128,-1,56
 282 588 282 588 259 564.5 c 128,-1,57
 236 541 236 541 196 541 c 0,49,50
EndSplineSet
EndChar

StartChar: aring
Encoding: 229 229 166
Width: 586
GlyphClass: 2
Flags: W
LayerCount: 2
Fore
SplineSet
340 101 m 1,0,-1
 337 131 l 1,1,2
 314 132 314 132 276 132 c 1,3,-1
 213 129 l 1,4,5
 206 99 206 99 206 89.5 c 128,-1,6
 206 80 206 80 209 78 c 128,-1,7
 212 76 212 76 228 76 c 2,8,-1
 246 76 l 1,9,-1
 254 67 l 1,10,-1
 247 -3 l 1,11,12
 167 -1 167 -1 117 -1 c 2,13,-1
 4 -1 l 1,14,-1
 10 72 l 1,15,16
 38 80 38 80 49 111 c 2,17,-1
 177 500 l 1,18,-1
 418 513 l 1,19,-1
 431 502 l 1,20,21
 512 192 512 192 528 134 c 128,-1,22
 544 76 544 76 576 73 c 1,23,-1
 582 64 l 1,24,-1
 575 -2 l 1,25,26
 502 -1 502 -1 455 -1 c 2,27,-1
 291 -4 l 1,28,-1
 284 3 l 1,29,-1
 289 75 l 1,30,31
 334 80 334 80 338 86 c 0,32,33
 340 90 340 90 340 101 c 1,0,-1
279 238 m 2,34,35
 303 238 303 238 318 239 c 1,36,-1
 294 363 l 1,37,-1
 275 363 l 1,38,-1
 241 238 l 1,39,-1
 279 238 l 2,34,35
372 551 m 128,-1,41
 342 518 342 518 292.5 518 c 128,-1,42
 243 518 243 518 216.5 546 c 128,-1,43
 190 574 190 574 190 621 c 128,-1,44
 190 668 190 668 220 698 c 128,-1,45
 250 728 250 728 301 728 c 128,-1,46
 352 728 352 728 377 700 c 128,-1,47
 402 672 402 672 402 628 c 128,-1,40
 402 584 402 584 372 551 c 128,-1,41
298 588 m 0,48,49
 333 588 333 588 333 621 c 0,50,51
 333 656 333 656 296 656 c 128,-1,52
 259 656 259 656 259 624 c 0,53,54
 259 605 259 605 271 596.5 c 128,-1,55
 283 588 283 588 298 588 c 0,48,49
EndSplineSet
EndChar

StartChar: ae
Encoding: 230 230 167
Width: 807
GlyphClass: 2
Flags: W
LayerCount: 2
Fore
SplineSet
185 406 m 1,0,1
 183 429 183 429 164 429 c 2,2,-1
 143 428 l 1,3,-1
 132 440 l 1,4,-1
 140 506 l 1,5,6
 595 500 595 500 726 513 c 1,7,-1
 738 500 l 1,8,9
 723 414 723 414 719 340 c 1,10,-1
 594 333 l 1,11,12
 596 351 596 351 596 368 c 128,-1,13
 596 385 596 385 581 393 c 128,-1,14
 566 401 566 401 536.5 401 c 128,-1,15
 507 401 507 401 502 397.5 c 128,-1,16
 497 394 497 394 497 383 c 1,17,-1
 511 295 l 1,18,-1
 567 306 l 1,19,-1
 652 328 l 1,20,-1
 667 313 l 1,21,-1
 657 214 l 1,22,-1
 577 203 l 1,23,-1
 528 193 l 1,24,-1
 535 150 l 2,25,26
 543 98 543 98 577 98 c 0,27,28
 620 98 620 98 634.5 113.5 c 128,-1,29
 649 129 649 129 656 179 c 1,30,-1
 772 187 l 1,31,-1
 783 174 l 1,32,33
 768 96 768 96 759 8 c 1,34,-1
 746 -5 l 1,35,36
 608 0 608 0 474 0 c 2,37,-1
 438 0 l 1,38,-1
 293 -4 l 1,39,-1
 287 3 l 1,40,-1
 293 75 l 1,41,42
 325 78 325 78 335.5 84.5 c 128,-1,43
 346 91 346 91 346 107 c 2,44,-1
 346 127 l 1,45,-1
 343 162 l 1,46,-1
 283 151 l 1,47,-1
 221 132 l 1,48,-1
 210 85 l 1,49,50
 210 78 210 78 214.5 77 c 128,-1,51
 219 76 219 76 234 76 c 2,52,-1
 255 76 l 1,53,-1
 256 67 l 1,54,-1
 250 -3 l 1,55,56
 246 -1 246 -1 80 -1 c 2,57,-1
 12 -1 l 1,58,-1
 10 74 l 1,59,60
 42 81 42 81 57 111 c 1,61,-1
 185 406 l 1,0,1
264 254 m 1,62,-1
 295 257 l 1,63,-1
 334 264 l 1,64,-1
 324 363 l 1,65,-1
 305 363 l 1,66,-1
 264 254 l 1,62,-1
EndSplineSet
EndChar

StartChar: ccedilla
Encoding: 231 231 168
Width: 512
GlyphClass: 2
Flags: W
LayerCount: 2
Fore
SplineSet
481 207 m 1,0,1
 473 119 473 119 473 34 c 1,2,-1
 461 21 l 1,3,4
 387 -2 387 -2 296 -7 c 1,5,-1
 289 -38 l 1,6,7
 331 -58 331 -58 364 -85.5 c 128,-1,8
 397 -113 397 -113 397 -148.5 c 128,-1,9
 397 -184 397 -184 354 -213 c 128,-1,10
 311 -242 311 -242 249 -242 c 0,11,12
 217 -242 217 -242 189 -227.5 c 128,-1,13
 161 -213 161 -213 161 -191 c 128,-1,14
 161 -169 161 -169 210 -120 c 1,15,-1
 219 -120 l 1,16,17
 220 -147 220 -147 233 -161.5 c 128,-1,18
 246 -176 246 -176 273 -176 c 128,-1,19
 300 -176 300 -176 300 -152.5 c 128,-1,20
 300 -129 300 -129 213 -87 c 1,21,-1
 233 -7 l 1,22,23
 129 1 129 1 73 66 c 128,-1,24
 17 131 17 131 17 253.5 c 128,-1,25
 17 376 17 376 91 444.5 c 128,-1,26
 165 513 165 513 308 513 c 0,27,28
 371 513 371 513 487 493 c 1,29,-1
 494 475 l 1,30,31
 476 402 476 402 470 303 c 1,32,-1
 331 295 l 1,33,34
 332 315 332 315 332 343 c 128,-1,35
 332 371 332 371 321.5 383 c 128,-1,36
 311 395 311 395 278 395 c 128,-1,37
 245 395 245 395 233 371 c 128,-1,38
 221 347 221 347 221 267 c 128,-1,39
 221 187 221 187 236 150.5 c 128,-1,40
 251 114 251 114 283.5 114 c 128,-1,41
 316 114 316 114 328 132.5 c 128,-1,42
 340 151 340 151 343 198 c 1,43,-1
 481 207 l 1,0,1
EndSplineSet
EndChar

StartChar: egrave
Encoding: 232 232 169
Width: 516
GlyphClass: 2
Flags: W
LayerCount: 2
Fore
SplineSet
251 146 m 2,0,1
 251 116 251 116 257 107.5 c 128,-1,2
 263 99 263 99 298.5 99 c 128,-1,3
 334 99 334 99 351 114 c 128,-1,4
 368 129 368 129 375 179 c 1,5,-1
 490 187 l 1,6,-1
 501 174 l 1,7,8
 486 96 486 96 478 8 c 1,9,-1
 464 -5 l 1,10,11
 331 0 331 0 244 0 c 0,12,13
 117 0 117 0 13 -8 c 1,14,-1
 21 70 l 1,15,16
 51 74 51 74 62 89 c 128,-1,17
 73 104 73 104 73 139 c 2,18,-1
 74 387 l 2,19,20
 74 412 74 412 70 420.5 c 128,-1,21
 66 429 66 429 53 429 c 2,22,-1
 32 428 l 1,23,-1
 21 440 l 1,24,-1
 29 506 l 1,25,26
 153 504 153 504 280 504 c 128,-1,27
 407 504 407 504 490 513 c 1,28,-1
 502 500 l 1,29,30
 487 414 487 414 483 340 c 1,31,-1
 358 333 l 1,32,33
 360 351 360 351 360 368 c 128,-1,34
 360 385 360 385 345 393 c 128,-1,35
 330 401 330 401 300 401 c 128,-1,36
 270 401 270 401 265 397 c 128,-1,37
 260 393 260 393 260 382 c 2,38,-1
 256 305 l 1,39,-1
 321 305 l 1,40,-1
 411 309 l 1,41,-1
 422 296 l 1,42,-1
 410 199 l 1,43,44
 350 201 350 201 330.5 201 c 128,-1,45
 311 201 311 201 251 197 c 1,46,-1
 251 146 l 2,0,1
111 602 m 1,47,-1
 104 618 l 1,48,-1
 140 726 l 1,49,-1
 156 731 l 1,50,51
 282 677 282 677 405 631 c 1,52,-1
 384 560 l 1,53,-1
 365 547 l 1,54,55
 272 571 272 571 111 602 c 1,47,-1
EndSplineSet
EndChar

StartChar: eacute
Encoding: 233 233 170
Width: 516
GlyphClass: 2
Flags: W
LayerCount: 2
Fore
SplineSet
251 146 m 2,0,1
 251 116 251 116 257 107.5 c 128,-1,2
 263 99 263 99 298.5 99 c 128,-1,3
 334 99 334 99 351 114 c 128,-1,4
 368 129 368 129 375 179 c 1,5,-1
 490 187 l 1,6,-1
 501 174 l 1,7,8
 486 96 486 96 478 8 c 1,9,-1
 464 -5 l 1,10,11
 331 0 331 0 244 0 c 0,12,13
 117 0 117 0 13 -8 c 1,14,-1
 21 70 l 1,15,16
 51 74 51 74 62 89 c 128,-1,17
 73 104 73 104 73 139 c 2,18,-1
 74 387 l 2,19,20
 74 412 74 412 70 420.5 c 128,-1,21
 66 429 66 429 53 429 c 2,22,-1
 32 428 l 1,23,-1
 21 440 l 1,24,-1
 29 506 l 1,25,26
 153 504 153 504 280 504 c 128,-1,27
 407 504 407 504 490 513 c 1,28,-1
 502 500 l 1,29,30
 487 414 487 414 483 340 c 1,31,-1
 358 333 l 1,32,33
 360 351 360 351 360 368 c 128,-1,34
 360 385 360 385 345 393 c 128,-1,35
 330 401 330 401 300 401 c 128,-1,36
 270 401 270 401 265 397 c 128,-1,37
 260 393 260 393 260 382 c 2,38,-1
 256 305 l 1,39,-1
 321 305 l 1,40,-1
 411 309 l 1,41,-1
 422 296 l 1,42,-1
 410 199 l 1,43,44
 350 201 350 201 330.5 201 c 128,-1,45
 311 201 311 201 251 197 c 1,46,-1
 251 146 l 2,0,1
458 618 m 1,47,-1
 451 602 l 1,48,49
 321 578 321 578 197 547 c 1,50,-1
 178 560 l 1,51,-1
 157 631 l 1,52,53
 260 669 260 669 406 731 c 1,54,-1
 422 726 l 1,55,-1
 458 618 l 1,47,-1
EndSplineSet
EndChar

StartChar: ecircumflex
Encoding: 234 234 171
Width: 516
GlyphClass: 2
Flags: W
LayerCount: 2
Fore
SplineSet
251 146 m 2,0,1
 251 116 251 116 257 107.5 c 128,-1,2
 263 99 263 99 298.5 99 c 128,-1,3
 334 99 334 99 351 114 c 128,-1,4
 368 129 368 129 375 179 c 1,5,-1
 490 187 l 1,6,-1
 501 174 l 1,7,8
 486 96 486 96 478 8 c 1,9,-1
 464 -5 l 1,10,11
 331 0 331 0 244 0 c 0,12,13
 117 0 117 0 13 -8 c 1,14,-1
 21 70 l 1,15,16
 51 74 51 74 62 89 c 128,-1,17
 73 104 73 104 73 139 c 2,18,-1
 74 387 l 2,19,20
 74 412 74 412 70 420.5 c 128,-1,21
 66 429 66 429 53 429 c 2,22,-1
 32 428 l 1,23,-1
 21 440 l 1,24,-1
 29 506 l 1,25,26
 153 504 153 504 280 504 c 128,-1,27
 407 504 407 504 490 513 c 1,28,-1
 502 500 l 1,29,30
 487 414 487 414 483 340 c 1,31,-1
 358 333 l 1,32,33
 360 351 360 351 360 368 c 128,-1,34
 360 385 360 385 345 393 c 128,-1,35
 330 401 330 401 300 401 c 128,-1,36
 270 401 270 401 265 397 c 128,-1,37
 260 393 260 393 260 382 c 2,38,-1
 256 305 l 1,39,-1
 321 305 l 1,40,-1
 411 309 l 1,41,-1
 422 296 l 1,42,-1
 410 199 l 1,43,44
 350 201 350 201 330.5 201 c 128,-1,45
 311 201 311 201 251 197 c 1,46,-1
 251 146 l 2,0,1
295 744 m 1,47,48
 295 747 295 747 320 727 c 0,49,50
 419 646 419 646 471 606 c 1,51,-1
 436 544 l 1,52,-1
 413 537 l 1,53,54
 366 557 366 557 281 588 c 1,55,56
 229 569 229 569 150 537 c 1,57,-1
 127 544 l 1,58,-1
 91 606 l 1,59,60
 174 666 174 666 268 744 c 1,61,-1
 295 744 l 1,47,48
EndSplineSet
EndChar

StartChar: edieresis
Encoding: 235 235 172
Width: 516
GlyphClass: 2
Flags: W
LayerCount: 2
Fore
SplineSet
251 146 m 2,0,1
 251 116 251 116 257 107.5 c 128,-1,2
 263 99 263 99 298.5 99 c 128,-1,3
 334 99 334 99 351 114 c 128,-1,4
 368 129 368 129 375 179 c 1,5,-1
 490 187 l 1,6,-1
 501 174 l 1,7,8
 486 96 486 96 478 8 c 1,9,-1
 464 -5 l 1,10,11
 331 0 331 0 244 0 c 0,12,13
 117 0 117 0 13 -8 c 1,14,-1
 21 70 l 1,15,16
 51 74 51 74 62 89 c 128,-1,17
 73 104 73 104 73 139 c 2,18,-1
 74 387 l 2,19,20
 74 412 74 412 70 420.5 c 128,-1,21
 66 429 66 429 53 429 c 2,22,-1
 32 428 l 1,23,-1
 21 440 l 1,24,-1
 29 506 l 1,25,26
 153 504 153 504 280 504 c 128,-1,27
 407 504 407 504 490 513 c 1,28,-1
 502 500 l 1,29,30
 487 414 487 414 483 340 c 1,31,-1
 358 333 l 1,32,33
 360 351 360 351 360 368 c 128,-1,34
 360 385 360 385 345 393 c 128,-1,35
 330 401 330 401 300 401 c 128,-1,36
 270 401 270 401 265 397 c 128,-1,37
 260 393 260 393 260 382 c 2,38,-1
 256 305 l 1,39,-1
 321 305 l 1,40,-1
 411 309 l 1,41,-1
 422 296 l 1,42,-1
 410 199 l 1,43,44
 350 201 350 201 330.5 201 c 128,-1,45
 311 201 311 201 251 197 c 1,46,-1
 251 146 l 2,0,1
373 541 m 0,47,48
 293 541 293 541 293 621 c 0,49,50
 293 661 293 661 316 684.5 c 128,-1,51
 339 708 339 708 378 708 c 128,-1,52
 417 708 417 708 437.5 687 c 128,-1,53
 458 666 458 666 458 627 c 128,-1,54
 458 588 458 588 435 564.5 c 128,-1,55
 412 541 412 541 373 541 c 0,47,48
180 541 m 0,56,57
 101 541 101 541 101 621 c 0,58,59
 101 661 101 661 124 684.5 c 128,-1,60
 147 708 147 708 186 708 c 128,-1,61
 225 708 225 708 245.5 687 c 128,-1,62
 266 666 266 666 266 627 c 128,-1,63
 266 588 266 588 243 564.5 c 128,-1,64
 220 541 220 541 180 541 c 0,56,57
EndSplineSet
EndChar

StartChar: igrave
Encoding: 236 236 173
Width: 322
GlyphClass: 2
Flags: W
LayerCount: 2
Fore
SplineSet
251 127 m 0,0,1
 251 95 251 95 256 84.5 c 128,-1,2
 261 74 261 74 277 74 c 1,3,-1
 301 76 l 1,4,-1
 308 67 l 1,5,-1
 301 -3 l 1,6,7
 193 0 193 0 158 0 c 2,8,-1
 15 -3 l 1,9,-1
 22 69 l 1,10,11
 55 76 55 76 64.5 87.5 c 128,-1,12
 74 99 74 99 74 132 c 2,13,-1
 74 390 l 2,14,15
 74 414 74 414 68 421.5 c 128,-1,16
 62 429 62 429 45 429 c 2,17,-1
 25 429 l 1,18,-1
 17 441 l 1,19,-1
 24 504 l 1,20,-1
 162 504 l 1,21,-1
 311 507 l 1,22,-1
 305 431 l 1,23,24
 277 427 277 427 269 420 c 128,-1,25
 261 413 261 413 259 391 c 0,26,27
 251 287 251 287 251 127 c 0,0,1
-5 602 m 1,28,-1
 -12 618 l 1,29,-1
 24 726 l 1,30,-1
 40 731 l 1,31,32
 166 677 166 677 289 631 c 1,33,-1
 268 560 l 1,34,-1
 249 547 l 1,35,36
 156 571 156 571 -5 602 c 1,28,-1
EndSplineSet
EndChar

StartChar: iacute
Encoding: 237 237 174
Width: 322
GlyphClass: 2
Flags: W
LayerCount: 2
Fore
SplineSet
251 127 m 0,0,1
 251 95 251 95 256 84.5 c 128,-1,2
 261 74 261 74 277 74 c 1,3,-1
 301 76 l 1,4,-1
 308 67 l 1,5,-1
 301 -3 l 1,6,7
 193 0 193 0 158 0 c 2,8,-1
 15 -3 l 1,9,-1
 22 69 l 1,10,11
 55 76 55 76 64.5 87.5 c 128,-1,12
 74 99 74 99 74 132 c 2,13,-1
 74 390 l 2,14,15
 74 414 74 414 68 421.5 c 128,-1,16
 62 429 62 429 45 429 c 2,17,-1
 25 429 l 1,18,-1
 17 441 l 1,19,-1
 24 504 l 1,20,-1
 162 504 l 1,21,-1
 311 507 l 1,22,-1
 305 431 l 1,23,24
 277 427 277 427 269 420 c 128,-1,25
 261 413 261 413 259 391 c 0,26,27
 251 287 251 287 251 127 c 0,0,1
341 618 m 1,28,-1
 334 602 l 1,29,30
 204 578 204 578 80 547 c 1,31,-1
 61 560 l 1,32,-1
 40 631 l 1,33,34
 143 669 143 669 289 731 c 1,35,-1
 305 726 l 1,36,-1
 341 618 l 1,28,-1
EndSplineSet
EndChar

StartChar: icircumflex
Encoding: 238 238 175
Width: 322
GlyphClass: 2
Flags: W
LayerCount: 2
Fore
SplineSet
251 127 m 0,0,1
 251 95 251 95 256 84.5 c 128,-1,2
 261 74 261 74 277 74 c 1,3,-1
 301 76 l 1,4,-1
 308 67 l 1,5,-1
 301 -3 l 1,6,7
 193 0 193 0 158 0 c 2,8,-1
 15 -3 l 1,9,-1
 22 69 l 1,10,11
 55 76 55 76 64.5 87.5 c 128,-1,12
 74 99 74 99 74 132 c 2,13,-1
 74 390 l 2,14,15
 74 414 74 414 68 421.5 c 128,-1,16
 62 429 62 429 45 429 c 2,17,-1
 25 429 l 1,18,-1
 17 441 l 1,19,-1
 24 504 l 1,20,-1
 162 504 l 1,21,-1
 311 507 l 1,22,-1
 305 431 l 1,23,24
 277 427 277 427 269 420 c 128,-1,25
 261 413 261 413 259 391 c 0,26,27
 251 287 251 287 251 127 c 0,0,1
178 744 m 1,28,29
 178 747 178 747 202 727 c 0,30,31
 302 646 302 646 354 606 c 1,32,-1
 319 544 l 1,33,-1
 296 537 l 1,34,35
 249 557 249 557 164 588 c 1,36,37
 112 569 112 569 33 537 c 1,38,-1
 10 544 l 1,39,-1
 -26 606 l 1,40,41
 57 666 57 666 151 744 c 1,42,-1
 178 744 l 1,28,29
EndSplineSet
EndChar

StartChar: idieresis
Encoding: 239 239 176
Width: 322
GlyphClass: 2
Flags: W
LayerCount: 2
Fore
SplineSet
251 127 m 0,0,1
 251 95 251 95 256 84.5 c 128,-1,2
 261 74 261 74 277 74 c 1,3,-1
 301 76 l 1,4,-1
 308 67 l 1,5,-1
 301 -3 l 1,6,7
 193 0 193 0 158 0 c 2,8,-1
 15 -3 l 1,9,-1
 22 69 l 1,10,11
 55 76 55 76 64.5 87.5 c 128,-1,12
 74 99 74 99 74 132 c 2,13,-1
 74 390 l 2,14,15
 74 414 74 414 68 421.5 c 128,-1,16
 62 429 62 429 45 429 c 2,17,-1
 25 429 l 1,18,-1
 17 441 l 1,19,-1
 24 504 l 1,20,-1
 162 504 l 1,21,-1
 311 507 l 1,22,-1
 305 431 l 1,23,24
 277 427 277 427 269 420 c 128,-1,25
 261 413 261 413 259 391 c 0,26,27
 251 287 251 287 251 127 c 0,0,1
256 541 m 0,28,29
 176 541 176 541 176 621 c 0,30,31
 176 661 176 661 199 684.5 c 128,-1,32
 222 708 222 708 261 708 c 128,-1,33
 300 708 300 708 320.5 687 c 128,-1,34
 341 666 341 666 341 627 c 128,-1,35
 341 588 341 588 318 564.5 c 128,-1,36
 295 541 295 541 256 541 c 0,28,29
63 541 m 0,37,38
 -16 541 -16 541 -16 621 c 0,39,40
 -16 661 -16 661 7 684.5 c 128,-1,41
 30 708 30 708 69 708 c 128,-1,42
 108 708 108 708 128.5 687 c 128,-1,43
 149 666 149 666 149 627 c 128,-1,44
 149 588 149 588 126 564.5 c 128,-1,45
 103 541 103 541 63 541 c 0,37,38
EndSplineSet
EndChar

StartChar: eth
Encoding: 240 240 177
Width: 599
GlyphClass: 2
Flags: W
LayerCount: 2
Fore
SplineSet
99 132 m 2,0,-1
 99 201 l 1,1,-1
 23 201 l 1,2,-1
 15 208 l 1,3,-1
 26 285 l 1,4,-1
 99 285 l 1,5,-1
 99 386 l 2,6,7
 99 410 99 410 94.5 419 c 128,-1,8
 90 428 90 428 79 428 c 2,9,-1
 53 426 l 1,10,-1
 44 438 l 1,11,-1
 51 506 l 1,12,13
 148 504 148 504 183 504 c 1,14,-1
 322 509 l 1,15,16
 584 509 584 509 584 275 c 0,17,18
 584 142 584 142 507 66.5 c 128,-1,19
 430 -9 430 -9 295 -9 c 1,20,21
 215 0 215 0 161 0 c 1,22,-1
 39 -6 l 1,23,-1
 46 73 l 1,24,25
 76 77 76 77 87.5 90 c 128,-1,26
 99 103 99 103 99 132 c 2,0,-1
272 202 m 1,27,-1
 272 130 l 2,28,29
 272 111 272 111 276.5 104.5 c 128,-1,30
 281 98 281 98 292 98 c 0,31,32
 341 98 341 98 360 129.5 c 128,-1,33
 379 161 379 161 379 249 c 128,-1,34
 379 337 379 337 362.5 368 c 128,-1,35
 346 399 346 399 296 399 c 0,36,37
 281 399 281 399 280 378 c 2,38,-1
 275 286 l 1,39,-1
 326 289 l 1,40,-1
 333 280 l 1,41,-1
 327 202 l 1,42,-1
 272 202 l 1,27,-1
EndSplineSet
EndChar

StartChar: ntilde
Encoding: 241 241 178
Width: 630
GlyphClass: 2
Flags: W
LayerCount: 2
Fore
SplineSet
387 430 m 2,0,-1
 362 430 l 1,1,-1
 357 439 l 1,2,-1
 361 507 l 1,3,4
 458 504 458 504 542 504 c 128,-1,5
 626 504 626 504 626 506 c 2,6,-1
 622 430 l 1,7,8
 596 426 596 426 586 415.5 c 128,-1,9
 576 405 576 405 575 381 c 2,10,-1
 564 4 l 1,11,-1
 391 -5 l 1,12,-1
 239 217 l 1,13,-1
 225 217 l 1,14,-1
 229 114 l 2,15,16
 230 90 230 90 236.5 81.5 c 128,-1,17
 243 73 243 73 262 73 c 1,18,-1
 288 76 l 1,19,-1
 297 69 l 1,20,-1
 287 -3 l 1,21,22
 190 0 190 0 154 0 c 1,23,-1
 20 -6 l 1,24,-1
 29 70 l 1,25,26
 53 73 53 73 63.5 84.5 c 128,-1,27
 74 96 74 96 75 119 c 2,28,-1
 85 378 l 1,29,30
 85 405 85 405 74 413.5 c 128,-1,31
 63 422 63 422 24 427 c 1,32,-1
 13 439 l 1,33,-1
 18 508 l 1,34,35
 82 504 82 504 148 504 c 1,36,-1
 261 507 l 1,37,38
 314 416 314 416 404 285 c 1,39,-1
 418 285 l 1,40,-1
 414 396 l 1,41,42
 412 416 412 416 407 423 c 128,-1,43
 402 430 402 430 387 430 c 2,0,-1
308 703 m 128,-1,45
 369 686 369 686 382 686 c 0,46,47
 404 686 404 686 438 730 c 1,48,-1
 450 744 l 1,49,-1
 466 744 l 1,50,-1
 525 690 l 1,51,-1
 525 674 l 1,52,-1
 444 559 l 1,53,-1
 427 555 l 1,54,55
 409 555 409 555 348 572 c 128,-1,56
 287 589 287 589 274.5 589 c 128,-1,57
 262 589 262 589 245 574.5 c 128,-1,58
 228 560 228 560 206 531 c 1,59,-1
 190 531 l 1,60,-1
 131 585 l 1,61,-1
 131 601 l 1,62,-1
 212 716 l 1,63,-1
 229 720 l 1,64,44
 247 720 247 720 308 703 c 128,-1,45
EndSplineSet
EndChar

StartChar: ograve
Encoding: 242 242 179
Width: 554
GlyphClass: 2
Flags: W
LayerCount: 2
Fore
SplineSet
234.5 137.5 m 128,-1,1
 246 99 246 99 278 99 c 128,-1,2
 310 99 310 99 320.5 123 c 128,-1,3
 331 147 331 147 331 234 c 128,-1,4
 331 321 331 321 319.5 358.5 c 128,-1,5
 308 396 308 396 275.5 396 c 128,-1,6
 243 396 243 396 233 373 c 128,-1,7
 223 350 223 350 223 263 c 128,-1,0
 223 176 223 176 234.5 137.5 c 128,-1,1
467.5 61 m 128,-1,9
 398 -9 398 -9 271 -9 c 0,10,11
 17 -9 17 -9 17 245 c 0,12,13
 17 513 17 513 288 513 c 0,14,15
 414 513 414 513 475.5 451.5 c 128,-1,16
 537 390 537 390 537 260.5 c 128,-1,8
 537 131 537 131 467.5 61 c 128,-1,9
106 602 m 1,17,-1
 99 618 l 1,18,-1
 135 726 l 1,19,-1
 151 731 l 1,20,21
 277 677 277 677 400 631 c 1,22,-1
 379 560 l 1,23,-1
 360 547 l 1,24,25
 267 571 267 571 106 602 c 1,17,-1
EndSplineSet
EndChar

StartChar: oacute
Encoding: 243 243 180
Width: 554
GlyphClass: 2
Flags: W
LayerCount: 2
Fore
SplineSet
234.5 137.5 m 128,-1,1
 246 99 246 99 278 99 c 128,-1,2
 310 99 310 99 320.5 123 c 128,-1,3
 331 147 331 147 331 234 c 128,-1,4
 331 321 331 321 319.5 358.5 c 128,-1,5
 308 396 308 396 275.5 396 c 128,-1,6
 243 396 243 396 233 373 c 128,-1,7
 223 350 223 350 223 263 c 128,-1,0
 223 176 223 176 234.5 137.5 c 128,-1,1
467.5 61 m 128,-1,9
 398 -9 398 -9 271 -9 c 0,10,11
 17 -9 17 -9 17 245 c 0,12,13
 17 513 17 513 288 513 c 0,14,15
 414 513 414 513 475.5 451.5 c 128,-1,16
 537 390 537 390 537 260.5 c 128,-1,8
 537 131 537 131 467.5 61 c 128,-1,9
453 618 m 1,17,-1
 446 602 l 1,18,19
 316 578 316 578 192 547 c 1,20,-1
 173 560 l 1,21,-1
 152 631 l 1,22,23
 255 669 255 669 401 731 c 1,24,-1
 417 726 l 1,25,-1
 453 618 l 1,17,-1
EndSplineSet
EndChar

StartChar: ocircumflex
Encoding: 244 244 181
Width: 554
GlyphClass: 2
Flags: W
LayerCount: 2
Fore
SplineSet
234.5 137.5 m 128,-1,1
 246 99 246 99 278 99 c 128,-1,2
 310 99 310 99 320.5 123 c 128,-1,3
 331 147 331 147 331 234 c 128,-1,4
 331 321 331 321 319.5 358.5 c 128,-1,5
 308 396 308 396 275.5 396 c 128,-1,6
 243 396 243 396 233 373 c 128,-1,7
 223 350 223 350 223 263 c 128,-1,0
 223 176 223 176 234.5 137.5 c 128,-1,1
467.5 61 m 128,-1,9
 398 -9 398 -9 271 -9 c 0,10,11
 17 -9 17 -9 17 245 c 0,12,13
 17 513 17 513 288 513 c 0,14,15
 414 513 414 513 475.5 451.5 c 128,-1,16
 537 390 537 390 537 260.5 c 128,-1,8
 537 131 537 131 467.5 61 c 128,-1,9
289 744 m 1,17,18
 289 747 289 747 314 727 c 0,19,20
 413 646 413 646 465 606 c 1,21,-1
 430 544 l 1,22,-1
 407 537 l 1,23,24
 360 557 360 557 275 588 c 1,25,26
 223 569 223 569 144 537 c 1,27,-1
 121 544 l 1,28,-1
 85 606 l 1,29,30
 168 666 168 666 262 744 c 1,31,-1
 289 744 l 1,17,18
EndSplineSet
EndChar

StartChar: otilde
Encoding: 245 245 182
Width: 554
GlyphClass: 2
Flags: W
LayerCount: 2
Fore
SplineSet
234.5 137.5 m 128,-1,1
 246 99 246 99 278 99 c 128,-1,2
 310 99 310 99 320.5 123 c 128,-1,3
 331 147 331 147 331 234 c 128,-1,4
 331 321 331 321 319.5 358.5 c 128,-1,5
 308 396 308 396 275.5 396 c 128,-1,6
 243 396 243 396 233 373 c 128,-1,7
 223 350 223 350 223 263 c 128,-1,0
 223 176 223 176 234.5 137.5 c 128,-1,1
467.5 61 m 128,-1,9
 398 -9 398 -9 271 -9 c 0,10,11
 17 -9 17 -9 17 245 c 0,12,13
 17 513 17 513 288 513 c 0,14,15
 414 513 414 513 475.5 451.5 c 128,-1,16
 537 390 537 390 537 260.5 c 128,-1,8
 537 131 537 131 467.5 61 c 128,-1,9
254 703 m 128,-1,18
 315 686 315 686 328 686 c 0,19,20
 350 686 350 686 384 730 c 1,21,-1
 396 744 l 1,22,-1
 412 744 l 1,23,-1
 471 690 l 1,24,-1
 471 674 l 1,25,-1
 390 559 l 1,26,-1
 373 555 l 1,27,28
 355 555 355 555 294 572 c 128,-1,29
 233 589 233 589 220.5 589 c 128,-1,30
 208 589 208 589 191 574.5 c 128,-1,31
 174 560 174 560 152 531 c 1,32,-1
 136 531 l 1,33,-1
 77 585 l 1,34,-1
 77 601 l 1,35,-1
 158 716 l 1,36,-1
 175 720 l 1,37,17
 193 720 193 720 254 703 c 128,-1,18
EndSplineSet
EndChar

StartChar: odieresis
Encoding: 246 246 183
Width: 554
GlyphClass: 2
Flags: W
LayerCount: 2
Fore
SplineSet
234.5 137.5 m 128,-1,1
 246 99 246 99 278 99 c 128,-1,2
 310 99 310 99 320.5 123 c 128,-1,3
 331 147 331 147 331 234 c 128,-1,4
 331 321 331 321 319.5 358.5 c 128,-1,5
 308 396 308 396 275.5 396 c 128,-1,6
 243 396 243 396 233 373 c 128,-1,7
 223 350 223 350 223 263 c 128,-1,0
 223 176 223 176 234.5 137.5 c 128,-1,1
467.5 61 m 128,-1,9
 398 -9 398 -9 271 -9 c 0,10,11
 17 -9 17 -9 17 245 c 0,12,13
 17 513 17 513 288 513 c 0,14,15
 414 513 414 513 475.5 451.5 c 128,-1,16
 537 390 537 390 537 260.5 c 128,-1,8
 537 131 537 131 467.5 61 c 128,-1,9
368 541 m 0,17,18
 288 541 288 541 288 621 c 0,19,20
 288 661 288 661 311 684.5 c 128,-1,21
 334 708 334 708 373 708 c 128,-1,22
 412 708 412 708 432.5 687 c 128,-1,23
 453 666 453 666 453 627 c 128,-1,24
 453 588 453 588 430 564.5 c 128,-1,25
 407 541 407 541 368 541 c 0,17,18
175 541 m 0,26,27
 96 541 96 541 96 621 c 0,28,29
 96 661 96 661 119 684.5 c 128,-1,30
 142 708 142 708 181 708 c 128,-1,31
 220 708 220 708 240.5 687 c 128,-1,32
 261 666 261 666 261 627 c 128,-1,33
 261 588 261 588 238 564.5 c 128,-1,34
 215 541 215 541 175 541 c 0,26,27
EndSplineSet
EndChar

StartChar: divide
Encoding: 247 247 184
Width: 506
GlyphClass: 2
Flags: W
LayerCount: 2
Fore
SplineSet
483 329 m 1,0,-1
 490 314 l 1,1,-1
 477 178 l 1,2,-1
 24 176 l 1,3,-1
 15 189 l 1,4,-1
 33 324 l 1,5,6
 173 323 173 323 262 323 c 1,7,-1
 483 329 l 1,0,-1
309 7 m 128,-1,9
 286 -17 286 -17 246 -17 c 128,-1,10
 206 -17 206 -17 185.5 4 c 128,-1,11
 165 25 165 25 165 65.5 c 128,-1,12
 165 106 165 106 188.5 130 c 128,-1,13
 212 154 212 154 251 154 c 128,-1,14
 290 154 290 154 311 132.5 c 128,-1,15
 332 111 332 111 332 71 c 128,-1,8
 332 31 332 31 309 7 c 128,-1,9
309 368 m 128,-1,17
 286 344 286 344 246 344 c 128,-1,18
 206 344 206 344 185.5 365 c 128,-1,19
 165 386 165 386 165 426.5 c 128,-1,20
 165 467 165 467 188.5 491 c 128,-1,21
 212 515 212 515 251 515 c 128,-1,22
 290 515 290 515 311 493.5 c 128,-1,23
 332 472 332 472 332 432 c 128,-1,16
 332 392 332 392 309 368 c 128,-1,17
EndSplineSet
EndChar

StartChar: oslash
Encoding: 248 248 185
Width: 554
GlyphClass: 2
Flags: W
LayerCount: 2
Fore
SplineSet
17 245 m 0,0,1
 17 513 17 513 288 513 c 0,2,3
 301 513 301 513 327 511 c 1,4,-1
 370 616 l 1,5,-1
 492 600 l 1,6,-1
 495 591 l 1,7,-1
 447 474 l 1,8,9
 537 414 537 414 537 272.5 c 128,-1,10
 537 131 537 131 467.5 61 c 128,-1,11
 398 -9 398 -9 266 -9 c 0,12,13
 254 -9 254 -9 232 -7 c 1,14,-1
 188 -111 l 1,15,-1
 67 -94 l 1,16,-1
 62 -87 l 1,17,-1
 113 29 l 1,18,19
 17 90 17 90 17 245 c 0,0,1
234.5 137.5 m 128,-1,21
 246 99 246 99 278 99 c 128,-1,22
 310 99 310 99 320.5 123 c 128,-1,23
 331 147 331 147 331 234 c 128,-1,24
 331 321 331 321 319.5 358.5 c 128,-1,25
 308 396 308 396 275.5 396 c 128,-1,26
 243 396 243 396 233 373 c 128,-1,27
 223 350 223 350 223 263 c 128,-1,20
 223 176 223 176 234.5 137.5 c 128,-1,21
EndSplineSet
EndChar

StartChar: ugrave
Encoding: 249 249 186
Width: 528
GlyphClass: 2
Flags: W
LayerCount: 2
Fore
SplineSet
282 99 m 128,-1,1
 308 99 308 99 320 112 c 128,-1,2
 332 125 332 125 332 156 c 2,3,-1
 331 387 l 1,4,5
 332 429 332 429 311 429 c 1,6,-1
 294 428 l 1,7,-1
 291 431 l 1,8,-1
 301 506 l 1,9,10
 371 504 371 504 401 504 c 2,11,-1
 526 506 l 1,12,-1
 519 429 l 1,13,14
 495 421 495 421 488 415 c 128,-1,15
 481 409 481 409 481 397 c 2,16,-1
 481 185 l 2,17,18
 481 -9 481 -9 258 -9 c 0,19,20
 148 -9 148 -9 99.5 29 c 128,-1,21
 51 67 51 67 51 153 c 2,22,-1
 51 387 l 2,23,24
 51 413 51 413 46.5 421 c 128,-1,25
 42 429 42 429 28 429 c 2,26,-1
 5 428 l 1,27,-1
 3 431 l 1,28,-1
 12 506 l 1,29,30
 96 504 96 504 166 504 c 1,31,-1
 280 507 l 1,32,-1
 271 427 l 1,33,34
 235 426 235 426 233 391 c 1,35,-1
 228 167 l 2,36,37
 228 136 228 136 242 117.5 c 128,-1,0
 256 99 256 99 282 99 c 128,-1,1
113 602 m 1,38,-1
 106 618 l 1,39,-1
 142 726 l 1,40,-1
 158 731 l 1,41,42
 284 677 284 677 407 631 c 1,43,-1
 386 560 l 1,44,-1
 367 547 l 1,45,46
 274 571 274 571 113 602 c 1,38,-1
EndSplineSet
EndChar

StartChar: uacute
Encoding: 250 250 187
Width: 528
GlyphClass: 2
Flags: W
LayerCount: 2
Fore
SplineSet
282 99 m 128,-1,1
 308 99 308 99 320 112 c 128,-1,2
 332 125 332 125 332 156 c 2,3,-1
 331 387 l 1,4,5
 332 429 332 429 311 429 c 1,6,-1
 294 428 l 1,7,-1
 291 431 l 1,8,-1
 301 506 l 1,9,10
 371 504 371 504 401 504 c 2,11,-1
 526 506 l 1,12,-1
 519 429 l 1,13,14
 495 421 495 421 488 415 c 128,-1,15
 481 409 481 409 481 397 c 2,16,-1
 481 185 l 2,17,18
 481 -9 481 -9 258 -9 c 0,19,20
 148 -9 148 -9 99.5 29 c 128,-1,21
 51 67 51 67 51 153 c 2,22,-1
 51 387 l 2,23,24
 51 413 51 413 46.5 421 c 128,-1,25
 42 429 42 429 28 429 c 2,26,-1
 5 428 l 1,27,-1
 3 431 l 1,28,-1
 12 506 l 1,29,30
 96 504 96 504 166 504 c 1,31,-1
 280 507 l 1,32,-1
 271 427 l 1,33,34
 235 426 235 426 233 391 c 1,35,-1
 228 167 l 2,36,37
 228 136 228 136 242 117.5 c 128,-1,0
 256 99 256 99 282 99 c 128,-1,1
460 618 m 1,38,-1
 453 602 l 1,39,40
 323 578 323 578 199 547 c 1,41,-1
 180 560 l 1,42,-1
 159 631 l 1,43,44
 262 669 262 669 408 731 c 1,45,-1
 424 726 l 1,46,-1
 460 618 l 1,38,-1
EndSplineSet
EndChar

StartChar: ucircumflex
Encoding: 251 251 188
Width: 528
GlyphClass: 2
Flags: W
LayerCount: 2
Fore
SplineSet
282 99 m 128,-1,1
 308 99 308 99 320 112 c 128,-1,2
 332 125 332 125 332 156 c 2,3,-1
 331 387 l 1,4,5
 332 429 332 429 311 429 c 1,6,-1
 294 428 l 1,7,-1
 291 431 l 1,8,-1
 301 506 l 1,9,10
 371 504 371 504 401 504 c 2,11,-1
 526 506 l 1,12,-1
 519 429 l 1,13,14
 495 421 495 421 488 415 c 128,-1,15
 481 409 481 409 481 397 c 2,16,-1
 481 185 l 2,17,18
 481 -9 481 -9 258 -9 c 0,19,20
 148 -9 148 -9 99.5 29 c 128,-1,21
 51 67 51 67 51 153 c 2,22,-1
 51 387 l 2,23,24
 51 413 51 413 46.5 421 c 128,-1,25
 42 429 42 429 28 429 c 2,26,-1
 5 428 l 1,27,-1
 3 431 l 1,28,-1
 12 506 l 1,29,30
 96 504 96 504 166 504 c 1,31,-1
 280 507 l 1,32,-1
 271 427 l 1,33,34
 235 426 235 426 233 391 c 1,35,-1
 228 167 l 2,36,37
 228 136 228 136 242 117.5 c 128,-1,0
 256 99 256 99 282 99 c 128,-1,1
296 744 m 1,38,39
 296 747 296 747 320 727 c 0,40,41
 420 646 420 646 472 606 c 1,42,-1
 437 544 l 1,43,-1
 414 537 l 1,44,45
 367 557 367 557 282 588 c 1,46,47
 230 569 230 569 151 537 c 1,48,-1
 128 544 l 1,49,-1
 92 606 l 1,50,51
 175 666 175 666 269 744 c 1,52,-1
 296 744 l 1,38,39
EndSplineSet
EndChar

StartChar: udieresis
Encoding: 252 252 189
Width: 528
GlyphClass: 2
Flags: W
LayerCount: 2
Fore
SplineSet
282 99 m 128,-1,1
 308 99 308 99 320 112 c 128,-1,2
 332 125 332 125 332 156 c 2,3,-1
 331 387 l 1,4,5
 332 429 332 429 311 429 c 1,6,-1
 294 428 l 1,7,-1
 291 431 l 1,8,-1
 301 506 l 1,9,10
 371 504 371 504 401 504 c 2,11,-1
 526 506 l 1,12,-1
 519 429 l 1,13,14
 495 421 495 421 488 415 c 128,-1,15
 481 409 481 409 481 397 c 2,16,-1
 481 185 l 2,17,18
 481 -9 481 -9 258 -9 c 0,19,20
 148 -9 148 -9 99.5 29 c 128,-1,21
 51 67 51 67 51 153 c 2,22,-1
 51 387 l 2,23,24
 51 413 51 413 46.5 421 c 128,-1,25
 42 429 42 429 28 429 c 2,26,-1
 5 428 l 1,27,-1
 3 431 l 1,28,-1
 12 506 l 1,29,30
 96 504 96 504 166 504 c 1,31,-1
 280 507 l 1,32,-1
 271 427 l 1,33,34
 235 426 235 426 233 391 c 1,35,-1
 228 167 l 2,36,37
 228 136 228 136 242 117.5 c 128,-1,0
 256 99 256 99 282 99 c 128,-1,1
375 541 m 0,38,39
 295 541 295 541 295 621 c 0,40,41
 295 661 295 661 318 684.5 c 128,-1,42
 341 708 341 708 380 708 c 128,-1,43
 419 708 419 708 439.5 687 c 128,-1,44
 460 666 460 666 460 627 c 128,-1,45
 460 588 460 588 437 564.5 c 128,-1,46
 414 541 414 541 375 541 c 0,38,39
182 541 m 0,47,48
 103 541 103 541 103 621 c 0,49,50
 103 661 103 661 126 684.5 c 128,-1,51
 149 708 149 708 188 708 c 128,-1,52
 227 708 227 708 247.5 687 c 128,-1,53
 268 666 268 666 268 627 c 128,-1,54
 268 588 268 588 245 564.5 c 128,-1,55
 222 541 222 541 182 541 c 0,47,48
EndSplineSet
EndChar

StartChar: yacute
Encoding: 253 253 190
Width: 578
GlyphClass: 2
Flags: W
LayerCount: 2
Fore
SplineSet
333 502 m 1,0,-1
 469 503 l 1,1,-1
 566 506 l 1,2,-1
 569 500 l 1,3,-1
 562 425 l 1,4,5
 537 410 537 410 512 383 c 128,-1,6
 487 356 487 356 472 328 c 2,7,-1
 398 186 l 1,8,9
 386 159 386 159 386 129 c 128,-1,10
 386 99 386 99 395 88 c 128,-1,11
 404 77 404 77 428 77 c 1,12,-1
 471 80 l 1,13,-1
 475 75 l 1,14,-1
 468 -5 l 1,15,16
 337 0 337 0 287 0 c 1,17,-1
 111 -7 l 1,18,-1
 117 71 l 1,19,20
 171 74 171 74 188.5 85 c 128,-1,21
 206 96 206 96 206 129 c 2,22,-1
 206 137 l 2,23,24
 206 165 206 165 183 204 c 2,25,-1
 92 361 l 1,26,27
 71 392 71 392 13 422 c 1,28,-1
 9 427 l 1,29,-1
 18 505 l 1,30,31
 121 503 121 503 147 503 c 1,32,-1
 300 509 l 1,33,-1
 307 499 l 1,34,-1
 298 429 l 1,35,36
 295 429 295 429 293 429 c 0,37,38
 268 429 268 429 268 411 c 0,39,40
 268 403 268 403 285 366 c 128,-1,41
 302 329 302 329 309 312 c 1,42,-1
 321 312 l 1,43,-1
 347 386 l 1,44,45
 358 408 358 408 358 419 c 128,-1,46
 358 430 358 430 334 430 c 0,47,48
 331 430 331 430 329 430 c 1,49,-1
 326 435 l 1,50,-1
 333 502 l 1,0,-1
487 618 m 1,51,-1
 480 602 l 1,52,53
 350 578 350 578 226 547 c 1,54,-1
 207 560 l 1,55,-1
 186 631 l 1,56,57
 289 669 289 669 435 731 c 1,58,-1
 451 726 l 1,59,-1
 487 618 l 1,51,-1
EndSplineSet
EndChar

StartChar: thorn
Encoding: 254 254 191
Width: 523
GlyphClass: 2
Flags: W
LayerCount: 2
Fore
SplineSet
314 408 m 2,0,1
 419 408 419 408 468.5 371 c 128,-1,2
 518 334 518 334 518 261 c 128,-1,3
 518 188 518 188 461 147.5 c 128,-1,4
 404 107 404 107 310 107 c 2,5,-1
 251 107 l 1,6,-1
 251 91 l 2,7,8
 251 80 251 80 256 77 c 128,-1,9
 261 74 261 74 277 74 c 2,10,-1
 310 76 l 1,11,-1
 318 67 l 1,12,-1
 310 -3 l 1,13,14
 195 0 195 0 158 0 c 2,15,-1
 15 -3 l 1,16,-1
 22 69 l 1,17,18
 54 75 54 75 64 87 c 128,-1,19
 74 99 74 99 74 132 c 2,20,-1
 74 390 l 2,21,22
 74 414 74 414 68 421.5 c 128,-1,23
 62 429 62 429 45 429 c 2,24,-1
 25 429 l 1,25,-1
 17 441 l 1,26,-1
 24 504 l 1,27,-1
 162 504 l 1,28,-1
 311 507 l 1,29,-1
 305 431 l 1,30,31
 275 425 275 425 268 421.5 c 128,-1,32
 261 418 261 418 259 408 c 1,33,-1
 314 408 l 2,0,1
253 270 m 1,34,-1
 252 206 l 1,35,36
 284 199 284 199 301 199 c 1,37,38
 334 210 334 210 334 260 c 128,-1,39
 334 310 334 310 269 310 c 0,40,41
 253 310 253 310 253 291 c 2,42,-1
 253 270 l 1,34,-1
EndSplineSet
EndChar

StartChar: ydieresis
Encoding: 255 255 192
Width: 578
GlyphClass: 2
Flags: W
LayerCount: 2
Fore
SplineSet
333 502 m 1,0,-1
 469 503 l 1,1,-1
 566 506 l 1,2,-1
 569 500 l 1,3,-1
 562 425 l 1,4,5
 537 410 537 410 512 383 c 128,-1,6
 487 356 487 356 472 328 c 2,7,-1
 398 186 l 1,8,9
 386 159 386 159 386 129 c 128,-1,10
 386 99 386 99 395 88 c 128,-1,11
 404 77 404 77 428 77 c 1,12,-1
 471 80 l 1,13,-1
 475 75 l 1,14,-1
 468 -5 l 1,15,16
 337 0 337 0 287 0 c 1,17,-1
 111 -7 l 1,18,-1
 117 71 l 1,19,20
 171 74 171 74 188.5 85 c 128,-1,21
 206 96 206 96 206 129 c 2,22,-1
 206 137 l 2,23,24
 206 165 206 165 183 204 c 2,25,-1
 92 361 l 1,26,27
 71 392 71 392 13 422 c 1,28,-1
 9 427 l 1,29,-1
 18 505 l 1,30,31
 121 503 121 503 147 503 c 1,32,-1
 300 509 l 1,33,-1
 307 499 l 1,34,-1
 298 429 l 1,35,36
 295 429 295 429 293 429 c 0,37,38
 268 429 268 429 268 411 c 0,39,40
 268 403 268 403 285 366 c 128,-1,41
 302 329 302 329 309 312 c 1,42,-1
 321 312 l 1,43,-1
 347 386 l 1,44,45
 358 408 358 408 358 419 c 128,-1,46
 358 430 358 430 334 430 c 0,47,48
 331 430 331 430 329 430 c 1,49,-1
 326 435 l 1,50,-1
 333 502 l 1,0,-1
402 541 m 0,51,52
 322 541 322 541 322 621 c 0,53,54
 322 661 322 661 345 684.5 c 128,-1,55
 368 708 368 708 407 708 c 128,-1,56
 446 708 446 708 466.5 687 c 128,-1,57
 487 666 487 666 487 627 c 128,-1,58
 487 588 487 588 464 564.5 c 128,-1,59
 441 541 441 541 402 541 c 0,51,52
209 541 m 0,60,61
 130 541 130 541 130 621 c 0,62,63
 130 661 130 661 153 684.5 c 128,-1,64
 176 708 176 708 215 708 c 128,-1,65
 254 708 254 708 274.5 687 c 128,-1,66
 295 666 295 666 295 627 c 128,-1,67
 295 588 295 588 272 564.5 c 128,-1,68
 249 541 249 541 209 541 c 0,60,61
EndSplineSet
EndChar

StartChar: Amacron
Encoding: 256 256 193
Width: 676
GlyphClass: 2
Flags: W
LayerCount: 2
Fore
SplineSet
395 178 m 1,0,1
 341 180 341 180 322 180 c 128,-1,2
 303 180 303 180 238 175 c 1,3,4
 225 118 225 118 225 107 c 128,-1,5
 225 96 225 96 230.5 92.5 c 128,-1,6
 236 89 236 89 256 89 c 2,7,-1
 282 89 l 1,8,-1
 290 79 l 1,9,-1
 282 -4 l 1,10,11
 189 -1 189 -1 128 -1 c 2,12,-1
 -5 -2 l 1,13,-1
 2 85 l 1,14,15
 38 94 38 94 53 140 c 2,16,-1
 212 642 l 1,17,-1
 475 658 l 1,18,-1
 490 646 l 1,19,20
 586 261 586 261 615 153 c 0,21,22
 624 119 624 119 637.5 103.5 c 128,-1,23
 651 88 651 88 674 86 c 1,24,-1
 681 76 l 1,25,-1
 673 -3 l 1,26,27
 587 -1 587 -1 532 -1 c 1,28,-1
 341 -6 l 1,29,-1
 333 3 l 1,30,-1
 339 87 l 1,31,32
 385 92 385 92 394 97 c 128,-1,33
 403 102 403 102 403 114 c 128,-1,34
 403 126 403 126 395 178 c 1,0,1
321 301 m 2,35,36
 337 301 337 301 373 303 c 1,37,-1
 339 478 l 1,38,-1
 317 478 l 1,39,-1
 270 301 l 1,40,-1
 321 301 l 2,35,36
489 823 m 1,41,-1
 500 805 l 1,42,-1
 482 696 l 1,43,-1
 208 694 l 1,44,-1
 192 709 l 1,45,-1
 211 818 l 1,46,47
 306 817 306 817 365 817 c 1,48,-1
 489 823 l 1,41,-1
EndSplineSet
EndChar

StartChar: amacron
Encoding: 257 257 194
Width: 586
GlyphClass: 2
Flags: W
LayerCount: 2
Fore
SplineSet
340 101 m 1,0,-1
 337 131 l 1,1,2
 314 132 314 132 276 132 c 1,3,-1
 213 129 l 1,4,5
 206 99 206 99 206 89.5 c 128,-1,6
 206 80 206 80 209 78 c 128,-1,7
 212 76 212 76 228 76 c 2,8,-1
 246 76 l 1,9,-1
 254 67 l 1,10,-1
 247 -3 l 1,11,12
 167 -1 167 -1 117 -1 c 2,13,-1
 4 -1 l 1,14,-1
 10 72 l 1,15,16
 38 80 38 80 49 111 c 2,17,-1
 177 500 l 1,18,-1
 418 513 l 1,19,-1
 431 502 l 1,20,21
 512 192 512 192 528 134 c 128,-1,22
 544 76 544 76 576 73 c 1,23,-1
 582 64 l 1,24,-1
 575 -2 l 1,25,26
 502 -1 502 -1 455 -1 c 2,27,-1
 291 -4 l 1,28,-1
 284 3 l 1,29,-1
 289 75 l 1,30,31
 334 80 334 80 338 86 c 0,32,33
 340 90 340 90 340 101 c 1,0,-1
442 679 m 1,34,-1
 453 661 l 1,35,-1
 435 552 l 1,36,-1
 161 550 l 1,37,-1
 145 565 l 1,38,-1
 164 674 l 1,39,40
 259 673 259 673 318 673 c 1,41,-1
 442 679 l 1,34,-1
279 238 m 2,42,43
 303 238 303 238 318 239 c 1,44,-1
 294 363 l 1,45,-1
 275 363 l 1,46,-1
 241 238 l 1,47,-1
 279 238 l 2,42,43
EndSplineSet
EndChar

StartChar: Abreve
Encoding: 258 258 195
Width: 676
GlyphClass: 2
Flags: W
LayerCount: 2
Fore
SplineSet
395 178 m 1,0,1
 341 180 341 180 322 180 c 128,-1,2
 303 180 303 180 238 175 c 1,3,4
 225 118 225 118 225 107 c 128,-1,5
 225 96 225 96 230.5 92.5 c 128,-1,6
 236 89 236 89 256 89 c 2,7,-1
 282 89 l 1,8,-1
 290 79 l 1,9,-1
 282 -4 l 1,10,11
 189 -1 189 -1 128 -1 c 2,12,-1
 -5 -2 l 1,13,-1
 2 85 l 1,14,15
 38 94 38 94 53 140 c 2,16,-1
 212 642 l 1,17,-1
 475 658 l 1,18,-1
 490 646 l 1,19,20
 586 261 586 261 615 153 c 0,21,22
 624 119 624 119 637.5 103.5 c 128,-1,23
 651 88 651 88 674 86 c 1,24,-1
 681 76 l 1,25,-1
 673 -3 l 1,26,27
 587 -1 587 -1 532 -1 c 1,28,-1
 341 -6 l 1,29,-1
 333 3 l 1,30,-1
 339 87 l 1,31,32
 385 92 385 92 394 97 c 128,-1,33
 403 102 403 102 403 114 c 128,-1,34
 403 126 403 126 395 178 c 1,0,1
321 301 m 2,35,36
 337 301 337 301 373 303 c 1,37,-1
 339 478 l 1,38,-1
 317 478 l 1,39,-1
 270 301 l 1,40,-1
 321 301 l 2,35,36
341 810 m 128,-1,42
 422 810 422 810 452 880 c 1,43,-1
 479 873 l 1,44,-1
 519 811 l 1,45,46
 501 753 501 753 456.5 714 c 128,-1,47
 412 675 412 675 341 675 c 128,-1,48
 270 675 270 675 225.5 714 c 128,-1,49
 181 753 181 753 163 811 c 1,50,-1
 203 873 l 1,51,-1
 230 880 l 1,52,41
 260 810 260 810 341 810 c 128,-1,42
EndSplineSet
EndChar

StartChar: abreve
Encoding: 259 259 196
Width: 586
GlyphClass: 2
Flags: W
LayerCount: 2
Fore
SplineSet
340 101 m 1,0,-1
 337 131 l 1,1,2
 314 132 314 132 276 132 c 1,3,-1
 213 129 l 1,4,5
 206 99 206 99 206 89.5 c 128,-1,6
 206 80 206 80 209 78 c 128,-1,7
 212 76 212 76 228 76 c 2,8,-1
 246 76 l 1,9,-1
 254 67 l 1,10,-1
 247 -3 l 1,11,12
 167 -1 167 -1 117 -1 c 2,13,-1
 4 -1 l 1,14,-1
 10 72 l 1,15,16
 38 80 38 80 49 111 c 2,17,-1
 177 500 l 1,18,-1
 418 513 l 1,19,-1
 431 502 l 1,20,21
 512 192 512 192 528 134 c 128,-1,22
 544 76 544 76 576 73 c 1,23,-1
 582 64 l 1,24,-1
 575 -2 l 1,25,26
 502 -1 502 -1 455 -1 c 2,27,-1
 291 -4 l 1,28,-1
 284 3 l 1,29,-1
 289 75 l 1,30,31
 334 80 334 80 338 86 c 0,32,33
 340 90 340 90 340 101 c 1,0,-1
295 666 m 128,-1,35
 376 666 376 666 406 736 c 1,36,-1
 433 729 l 1,37,-1
 473 667 l 1,38,39
 455 609 455 609 410.5 570 c 128,-1,40
 366 531 366 531 295 531 c 128,-1,41
 224 531 224 531 179.5 570 c 128,-1,42
 135 609 135 609 117 667 c 1,43,-1
 157 729 l 1,44,-1
 184 736 l 1,45,34
 214 666 214 666 295 666 c 128,-1,35
279 238 m 2,46,47
 303 238 303 238 318 239 c 1,48,-1
 294 363 l 1,49,-1
 275 363 l 1,50,-1
 241 238 l 1,51,-1
 279 238 l 2,46,47
EndSplineSet
EndChar

StartChar: Aogonek
Encoding: 260 260 197
Width: 676
GlyphClass: 2
Flags: W
LayerCount: 2
Fore
SplineSet
480.5 -218 m 128,-1,1
 446 -194 446 -194 446 -157.5 c 128,-1,2
 446 -121 446 -121 465.5 -87 c 128,-1,3
 485 -53 485 -53 533 -1 c 1,4,-1
 532 -1 l 1,5,-1
 341 -6 l 1,6,-1
 333 3 l 1,7,-1
 339 87 l 1,8,9
 385 92 385 92 394 97 c 128,-1,10
 403 102 403 102 403 121 c 0,11,12
 403 126 403 126 395 178 c 1,13,14
 341 180 341 180 322 180 c 128,-1,15
 303 180 303 180 238 175 c 1,16,17
 225 118 225 118 225 107 c 128,-1,18
 225 96 225 96 230.5 92.5 c 128,-1,19
 236 89 236 89 256 89 c 2,20,-1
 282 89 l 1,21,-1
 290 79 l 1,22,-1
 282 -4 l 1,23,24
 189 -1 189 -1 128 -1 c 2,25,-1
 -5 -2 l 1,26,-1
 2 85 l 1,27,28
 38 94 38 94 53 140 c 2,29,-1
 212 642 l 1,30,-1
 475 658 l 1,31,-1
 490 646 l 1,32,33
 586 261 586 261 615 153 c 0,34,35
 624 119 624 119 637.5 103.5 c 128,-1,36
 651 88 651 88 674 86 c 1,37,-1
 681 76 l 1,38,-1
 673 -3 l 1,39,40
 643 -2 643 -2 608 -1 c 1,41,42
 547 -84 547 -84 547 -116 c 0,43,44
 547 -135 547 -135 558 -146 c 128,-1,45
 569 -157 569 -157 585 -157 c 0,46,47
 612 -157 612 -157 654 -132 c 1,48,-1
 679 -171 l 1,49,50
 623 -224 623 -224 575 -242 c 1,51,0
 515 -242 515 -242 480.5 -218 c 128,-1,1
321 301 m 2,52,53
 337 301 337 301 373 303 c 1,54,-1
 339 478 l 1,55,-1
 317 478 l 1,56,-1
 270 301 l 1,57,-1
 321 301 l 2,52,53
EndSplineSet
EndChar

StartChar: aogonek
Encoding: 261 261 198
Width: 586
GlyphClass: 2
Flags: W
LayerCount: 2
Fore
SplineSet
276 132 m 1,0,-1
 213 129 l 1,1,2
 206 99 206 99 206 89.5 c 128,-1,3
 206 80 206 80 209 78 c 128,-1,4
 212 76 212 76 228 76 c 2,5,-1
 246 76 l 1,6,-1
 254 67 l 1,7,-1
 247 -3 l 1,8,9
 167 -1 167 -1 117 -1 c 2,10,-1
 4 -1 l 1,11,-1
 10 72 l 1,12,13
 38 80 38 80 49 111 c 2,14,-1
 177 500 l 1,15,-1
 418 513 l 1,16,-1
 431 502 l 1,17,18
 512 192 512 192 528 134 c 128,-1,19
 544 76 544 76 576 73 c 1,20,-1
 582 64 l 1,21,-1
 575 -2 l 1,22,23
 550 -1 550 -1 523 -1 c 1,24,25
 462 -84 462 -84 462 -116 c 0,26,27
 462 -135 462 -135 473 -146 c 128,-1,28
 484 -157 484 -157 500 -157 c 0,29,30
 527 -157 527 -157 569 -132 c 1,31,-1
 594 -171 l 1,32,33
 538 -224 538 -224 490 -242 c 1,34,35
 430 -242 430 -242 395.5 -218 c 128,-1,36
 361 -194 361 -194 361 -157.5 c 128,-1,37
 361 -121 361 -121 380.5 -87 c 128,-1,38
 400 -53 400 -53 448 -1 c 1,39,-1
 291 -4 l 1,40,-1
 284 3 l 1,41,-1
 289 75 l 1,42,43
 334 80 334 80 338 86 c 0,44,45
 340 90 340 90 340 101 c 1,46,-1
 337 131 l 1,47,48
 314 132 314 132 276 132 c 1,0,-1
279 238 m 2,49,50
 303 238 303 238 318 239 c 1,51,-1
 294 363 l 1,52,-1
 275 363 l 1,53,-1
 241 238 l 1,54,-1
 279 238 l 2,49,50
EndSplineSet
EndChar

StartChar: Cacute
Encoding: 262 262 199
Width: 603
GlyphClass: 2
Flags: W
LayerCount: 2
Fore
SplineSet
547 27 m 1,0,1
 439 -11 439 -11 305 -11 c 128,-1,2
 171 -11 171 -11 93 74 c 128,-1,3
 15 159 15 159 15 319 c 128,-1,4
 15 479 15 479 106 569 c 128,-1,5
 197 659 197 659 366 659 c 0,6,7
 442 659 442 659 576 633 c 1,8,-1
 584 613 l 1,9,10
 563 521 563 521 556 399 c 1,11,-1
 402 390 l 1,12,13
 404 416 404 416 404 451.5 c 128,-1,14
 404 487 404 487 388.5 504 c 128,-1,15
 373 521 373 521 335 521 c 0,16,17
 283 521 283 521 263 483.5 c 128,-1,18
 243 446 243 446 243 340.5 c 128,-1,19
 243 235 243 235 266.5 182.5 c 128,-1,20
 290 130 290 130 340 130 c 0,21,22
 378 130 378 130 396 156 c 128,-1,23
 414 182 414 182 419 246 c 1,24,-1
 572 256 l 1,25,26
 560 139 560 139 560 43 c 1,27,-1
 547 27 l 1,0,1
524 762 m 1,28,-1
 517 746 l 1,29,30
 387 722 387 722 263 691 c 1,31,-1
 244 704 l 1,32,-1
 223 775 l 1,33,34
 326 813 326 813 472 875 c 1,35,-1
 488 870 l 1,36,-1
 524 762 l 1,28,-1
EndSplineSet
EndChar

StartChar: cacute
Encoding: 263 263 200
Width: 512
GlyphClass: 2
Flags: W
LayerCount: 2
Fore
SplineSet
481 207 m 1,0,1
 473 119 473 119 473 34 c 1,2,-1
 461 21 l 1,3,4
 369 -8 369 -8 257 -8 c 128,-1,5
 145 -8 145 -8 81 58 c 128,-1,6
 17 124 17 124 17 250 c 128,-1,7
 17 376 17 376 91 444.5 c 128,-1,8
 165 513 165 513 308 513 c 0,9,10
 371 513 371 513 487 493 c 1,11,-1
 494 475 l 1,12,13
 476 402 476 402 470 303 c 1,14,-1
 331 295 l 1,15,16
 332 315 332 315 332 343 c 128,-1,17
 332 371 332 371 321.5 383 c 128,-1,18
 311 395 311 395 278 395 c 128,-1,19
 245 395 245 395 233 371 c 128,-1,20
 221 347 221 347 221 267 c 128,-1,21
 221 187 221 187 236 150.5 c 128,-1,22
 251 114 251 114 283.5 114 c 128,-1,23
 316 114 316 114 328 132.5 c 128,-1,24
 340 151 340 151 343 198 c 1,25,-1
 481 207 l 1,0,1
461 618 m 1,26,-1
 454 602 l 1,27,28
 324 578 324 578 200 547 c 1,29,-1
 181 560 l 1,30,-1
 160 631 l 1,31,32
 263 669 263 669 409 731 c 1,33,-1
 425 726 l 1,34,-1
 461 618 l 1,26,-1
EndSplineSet
EndChar

StartChar: Ccircumflex
Encoding: 264 264 201
Width: 603
GlyphClass: 2
Flags: W
LayerCount: 2
Fore
SplineSet
547 27 m 1,0,1
 439 -11 439 -11 305 -11 c 128,-1,2
 171 -11 171 -11 93 74 c 128,-1,3
 15 159 15 159 15 319 c 128,-1,4
 15 479 15 479 106 569 c 128,-1,5
 197 659 197 659 366 659 c 0,6,7
 442 659 442 659 576 633 c 1,8,-1
 584 613 l 1,9,10
 563 521 563 521 556 399 c 1,11,-1
 402 390 l 1,12,13
 404 416 404 416 404 451.5 c 128,-1,14
 404 487 404 487 388.5 504 c 128,-1,15
 373 521 373 521 335 521 c 0,16,17
 283 521 283 521 263 483.5 c 128,-1,18
 243 446 243 446 243 340.5 c 128,-1,19
 243 235 243 235 266.5 182.5 c 128,-1,20
 290 130 290 130 340 130 c 0,21,22
 378 130 378 130 396 156 c 128,-1,23
 414 182 414 182 419 246 c 1,24,-1
 572 256 l 1,25,26
 560 139 560 139 560 43 c 1,27,-1
 547 27 l 1,0,1
206 716 m 1,28,-1
 160 778 l 1,29,30
 240 849 240 849 327 934 c 1,31,-1
 354 934 l 1,32,33
 442 847 442 847 520 778 c 1,34,-1
 475 716 l 1,35,-1
 452 709 l 1,36,37
 414 735 414 735 340 778 c 1,38,39
 272 739 272 739 229 709 c 1,40,-1
 206 716 l 1,28,-1
EndSplineSet
EndChar

